  0
SECTION
  2
HEADER
  9
$ACADVER
  1
AC1027
  9
$ACADMAINTVER
 70
105
  9
$DWGCODEPAGE
  3
ANSI_1252
  9
$LASTSAVEDBY
  1
ezdxf
  9
$REQUIREDVERSIONS
160
0
  9
$INSBASE
 10
0.0
 20
0.0
 30
0.0
  9
$EXTMIN
 10
1e+20
 20
1e+20
 30
1e+20
  9
$EXTMAX
 10
-1e+20
 20
-1e+20
 30
-1e+20
  9
$LIMMIN
 10
0.0
 20
0.0
  9
$LIMMAX
 10
420.0
 20
297.0
  9
$ORTHOMODE
 70
0
  9
$REGENMODE
 70
1
  9
$FILLMODE
 70
1
  9
$QTEXTMODE
 70
0
  9
$MIRRTEXT
 70
1
  9
$LTSCALE
 40
1.0
  9
$ATTMODE
 70
1
  9
$TEXTSIZE
 40
2.5
  9
$TRACEWID
 40
1.0
  9
$TEXTSTYLE
  7
Standard
  9
$CLAYER
  8
0
  9
$CELTYPE
  6
ByLayer
  9
$CECOLOR
 62
256
  9
$CELTSCALE
 40
1.0
  9
$DISPSILH
 70
0
  9
$DIMSCALE
 40
1.0
  9
$DIMASZ
 40
2.5
  9
$DIMEXO
 40
0.625
  9
$DIMDLI
 40
3.75
  9
$DIMRND
 40
0.0
  9
$DIMDLE
 40
0.0
  9
$DIMEXE
 40
1.25
  9
$DIMTP
 40
0.0
  9
$DIMTM
 40
0.0
  9
$DIMTXT
 40
2.5
  9
$DIMCEN
 40
2.5
  9
$DIMTSZ
 40
0.0
  9
$DIMTOL
 70
0
  9
$DIMLIM
 70
0
  9
$DIMTIH
 70
0
  9
$DIMTOH
 70
0
  9
$DIMSE1
 70
0
  9
$DIMSE2
 70
0
  9
$DIMTAD
 70
1
  9
$DIMZIN
 70
8
  9
$DIMBLK
  1

  9
$DIMASO
 70
1
  9
$DIMSHO
 70
1
  9
$DIMPOST
  1

  9
$DIMAPOST
  1

  9
$DIMALT
 70
0
  9
$DIMALTD
 70
3
  9
$DIMALTF
 40
0.03937007874
  9
$DIMLFAC
 40
1.0
  9
$DIMTOFL
 70
1
  9
$DIMTVP
 40
0.0
  9
$DIMTIX
 70
0
  9
$DIMSOXD
 70
0
  9
$DIMSAH
 70
0
  9
$DIMBLK1
  1

  9
$DIMBLK2
  1

  9
$DIMSTYLE
  2
ISO-25
  9
$DIMCLRD
 70
0
  9
$DIMCLRE
 70
0
  9
$DIMCLRT
 70
0
  9
$DIMTFAC
 40
1.0
  9
$DIMGAP
 40
0.625
  9
$DIMJUST
 70
0
  9
$DIMSD1
 70
0
  9
$DIMSD2
 70
0
  9
$DIMTOLJ
 70
0
  9
$DIMTZIN
 70
8
  9
$DIMALTZ
 70
0
  9
$DIMALTTZ
 70
0
  9
$DIMUPT
 70
0
  9
$DIMDEC
 70
2
  9
$DIMTDEC
 70
2
  9
$DIMALTU
 70
2
  9
$DIMALTTD
 70
3
  9
$DIMTXSTY
  7
Standard
  9
$DIMAUNIT
 70
0
  9
$DIMADEC
 70
0
  9
$DIMALTRND
 40
0.0
  9
$DIMAZIN
 70
0
  9
$DIMDSEP
 70
44
  9
$DIMATFIT
 70
3
  9
$DIMFRAC
 70
0
  9
$DIMLDRBLK
  1

  9
$DIMLUNIT
 70
2
  9
$DIMLWD
 70
-2
  9
$DIMLWE
 70
-2
  9
$DIMTMOVE
 70
0
  9
$DIMFXL
 40
1.0
  9
$DIMFXLON
 70
0
  9
$DIMJOGANG
 40
0.785398163397
  9
$DIMTFILL
 70
0
  9
$DIMTFILLCLR
 70
0
  9
$DIMARCSYM
 70
0
  9
$DIMLTYPE
  6

  9
$DIMLTEX1
  6

  9
$DIMLTEX2
  6

  9
$DIMTXTDIRECTION
 70
0
  9
$LUNITS
 70
2
  9
$LUPREC
 70
4
  9
$SKETCHINC
 40
1.0
  9
$FILLETRAD
 40
10.0
  9
$AUNITS
 70
0
  9
$AUPREC
 70
2
  9
$MENU
  1
.
  9
$ELEVATION
 40
0.0
  9
$PELEVATION
 40
0.0
  9
$THICKNESS
 40
0.0
  9
$LIMCHECK
 70
0
  9
$CHAMFERA
 40
0.0
  9
$CHAMFERB
 40
0.0
  9
$CHAMFERC
 40
0.0
  9
$CHAMFERD
 40
0.0
  9
$SKPOLY
 70
0
  9
$TDCREATE
 40
2460618.9193402776
  9
$TDUCREATE
 40
2458532.153996898
  9
$TDUPDATE
 40
2460618.9193402776
  9
$TDUUPDATE
 40
2458532.1544311
  9
$TDINDWG
 40
0.0
  9
$TDUSRTIMER
 40
0.0
  9
$USRTIMER
 70
1
  9
$ANGBASE
 50
0.0
  9
$ANGDIR
 70
0
  9
$PDMODE
 70
0
  9
$PDSIZE
 40
0.0
  9
$PLINEWID
 40
0.0
  9
$SPLFRAME
 70
0
  9
$SPLINETYPE
 70
6
  9
$SPLINESEGS
 70
8
  9
$HANDSEED
  5
238
  9
$SURFTAB1
 70
6
  9
$SURFTAB2
 70
6
  9
$SURFTYPE
 70
6
  9
$SURFU
 70
6
  9
$SURFV
 70
6
  9
$UCSBASE
  2

  9
$UCSNAME
  2

  9
$UCSORG
 10
0.0
 20
0.0
 30
0.0
  9
$UCSXDIR
 10
1.0
 20
0.0
 30
0.0
  9
$UCSYDIR
 10
0.0
 20
1.0
 30
0.0
  9
$UCSORTHOREF
  2

  9
$UCSORTHOVIEW
 70
0
  9
$UCSORGTOP
 10
0.0
 20
0.0
 30
0.0
  9
$UCSORGBOTTOM
 10
0.0
 20
0.0
 30
0.0
  9
$UCSORGLEFT
 10
0.0
 20
0.0
 30
0.0
  9
$UCSORGRIGHT
 10
0.0
 20
0.0
 30
0.0
  9
$UCSORGFRONT
 10
0.0
 20
0.0
 30
0.0
  9
$UCSORGBACK
 10
0.0
 20
0.0
 30
0.0
  9
$PUCSBASE
  2

  9
$PUCSNAME
  2

  9
$PUCSORG
 10
0.0
 20
0.0
 30
0.0
  9
$PUCSXDIR
 10
1.0
 20
0.0
 30
0.0
  9
$PUCSYDIR
 10
0.0
 20
1.0
 30
0.0
  9
$PUCSORTHOREF
  2

  9
$PUCSORTHOVIEW
 70
0
  9
$PUCSORGTOP
 10
0.0
 20
0.0
 30
0.0
  9
$PUCSORGBOTTOM
 10
0.0
 20
0.0
 30
0.0
  9
$PUCSORGLEFT
 10
0.0
 20
0.0
 30
0.0
  9
$PUCSORGRIGHT
 10
0.0
 20
0.0
 30
0.0
  9
$PUCSORGFRONT
 10
0.0
 20
0.0
 30
0.0
  9
$PUCSORGBACK
 10
0.0
 20
0.0
 30
0.0
  9
$USERI1
 70
0
  9
$USERI2
 70
0
  9
$USERI3
 70
0
  9
$USERI4
 70
0
  9
$USERI5
 70
0
  9
$USERR1
 40
0.0
  9
$USERR2
 40
0.0
  9
$USERR3
 40
0.0
  9
$USERR4
 40
0.0
  9
$USERR5
 40
0.0
  9
$WORLDVIEW
 70
1
  9
$SHADEDGE
 70
3
  9
$SHADEDIF
 70
70
  9
$TILEMODE
 70
1
  9
$MAXACTVP
 70
64
  9
$PINSBASE
 10
0.0
 20
0.0
 30
0.0
  9
$PLIMCHECK
 70
0
  9
$PEXTMIN
 10
1e+20
 20
1e+20
 30
1e+20
  9
$PEXTMAX
 10
-1e+20
 20
-1e+20
 30
-1e+20
  9
$PLIMMIN
 10
0.0
 20
0.0
  9
$PLIMMAX
 10
420.0
 20
297.0
  9
$UNITMODE
 70
0
  9
$VISRETAIN
 70
1
  9
$PLINEGEN
 70
0
  9
$PSLTSCALE
 70
1
  9
$TREEDEPTH
 70
3020
  9
$CMLSTYLE
  2
Standard
  9
$CMLJUST
 70
0
  9
$CMLSCALE
 40
20.0
  9
$PROXYGRAPHICS
 70
1
  9
$MEASUREMENT
 70
1
  9
$CELWEIGHT
370
-1
  9
$ENDCAPS
280
0
  9
$JOINSTYLE
280
0
  9
$LWDISPLAY
290
0
  9
$INSUNITS
 70
6
  9
$HYPERLINKBASE
  1

  9
$STYLESHEET
  1

  9
$XEDIT
290
1
  9
$CEPSNTYPE
380
0
  9
$PSTYLEMODE
290
1
  9
$FINGERPRINTGUID
  2
{9E817BDB-E307-45D8-8EC5-7B4828C13398}
  9
$VERSIONGUID
  2
{76124D5D-D8AE-4D04-B987-AD241B59D84A}
  9
$EXTNAMES
290
1
  9
$PSVPSCALE
 40
0.0
  9
$OLESTARTUP
290
0
  9
$SORTENTS
280
127
  9
$INDEXCTL
280
0
  9
$HIDETEXT
280
1
  9
$XCLIPFRAME
280
1
  9
$HALOGAP
280
0
  9
$OBSCOLOR
 70
257
  9
$OBSLTYPE
280
0
  9
$INTERSECTIONDISPLAY
280
0
  9
$INTERSECTIONCOLOR
 70
257
  9
$DIMASSOC
280
2
  9
$PROJECTNAME
  1

  9
$CAMERADISPLAY
290
0
  9
$LENSLENGTH
 40
50.0
  9
$CAMERAHEIGHT
 40
0.0
  9
$STEPSPERSEC
 40
24.0
  9
$STEPSIZE
 40
100.0
  9
$3DDWFPREC
 40
2.0
  9
$PSOLWIDTH
 40
0.005
  9
$PSOLHEIGHT
 40
0.08
  9
$LOFTANG1
 40
1.570796326795
  9
$LOFTANG2
 40
1.570796326795
  9
$LOFTMAG1
 40
0.0
  9
$LOFTMAG2
 40
0.0
  9
$LOFTPARAM
 70
7
  9
$LOFTNORMALS
280
1
  9
$LATITUDE
 40
37.795
  9
$LONGITUDE
 40
-122.394
  9
$NORTHDIRECTION
 40
0.0
  9
$TIMEZONE
 70
-8000
  9
$LIGHTGLYPHDISPLAY
280
1
  9
$TILEMODELIGHTSYNCH
280
1
  9
$CMATERIAL
347
20
  9
$SOLIDHIST
280
0
  9
$SHOWHIST
280
1
  9
$DWFFRAME
280
2
  9
$DGNFRAME
280
2
  9
$REALWORLDSCALE
290
1
  9
$INTERFERECOLOR
 62
256
  9
$CSHADOW
280
0
  9
$SHADOWPLANELOCATION
 40
0.0
  0
ENDSEC
  0
SECTION
  2
CLASSES
  0
CLASS
  1
ACDBDICTIONARYWDFLT
  2
AcDbDictionaryWithDefault
  3
ObjectDBX Classes
 90
0
 91
0
280
0
281
0
  0
CLASS
  1
SUN
  2
AcDbSun
  3
SCENEOE
 90
1153
 91
0
280
0
281
0
  0
CLASS
  1
VISUALSTYLE
  2
AcDbVisualStyle
  3
ObjectDBX Classes
 90
4095
 91
0
280
0
281
0
  0
CLASS
  1
MATERIAL
  2
AcDbMaterial
  3
ObjectDBX Classes
 90
1153
 91
0
280
0
281
0
  0
CLASS
  1
SCALE
  2
AcDbScale
  3
ObjectDBX Classes
 90
1153
 91
0
280
0
281
0
  0
CLASS
  1
TABLESTYLE
  2
AcDbTableStyle
  3
ObjectDBX Classes
 90
4095
 91
0
280
0
281
0
  0
CLASS
  1
MLEADERSTYLE
  2
AcDbMLeaderStyle
  3
ACDB_MLEADERSTYLE_CLASS
 90
4095
 91
0
280
0
281
0
  0
CLASS
  1
DICTIONARYVAR
  2
AcDbDictionaryVar
  3
ObjectDBX Classes
 90
0
 91
0
280
0
281
0
  0
CLASS
  1
CELLSTYLEMAP
  2
AcDbCellStyleMap
  3
ObjectDBX Classes
 90
1152
 91
0
280
0
281
0
  0
CLASS
  1
MENTALRAYRENDERSETTINGS
  2
AcDbMentalRayRenderSettings
  3
SCENEOE
 90
1024
 91
0
280
0
281
0
  0
CLASS
  1
ACDBDETAILVIEWSTYLE
  2
AcDbDetailViewStyle
  3
ObjectDBX Classes
 90
1025
 91
0
280
0
281
0
  0
CLASS
  1
ACDBSECTIONVIEWSTYLE
  2
AcDbSectionViewStyle
  3
ObjectDBX Classes
 90
1025
 91
0
280
0
281
0
  0
CLASS
  1
RASTERVARIABLES
  2
AcDbRasterVariables
  3
ISM
 90
0
 91
0
280
0
281
0
  0
CLASS
  1
LAYOUT
  2
AcDbLayout
  3
ObjectDBX Classes
 90
0
 91
0
280
0
281
0
  0
CLASS
  1
ACDBPLACEHOLDER
  2
AcDbPlaceHolder
  3
ObjectDBX Classes
 90
0
 91
0
280
0
281
0
  0
ENDSEC
  0
SECTION
  2
TABLES
  0
TABLE
  2
VPORT
  5
8
330
0
100
AcDbSymbolTable
 70
1
  0
VPORT
  5
23
330
8
100
AcDbSymbolTableRecord
100
AcDbViewportTableRecord
  2
*Active
 70
0
 10
0.0
 20
0.0
 11
1.0
 21
1.0
 12
0.0
 22
0.0
 13
0.0
 23
0.0
 14
0.5
 24
0.5
 15
0.5
 25
0.5
 16
0.0
 26
0.0
 36
1.0
 17
0.0
 27
0.0
 37
0.0
 40
1000.0
 41
1.34
 42
50.0
 43
0.0
 44
0.0
 50
0.0
 51
0.0
 71
0
 72
1000
 73
1
 74
3
 75
0
 76
0
 77
0
 78
0
281
0
 65
0
146
0.0
  0
ENDTAB
  0
TABLE
  2
LTYPE
  5
2
330
0
100
AcDbSymbolTable
 70
3
  0
LTYPE
  5
24
330
2
100
AcDbSymbolTableRecord
100
AcDbLinetypeTableRecord
  2
ByBlock
 70
0
  3

 72
65
 73
0
 40
0.0
  0
LTYPE
  5
25
330
2
100
AcDbSymbolTableRecord
100
AcDbLinetypeTableRecord
  2
ByLayer
 70
0
  3

 72
65
 73
0
 40
0.0
  0
LTYPE
  5
26
330
2
100
AcDbSymbolTableRecord
100
AcDbLinetypeTableRecord
  2
Continuous
 70
0
  3

 72
65
 73
0
 40
0.0
  0
ENDTAB
  0
TABLE
  2
LAYER
  5
1
330
0
100
AcDbSymbolTable
 70
8
  0
LAYER
  5
27
330
1
100
AcDbSymbolTableRecord
100
AcDbLayerTableRecord
  2
0
 70
0
 62
7
  6
Continuous
370
-3
390
13
347
21
  0
LAYER
  5
28
330
1
100
AcDbSymbolTableRecord
100
AcDbLayerTableRecord
  2
Defpoints
 70
0
 62
7
  6
Continuous
290
0
370
-3
390
13
347
21
  0
LAYER
  5
2F
330
1
100
AcDbSymbolTableRecord
100
AcDbLayerTableRecord
  2
Cycloidal_Ring_Gear
 70
0
 62
1
  6
Continuous
370
-3
390
13
347
21
  0
LAYER
  5
30
330
1
100
AcDbSymbolTableRecord
100
AcDbLayerTableRecord
  2
Rollers
 70
0
 62
3
  6
Continuous
370
-3
390
13
347
21
  0
LAYER
  5
31
330
1
100
AcDbSymbolTableRecord
100
AcDbLayerTableRecord
  2
Wave_Generator
 70
0
 62
4
  6
Continuous
370
-3
390
13
347
21
  0
LAYER
  5
32
330
1
100
AcDbSymbolTableRecord
100
AcDbLayerTableRecord
  2
Wave_Generator_Bearing
 70
0
 62
6
  6
Continuous
370
-3
390
13
347
21
  0
LAYER
  5
33
330
1
100
AcDbSymbolTableRecord
100
AcDbLayerTableRecord
  2
Separator
 70
0
 62
2
  6
Continuous
370
-3
390
13
347
21
  0
LAYER
  5
34
330
1
100
AcDbSymbolTableRecord
100
AcDbLayerTableRecord
  2
Input_Shaft
 70
0
 62
5
  6
Continuous
370
-3
390
13
347
21
  0
ENDTAB
  0
TABLE
  2
STYLE
  5
5
330
0
100
AcDbSymbolTable
 70
1
  0
STYLE
  5
29
330
5
100
AcDbSymbolTableRecord
100
AcDbTextStyleTableRecord
  2
Standard
 70
0
 40
0.0
 41
1.0
 50
0.0
 71
0
 42
2.5
  3
txt
  4

  0
ENDTAB
  0
TABLE
  2
VIEW
  5
7
330
0
100
AcDbSymbolTable
 70
0
  0
ENDTAB
  0
TABLE
  2
UCS
  5
6
330
0
100
AcDbSymbolTable
 70
0
  0
ENDTAB
  0
TABLE
  2
APPID
  5
3
330
0
100
AcDbSymbolTable
 70
3
  0
APPID
  5
2A
330
3
100
AcDbSymbolTableRecord
100
AcDbRegAppTableRecord
  2
ACAD
 70
0
  0
APPID
  5
235
330
3
100
AcDbSymbolTableRecord
100
AcDbRegAppTableRecord
  2
HATCHBACKGROUNDCOLOR
 70
0
  0
APPID
  5
236
330
3
100
AcDbSymbolTableRecord
100
AcDbRegAppTableRecord
  2
EZDXF
 70
0
  0
ENDTAB
  0
TABLE
  2
DIMSTYLE
  5
4
330
0
100
AcDbSymbolTable
 70
1
100
AcDbDimStyleTable
  0
DIMSTYLE
105
2B
330
4
100
AcDbSymbolTableRecord
100
AcDbDimStyleTableRecord
  2
Standard
 70
0
 40
1.0
 41
2.5
 42
0.625
 43
3.75
 44
1.25
 45
0.0
 46
0.0
 47
0.0
 48
0.0
 49
2.5
140
2.5
141
2.5
142
0.0
143
0.03937007874
144
1.0
145
0.0
146
1.0
147
0.625
148
0.0
 69
0
 70
0
 71
0
 72
0
 73
0
 74
0
 75
0
 76
0
 77
1
 78
8
 79
3
170
0
171
3
172
1
173
0
174
0
175
0
176
0
177
0
178
0
179
2
271
2
272
2
273
2
274
3
275
0
276
0
277
2
278
44
279
0
280
0
281
0
282
0
283
0
284
8
285
0
286
0
288
0
289
3
290
0
371
-2
372
-2
  0
ENDTAB
  0
TABLE
  2
BLOCK_RECORD
  5
9
330
0
100
AcDbSymbolTable
 70
2
  0
BLOCK_RECORD
  5
17
330
9
100
AcDbSymbolTableRecord
100
AcDbBlockTableRecord
  2
*Model_Space
340
1A
 70
0
280
1
281
0
  0
BLOCK_RECORD
  5
1B
330
9
100
AcDbSymbolTableRecord
100
AcDbBlockTableRecord
  2
*Paper_Space
340
1E
 70
0
280
1
281
0
  0
ENDTAB
  0
ENDSEC
  0
SECTION
  2
BLOCKS
  0
BLOCK
  5
18
330
17
100
AcDbEntity
  8
0
100
AcDbBlockBegin
  2
*Model_Space
 70
0
 10
0.0
 20
0.0
 30
0.0
  3
*Model_Space
  1

  0
ENDBLK
  5
19
330
17
100
AcDbEntity
  8
0
100
AcDbBlockEnd
  0
BLOCK
  5
1C
330
1B
100
AcDbEntity
  8
0
100
AcDbBlockBegin
  2
*Paper_Space
 70
0
 10
0.0
 20
0.0
 30
0.0
  3
*Paper_Space
  1

  0
ENDBLK
  5
1D
330
1B
100
AcDbEntity
  8
0
100
AcDbBlockEnd
  0
ENDSEC
  0
SECTION
  2
ENTITIES
  0
LINE
  5
35
330
17
100
AcDbEntity
  8
Cycloidal_Ring_Gear
100
AcDbLine
 10
0.0
 20
17.368782623672967
 30
0.0
 11
0.4096274385707497
 21
17.35383149275849
 31
0.0
  0
LINE
  5
36
330
17
100
AcDbEntity
  8
Cycloidal_Ring_Gear
100
AcDbLine
 10
0.4096274385707497
 20
17.35383149275849
 30
0.0
 11
0.8148143354765741
 21
17.309487704291005
 31
0.0
  0
LINE
  5
37
330
17
100
AcDbEntity
  8
Cycloidal_Ring_Gear
100
AcDbLine
 10
0.8148143354765741
 20
17.309487704291005
 30
0.0
 11
1.2114407775024825
 21
17.23722058797196
 31
0.0
  0
LINE
  5
38
330
17
100
AcDbEntity
  8
Cycloidal_Ring_Gear
100
AcDbLine
 10
1.2114407775024825
 20
17.23722058797196
 30
0.0
 11
1.5959712132116555
 21
17.13929555262514
 31
0.0
  0
LINE
  5
39
330
17
100
AcDbEntity
  8
Cycloidal_Ring_Gear
100
AcDbLine
 10
1.5959712132116555
 20
17.13929555262514
 30
0.0
 11
1.9656220393881485
 21
17.018544780289968
 31
0.0
  0
LINE
  5
3A
330
17
100
AcDbEntity
  8
Cycloidal_Ring_Gear
100
AcDbLine
 10
1.9656220393881485
 20
17.018544780289968
 30
0.0
 11
2.3184208813283327
 21
16.878120097098172
 31
0.0
  0
LINE
  5
3B
330
17
100
AcDbEntity
  8
Cycloidal_Ring_Gear
100
AcDbLine
 10
2.3184208813283327
 20
16.878120097098172
 30
0.0
 11
2.65317075202508
 21
16.721269902783057
 31
0.0
  0
LINE
  5
3C
330
17
100
AcDbEntity
  8
Cycloidal_Ring_Gear
100
AcDbLine
 10
2.65317075202508
 20
16.721269902783057
 30
0.0
 11
2.9693478412091494
 21
16.551166441940797
 31
0.0
  0
LINE
  5
3D
330
17
100
AcDbEntity
  8
Cycloidal_Ring_Gear
100
AcDbLine
 10
2.9693478412091494
 20
16.551166441940797
 30
0.0
 11
3.2669655152956123
 21
16.37079224099961
 31
0.0
  0
LINE
  5
3E
330
17
100
AcDbEntity
  8
Cycloidal_Ring_Gear
100
AcDbLine
 10
3.2669655152956123
 20
16.37079224099961
 30
0.0
 11
3.546432144600932
 21
16.18288100093453
 31
0.0
  0
LINE
  5
3F
330
17
100
AcDbEntity
  8
Cycloidal_Ring_Gear
100
AcDbLine
 10
3.546432144600932
 20
16.18288100093453
 30
0.0
 11
3.8084213555331594
 21
15.989900821784726
 31
0.0
  0
LINE
  5
40
330
17
100
AcDbEntity
  8
Cycloidal_Ring_Gear
100
AcDbLine
 10
3.8084213555331594
 20
15.989900821784726
 30
0.0
 11
4.053764202952756
 21
15.794065665395221
 31
0.0
  0
LINE
  5
41
330
17
100
AcDbEntity
  8
Cycloidal_Ring_Gear
100
AcDbLine
 10
4.053764202952756
 20
15.794065665395221
 30
0.0
 11
4.283365741081757
 21
15.59736247776798
 31
0.0
  0
LINE
  5
42
330
17
100
AcDbEntity
  8
Cycloidal_Ring_Gear
100
AcDbLine
 10
4.283365741081757
 20
15.59736247776798
 30
0.0
 11
4.498144100874185
 21
15.401584430176678
 31
0.0
  0
LINE
  5
43
330
17
100
AcDbEntity
  8
Cycloidal_Ring_Gear
100
AcDbLine
 10
4.498144100874185
 20
15.401584430176678
 30
0.0
 11
4.698988078639465
 21
15.208363932621412
 31
0.0
  0
LINE
  5
44
330
17
100
AcDbEntity
  8
Cycloidal_Ring_Gear
100
AcDbLine
 10
4.698988078639465
 20
15.208363932621412
 30
0.0
 11
4.8867286991699785
 21
15.019201719226855
 31
0.0
  0
LINE
  5
45
330
17
100
AcDbEntity
  8
Cycloidal_Ring_Gear
100
AcDbLine
 10
4.8867286991699785
 20
15.019201719226855
 30
0.0
 11
5.062120570196264
 21
14.83549018018098
 31
0.0
  0
LINE
  5
46
330
17
100
AcDbEntity
  8
Cycloidal_Ring_Gear
100
AcDbLine
 10
5.062120570196264
 20
14.83549018018098
 30
0.0
 11
5.2258296097477235
 21
14.658530263597978
 31
0.0
  0
LINE
  5
47
330
17
100
AcDbEntity
  8
Cycloidal_Ring_Gear
100
AcDbLine
 10
5.2258296097477235
 20
14.658530263597978
 30
0.0
 11
5.378424613835644
 21
14.48954184553674
 31
0.0
  0
LINE
  5
48
330
17
100
AcDbEntity
  8
Cycloidal_Ring_Gear
100
AcDbLine
 10
5.378424613835644
 20
14.48954184553674
 30
0.0
 11
5.520371000062312
 21
14.329667636707496
 31
0.0
  0
LINE
  5
49
330
17
100
AcDbEntity
  8
Cycloidal_Ring_Gear
100
AcDbLine
 10
5.520371000062312
 20
14.329667636707496
 30
0.0
 11
5.6520258745165055
 21
14.179970609680126
 31
0.0
  0
LINE
  5
4A
330
17
100
AcDbEntity
  8
Cycloidal_Ring_Gear
100
AcDbLine
 10
5.6520258745165055
 20
14.179970609680126
 30
0.0
 11
5.773634343192843
 21
14.041424715730884
 31
0.0
  0
LINE
  5
4B
330
17
100
AcDbEntity
  8
Cycloidal_Ring_Gear
100
AcDbLine
 10
5.773634343192843
 20
14.041424715730884
 30
0.0
 11
5.8853277692326245
 21
13.91489842858283
 31
0.0
  0
LINE
  5
4C
330
17
100
AcDbEntity
  8
Cycloidal_Ring_Gear
100
AcDbLine
 10
5.8853277692326245
 20
13.91489842858283
 30
0.0
 11
5.987125506933857
 21
13.801130522828409
 31
0.0
  0
LINE
  5
4D
330
17
100
AcDbEntity
  8
Cycloidal_Ring_Gear
100
AcDbLine
 10
5.987125506933857
 20
13.801130522828409
 30
0.0
 11
6.07894253729433
 21
13.700697613583298
 31
0.0
  0
LINE
  5
4E
330
17
100
AcDbEntity
  8
Cycloidal_Ring_Gear
100
AcDbLine
 10
6.07894253729433
 20
13.700697613583298
 30
0.0
 11
6.160606336125029
 21
13.613973534127854
 31
0.0
  0
LINE
  5
4F
330
17
100
AcDbEntity
  8
Cycloidal_Ring_Gear
100
AcDbLine
 10
6.160606336125029
 20
13.613973534127854
 30
0.0
 11
6.231887056641536
 21
13.541081819798594
 31
0.0
  0
LINE
  5
50
330
17
100
AcDbEntity
  8
Cycloidal_Ring_Gear
100
AcDbLine
 10
6.231887056641536
 20
13.541081819798594
 30
0.0
 11
6.292545365757322
 21
13.48184458122209
 31
0.0
  0
LINE
  5
51
330
17
100
AcDbEntity
  8
Cycloidal_Ring_Gear
100
AcDbLine
 10
6.292545365757322
 20
13.48184458122209
 30
0.0
 11
6.342401500926984
 21
13.435733919214096
 31
0.0
  0
LINE
  5
52
330
17
100
AcDbEntity
  8
Cycloidal_Ring_Gear
100
AcDbLine
 10
6.342401500926984
 20
13.435733919214096
 30
0.0
 11
6.381426640660893
 21
13.401835437029401
 31
0.0
  0
LINE
  5
53
330
17
100
AcDbEntity
  8
Cycloidal_Ring_Gear
100
AcDbLine
 10
6.381426640660893
 20
13.401835437029401
 30
0.0
 11
6.409852941282642
 21
13.378836442736478
 31
0.0
  0
LINE
  5
54
330
17
100
AcDbEntity
  8
Cycloidal_Ring_Gear
100
AcDbLine
 10
6.409852941282642
 20
13.378836442736478
 30
0.0
 11
6.428291605136144
 21
13.365052524300827
 31
0.0
  0
LINE
  5
55
330
17
100
AcDbEntity
  8
Cycloidal_Ring_Gear
100
AcDbLine
 10
6.428291605136144
 20
13.365052524300827
 30
0.0
 11
6.437840336845507
 21
13.35850335565652
 31
0.0
  0
LINE
  5
56
330
17
100
AcDbEntity
  8
Cycloidal_Ring_Gear
100
AcDbLine
 10
6.437840336845507
 20
13.35850335565652
 30
0.0
 11
6.440155317573418
 21
13.357040421594665
 31
0.0
  0
LINE
  5
57
330
17
100
AcDbEntity
  8
Cycloidal_Ring_Gear
100
AcDbLine
 10
6.440155317573418
 20
13.357040421594665
 30
0.0
 11
6.437462252328855
 21
13.35851633715737
 31
0.0
  0
LINE
  5
58
330
17
100
AcDbEntity
  8
Cycloidal_Ring_Gear
100
AcDbLine
 10
6.437462252328855
 20
13.35851633715737
 30
0.0
 11
6.432489248896644
 21
13.360971074031687
 31
0.0
  0
LINE
  5
59
330
17
100
AcDbEntity
  8
Cycloidal_Ring_Gear
100
AcDbLine
 10
6.432489248896644
 20
13.360971074031687
 30
0.0
 11
6.428321116472974
 21
13.362800594972963
 31
0.0
  0
LINE
  5
5A
330
17
100
AcDbEntity
  8
Cycloidal_Ring_Gear
100
AcDbLine
 10
6.428321116472974
 20
13.362800594972963
 30
0.0
 11
6.428195251441773
 21
13.362873675806844
 31
0.0
  0
LINE
  5
5B
330
17
100
AcDbEntity
  8
Cycloidal_Ring_Gear
100
AcDbLine
 10
6.428195251441773
 20
13.362873675806844
 30
0.0
 11
6.435275525077084
 21
13.36057458433802
 31
0.0
  0
LINE
  5
5C
330
17
100
AcDbEntity
  8
Cycloidal_Ring_Gear
100
AcDbLine
 10
6.435275525077084
 20
13.36057458433802
 30
0.0
 11
6.452445514090236
 21
13.355768579380424
 31
0.0
  0
LINE
  5
5D
330
17
100
AcDbEntity
  8
Cycloidal_Ring_Gear
100
AcDbLine
 10
6.452445514090236
 20
13.355768579380424
 30
0.0
 11
6.482154316107428
 21
13.348706014178735
 31
0.0
  0
LINE
  5
5E
330
17
100
AcDbEntity
  8
Cycloidal_Ring_Gear
100
AcDbLine
 10
6.482154316107428
 20
13.348706014178735
 30
0.0
 11
6.526331465431073
 21
13.339892167741318
 31
0.0
  0
LINE
  5
5F
330
17
100
AcDbEntity
  8
Cycloidal_Ring_Gear
100
AcDbLine
 10
6.526331465431073
 20
13.339892167741318
 30
0.0
 11
6.5863695460023495
 21
13.32995122727915
 31
0.0
  0
LINE
  5
60
330
17
100
AcDbEntity
  8
Cycloidal_Ring_Gear
100
AcDbLine
 10
6.5863695460023495
 20
13.32995122727915
 30
0.0
 11
6.663160165941094
 21
13.319506290426236
 31
0.0
  0
LINE
  5
61
330
17
100
AcDbEntity
  8
Cycloidal_Ring_Gear
100
AcDbLine
 10
6.663160165941094
 20
13.319506290426236
 30
0.0
 11
6.757163447860705
 21
13.309087373940423
 31
0.0
  0
LINE
  5
62
330
17
100
AcDbEntity
  8
Cycloidal_Ring_Gear
100
AcDbLine
 10
6.757163447860705
 20
13.309087373940423
 30
0.0
 11
6.868492050938477
 21
13.299070284831371
 31
0.0
  0
LINE
  5
63
330
17
100
AcDbEntity
  8
Cycloidal_Ring_Gear
100
AcDbLine
 10
6.868492050938477
 20
13.299070284831371
 30
0.0
 11
6.996995246638294
 21
13.289642999127228
 31
0.0
  0
LINE
  5
64
330
17
100
AcDbEntity
  8
Cycloidal_Ring_Gear
100
AcDbLine
 10
6.996995246638294
 20
13.289642999127228
 30
0.0
 11
7.142334063777395
 21
13.28079320461465
 31
0.0
  0
LINE
  5
65
330
17
100
AcDbEntity
  8
Cycloidal_Ring_Gear
100
AcDbLine
 10
7.142334063777395
 20
13.28079320461465
 30
0.0
 11
7.304043292201305
 21
13.27231012634255
 31
0.0
  0
LINE
  5
66
330
17
100
AcDbEntity
  8
Cycloidal_Ring_Gear
100
AcDbLine
 10
7.304043292201305
 20
13.27231012634255
 30
0.0
 11
7.4815794935793605
 21
13.263794619703308
 31
0.0
  0
LINE
  5
67
330
17
100
AcDbEntity
  8
Cycloidal_Ring_Gear
100
AcDbLine
 10
7.4815794935793605
 20
13.263794619703308
 30
0.0
 11
7.674356105233035
 21
13.254672923496804
 31
0.0
  0
LINE
  5
68
330
17
100
AcDbEntity
  8
Cycloidal_Ring_Gear
100
AcDbLine
 10
7.674356105233035
 20
13.254672923496804
 30
0.0
 11
7.881767547605933
 21
13.244210880609371
 31
0.0
  0
LINE
  5
69
330
17
100
AcDbEntity
  8
Cycloidal_Ring_Gear
100
AcDbLine
 10
7.881767547605933
 20
13.244210880609371
 30
0.0
 11
8.103204328918318
 21
13.231526611562385
 31
0.0
  0
LINE
  5
6A
330
17
100
AcDbEntity
  8
Cycloidal_Ring_Gear
100
AcDbLine
 10
8.103204328918318
 20
13.231526611562385
 30
0.0
 11
8.33806079073844
 21
13.215600512422395
 31
0.0
  0
LINE
  5
6B
330
17
100
AcDbEntity
  8
Cycloidal_Ring_Gear
100
AcDbLine
 10
8.33806079073844
 20
13.215600512422395
 30
0.0
 11
8.585736569466919
 21
13.195282092733265
 31
0.0
  0
LINE
  5
6C
330
17
100
AcDbEntity
  8
Cycloidal_Ring_Gear
100
AcDbLine
 10
8.585736569466919
 20
13.195282092733265
 30
0.0
 11
8.845632192525443
 21
13.169293665175347
 31
0.0
  0
LINE
  5
6D
330
17
100
AcDbEntity
  8
Cycloidal_Ring_Gear
100
AcDbLine
 10
8.845632192525443
 20
13.169293665175347
 30
0.0
 11
9.117138563244135
 21
13.136231354116
 31
0.0
  0
LINE
  5
6E
330
17
100
AcDbEntity
  8
Cycloidal_Ring_Gear
100
AcDbLine
 10
9.117138563244135
 20
13.136231354116
 30
0.0
 11
9.39961947429355
 21
13.094564412343729
 31
0.0
  0
LINE
  5
6F
330
17
100
AcDbEntity
  8
Cycloidal_Ring_Gear
100
AcDbLine
 10
9.39961947429355
 20
13.094564412343729
 30
0.0
 11
9.692385797536149
 21
13.042634523184002
 31
0.0
  0
LINE
  5
70
330
17
100
AcDbEntity
  8
Cycloidal_Ring_Gear
100
AcDbLine
 10
9.692385797536149
 20
13.042634523184002
 30
0.0
 11
9.994659742577396
 21
12.978657697565062
 31
0.0
  0
LINE
  5
71
330
17
100
AcDbEntity
  8
Cycloidal_Ring_Gear
100
AcDbLine
 10
9.994659742577396
 20
12.978657697565062
 30
0.0
 11
10.305527740653625
 21
12.900732583801847
 31
0.0
  0
LINE
  5
72
330
17
100
AcDbEntity
  8
Cycloidal_Ring_Gear
100
AcDbLine
 10
10.305527740653625
 20
12.900732583801847
 30
0.0
 11
10.62388136185138
 21
12.806860424956062
 31
0.0
  0
LINE
  5
73
330
17
100
AcDbEntity
  8
Cycloidal_Ring_Gear
100
AcDbLine
 10
10.62388136185138
 20
12.806860424956062
 30
0.0
 11
10.948347543006586
 21
12.694983279914588
 31
0.0
  0
LINE
  5
74
330
17
100
AcDbEntity
  8
Cycloidal_Ring_Gear
100
AcDbLine
 10
10.948347543006586
 20
12.694983279914588
 30
0.0
 11
11.277212596942775
 21
12.563047951572093
 31
0.0
  0
LINE
  5
75
330
17
100
AcDbEntity
  8
Cycloidal_Ring_Gear
100
AcDbLine
 10
11.277212596942775
 20
12.563047951572093
 30
0.0
 11
11.608349070992183
 21
12.409102483018637
 31
0.0
  0
LINE
  5
76
330
17
100
AcDbEntity
  8
Cycloidal_Ring_Gear
100
AcDbLine
 10
11.608349070992183
 20
12.409102483018637
 30
0.0
 11
11.939160049297046
 21
12.231428968915292
 31
0.0
  0
LINE
  5
77
330
17
100
AcDbEntity
  8
Cycloidal_Ring_Gear
100
AcDbLine
 10
11.939160049297046
 20
12.231428968915292
 30
0.0
 11
12.266560542809145
 21
12.02870975377363
 31
0.0
  0
LINE
  5
78
330
17
100
AcDbEntity
  8
Cycloidal_Ring_Gear
100
AcDbLine
 10
12.266560542809145
 20
12.02870975377363
 30
0.0
 11
12.58701767770602
 21
11.800213659955284
 31
0.0
  0
LINE
  5
79
330
17
100
AcDbEntity
  8
Cycloidal_Ring_Gear
100
AcDbLine
 10
12.58701767770602
 20
11.800213659955284
 30
0.0
 11
12.896667348432075
 21
11.545976351009362
 31
0.0
  0
LINE
  5
7A
330
17
100
AcDbEntity
  8
Cycloidal_Ring_Gear
100
AcDbLine
 10
12.896667348432075
 20
11.545976351009362
 30
0.0
 11
13.19151257094249
 21
11.266938411037966
 31
0.0
  0
LINE
  5
7B
330
17
100
AcDbEntity
  8
Cycloidal_Ring_Gear
100
AcDbLine
 10
13.19151257094249
 20
11.266938411037966
 30
0.0
 11
13.467688741414454
 21
10.965002085268313
 31
0.0
  0
LINE
  5
7C
330
17
100
AcDbEntity
  8
Cycloidal_Ring_Gear
100
AcDbLine
 10
13.467688741414454
 20
10.965002085268313
 30
0.0
 11
13.721758799706771
 21
10.642977799535487
 31
0.0
  0
LINE
  5
7D
330
17
100
AcDbEntity
  8
Cycloidal_Ring_Gear
100
AcDbLine
 10
13.721758799706771
 20
10.642977799535487
 30
0.0
 11
13.95098596050691
 21
10.304414710041842
 31
0.0
  0
LINE
  5
7E
330
17
100
AcDbEntity
  8
Cycloidal_Ring_Gear
100
AcDbLine
 10
13.95098596050691
 20
10.304414710041842
 30
0.0
 11
14.15353153165259
 21
9.953338872709875
 31
0.0
  0
LINE
  5
7F
330
17
100
AcDbEntity
  8
Cycloidal_Ring_Gear
100
AcDbLine
 10
14.15353153165259
 20
9.953338872709875
 30
0.0
 11
14.328542545267117
 21
9.593946715750336
 31
0.0
  0
LINE
  5
80
330
17
100
AcDbEntity
  8
Cycloidal_Ring_Gear
100
AcDbLine
 10
14.328542545267117
 20
9.593946715750336
 30
0.0
 11
14.476122173621842
 21
9.23031036195099
 31
0.0
  0
LINE
  5
81
330
17
100
AcDbEntity
  8
Cycloidal_Ring_Gear
100
AcDbLine
 10
14.476122173621842
 20
9.23031036195099
 30
0.0
 11
14.59720368287674
 21
8.866142299886782
 31
0.0
  0
LINE
  5
82
330
17
100
AcDbEntity
  8
Cycloidal_Ring_Gear
100
AcDbLine
 10
14.59720368287674
 20
8.866142299886782
 30
0.0
 11
14.69336591073491
 21
8.504645628353193
 31
0.0
  0
LINE
  5
83
330
17
100
AcDbEntity
  8
Cycloidal_Ring_Gear
100
AcDbLine
 10
14.69336591073491
 20
8.504645628353193
 30
0.0
 11
14.766631248700808
 21
8.14845244112071
 31
0.0
  0
LINE
  5
84
330
17
100
AcDbEntity
  8
Cycloidal_Ring_Gear
100
AcDbLine
 10
14.766631248700808
 20
8.14845244112071
 30
0.0
 11
14.819278821971103
 21
7.799635154323482
 31
0.0
  0
LINE
  5
85
330
17
100
AcDbEntity
  8
Cycloidal_Ring_Gear
100
AcDbLine
 10
14.819278821971103
 20
7.799635154323482
 30
0.0
 11
14.853692199357457
 21
7.4597671556214
 31
0.0
  0
LINE
  5
86
330
17
100
AcDbEntity
  8
Cycloidal_Ring_Gear
100
AcDbLine
 10
14.853692199357457
 20
7.4597671556214
 30
0.0
 11
14.872248182245151
 21
7.13000900519634
 31
0.0
  0
LINE
  5
87
330
17
100
AcDbEntity
  8
Cycloidal_Ring_Gear
100
AcDbLine
 10
14.872248182245151
 20
7.13000900519634
 30
0.0
 11
14.877244127378395
 21
6.8112012441935414
 31
0.0
  0
LINE
  5
88
330
17
100
AcDbEntity
  8
Cycloidal_Ring_Gear
100
AcDbLine
 10
14.877244127378395
 20
6.8112012441935414
 30
0.0
 11
14.870856454376163
 21
6.5039513440338
 31
0.0
  0
LINE
  5
89
330
17
100
AcDbEntity
  8
Cycloidal_Ring_Gear
100
AcDbLine
 10
14.870856454376163
 20
6.5039513440338
 30
0.0
 11
14.855121589174004
 21
6.208708244331404
 31
0.0
  0
LINE
  5
8A
330
17
100
AcDbEntity
  8
Cycloidal_Ring_Gear
100
AcDbLine
 10
14.855121589174004
 20
6.208708244331404
 30
0.0
 11
14.831931267091644
 21
5.925822295658268
 31
0.0
  0
LINE
  5
8B
330
17
100
AcDbEntity
  8
Cycloidal_Ring_Gear
100
AcDbLine
 10
14.831931267091644
 20
5.925822295658268
 30
0.0
 11
14.80303571170191
 21
5.655591127841212
 31
0.0
  0
LINE
  5
8C
330
17
100
AcDbEntity
  8
Cycloidal_Ring_Gear
100
AcDbLine
 10
14.80303571170191
 20
5.655591127841212
 30
0.0
 11
14.77004996000889
 21
5.398293310901064
 31
0.0
  0
LINE
  5
8D
330
17
100
AcDbEntity
  8
Cycloidal_Ring_Gear
100
AcDbLine
 10
14.77004996000889
 20
5.398293310901064
 30
0.0
 11
14.734460129785854
 21
5.154212080361679
 31
0.0
  0
LINE
  5
8E
330
17
100
AcDbEntity
  8
Cycloidal_Ring_Gear
100
AcDbLine
 10
14.734460129785854
 20
5.154212080361679
 30
0.0
 11
14.697627585482712
 21
4.923651226051098
 31
0.0
  0
LINE
  5
8F
330
17
100
AcDbEntity
  8
Cycloidal_Ring_Gear
100
AcDbLine
 10
14.697627585482712
 20
4.923651226051098
 30
0.0
 11
14.660789764223109
 21
4.706944753332277
 31
0.0
  0
LINE
  5
90
330
17
100
AcDbEntity
  8
Cycloidal_Ring_Gear
100
AcDbLine
 10
14.660789764223109
 20
4.706944753332277
 30
0.0
 11
14.625056951002337
 21
4.504461276929935
 31
0.0
  0
LINE
  5
91
330
17
100
AcDbEntity
  8
Cycloidal_Ring_Gear
100
AcDbLine
 10
14.625056951002337
 20
4.504461276929935
 30
0.0
 11
14.591404646653721
 21
4.316603385401285
 31
0.0
  0
LINE
  5
92
330
17
100
AcDbEntity
  8
Cycloidal_Ring_Gear
100
AcDbLine
 10
14.591404646653721
 20
4.316603385401285
 30
0.0
 11
14.560661466859464
 21
4.143801462570353
 31
0.0
  0
LINE
  5
93
330
17
100
AcDbEntity
  8
Cycloidal_Ring_Gear
100
AcDbLine
 10
14.560661466859464
 20
4.143801462570353
 30
0.0
 11
14.533492863903696
 21
3.9865007054715695
 31
0.0
  0
LINE
  5
94
330
17
100
AcDbEntity
  8
Cycloidal_Ring_Gear
100
AcDbLine
 10
14.533492863903696
 20
3.9865007054715695
 30
0.0
 11
14.51038149782164
 21
3.845139395034037
 31
0.0
  0
LINE
  5
95
330
17
100
AcDbEntity
  8
Cycloidal_Ring_Gear
100
AcDbLine
 10
14.51038149782164
 20
3.845139395034037
 30
0.0
 11
14.491605919349858
 21
3.7201159738891723
 31
0.0
  0
LINE
  5
96
330
17
100
AcDbEntity
  8
Cycloidal_Ring_Gear
100
AcDbLine
 10
14.491605919349858
 20
3.7201159738891723
 30
0.0
 11
14.477220452137825
 21
3.611742378256127
 31
0.0
  0
LINE
  5
97
330
17
100
AcDbEntity
  8
Cycloidal_Ring_Gear
100
AcDbLine
 10
14.477220452137825
 20
3.611742378256127
 30
0.0
 11
14.467040774332691
 21
3.5201816879879093
 31
0.0
  0
LINE
  5
98
330
17
100
AcDbEntity
  8
Cycloidal_Ring_Gear
100
AcDbLine
 10
14.467040774332691
 20
3.5201816879879093
 30
0.0
 11
14.460641508920457
 21
3.4453699261237327
 31
0.0
  0
LINE
  5
99
330
17
100
AcDbEntity
  8
Cycloidal_Ring_Gear
100
AcDbLine
 10
14.460641508920457
 20
3.4453699261237327
 30
0.0
 11
14.45737363455808
 21
3.3869251617134366
 31
0.0
  0
LINE
  5
9A
330
17
100
AcDbEntity
  8
Cycloidal_Ring_Gear
100
AcDbLine
 10
14.45737363455808
 20
3.3869251617134366
 30
0.0
 11
14.456409825221701
 21
3.3440520689497872
 31
0.0
  0
LINE
  5
9B
330
17
100
AcDbEntity
  8
Cycloidal_Ring_Gear
100
AcDbLine
 10
14.456409825221701
 20
3.3440520689497872
 30
0.0
 11
14.45682371556811
 21
3.3154562015671787
 31
0.0
  0
LINE
  5
9C
330
17
100
AcDbEntity
  8
Cycloidal_Ring_Gear
100
AcDbLine
 10
14.45682371556811
 20
3.3154562015671787
 30
0.0
 11
14.457703500181918
 21
3.299287787814243
 31
0.0
  0
LINE
  5
9D
330
17
100
AcDbEntity
  8
Cycloidal_Ring_Gear
100
AcDbLine
 10
14.457703500181918
 20
3.299287787814243
 30
0.0
 11
14.458291112993884
 21
3.2931370465228
 31
0.0
  0
LINE
  5
9E
330
17
100
AcDbEntity
  8
Cycloidal_Ring_Gear
100
AcDbLine
 10
14.458291112993884
 20
3.2931370465228
 30
0.0
 11
14.458127323263334
 21
3.2940987747634303
 31
0.0
  0
LINE
  5
9F
330
17
100
AcDbEntity
  8
Cycloidal_Ring_Gear
100
AcDbLine
 10
14.458127323263334
 20
3.2940987747634303
 30
0.0
 11
14.457174447622752
 21
3.2989116817111284
 31
0.0
  0
LINE
  5
A0
330
17
100
AcDbEntity
  8
Cycloidal_Ring_Gear
100
AcDbLine
 10
14.457174447622752
 20
3.2989116817111284
 30
0.0
 11
14.45588695383173
 21
3.3041596045614217
 31
0.0
  0
LINE
  5
A1
330
17
100
AcDbEntity
  8
Cycloidal_Ring_Gear
100
AcDbLine
 10
14.45588695383173
 20
3.3041596045614217
 30
0.0
 11
14.455209058117788
 21
3.306503390818091
 31
0.0
  0
LINE
  5
A2
330
17
100
AcDbEntity
  8
Cycloidal_Ring_Gear
100
AcDbLine
 10
14.455209058117788
 20
3.306503390818091
 30
0.0
 11
14.45649590036123
 21
3.30290169305666
 31
0.0
  0
LINE
  5
A3
330
17
100
AcDbEntity
  8
Cycloidal_Ring_Gear
100
AcDbLine
 10
14.45649590036123
 20
3.30290169305666
 30
0.0
 11
14.461374603683922
 21
3.2907813961482226
 31
0.0
  0
LINE
  5
A4
330
17
100
AcDbEntity
  8
Cycloidal_Ring_Gear
100
AcDbLine
 10
14.461374603683922
 20
3.2907813961482226
 30
0.0
 11
14.471575490563566
 21
3.268133030300146
 31
0.0
  0
LINE
  5
A5
330
17
100
AcDbEntity
  8
Cycloidal_Ring_Gear
100
AcDbLine
 10
14.471575490563566
 20
3.268133030300146
 30
0.0
 11
14.488766940512482
 21
3.2335268186922894
 31
0.0
  0
LINE
  5
A6
330
17
100
AcDbEntity
  8
Cycloidal_Ring_Gear
100
AcDbLine
 10
14.488766940512482
 20
3.2335268186922894
 30
0.0
 11
14.514420308675582
 21
3.1860628128508584
 31
0.0
  0
LINE
  5
A7
330
17
100
AcDbEntity
  8
Cycloidal_Ring_Gear
100
AcDbLine
 10
14.514420308675582
 20
3.1860628128508584
 30
0.0
 11
14.549718717997703
 21
3.1252784791534527
 31
0.0
  0
LINE
  5
A8
330
17
100
AcDbEntity
  8
Cycloidal_Ring_Gear
100
AcDbLine
 10
14.549718717997703
 20
3.1252784791534527
 30
0.0
 11
14.59551102944307
 21
3.051038295038518
 31
0.0
  0
LINE
  5
A9
330
17
100
AcDbEntity
  8
Cycloidal_Ring_Gear
100
AcDbLine
 10
14.59551102944307
 20
3.051038295038518
 30
0.0
 11
14.652303610601843
 21
2.963425016351876
 31
0.0
  0
LINE
  5
AA
330
17
100
AcDbEntity
  8
Cycloidal_Ring_Gear
100
AcDbLine
 10
14.652303610601843
 20
2.963425016351876
 30
0.0
 11
14.720278646375084
 21
2.86264495892346
 31
0.0
  0
LINE
  5
AB
330
17
100
AcDbEntity
  8
Cycloidal_Ring_Gear
100
AcDbLine
 10
14.720278646375084
 20
2.86264495892346
 30
0.0
 11
14.799327691973863
 21
2.7489527680490315
 31
0.0
  0
LINE
  5
AC
330
17
100
AcDbEntity
  8
Cycloidal_Ring_Gear
100
AcDbLine
 10
14.799327691973863
 20
2.7489527680490315
 30
0.0
 11
14.88909128140589
 21
2.6225961564879463
 31
0.0
  0
LINE
  5
AD
330
17
100
AcDbEntity
  8
Cycloidal_Ring_Gear
100
AcDbLine
 10
14.88909128140589
 20
2.6225961564879463
 30
0.0
 11
14.988998199472404
 21
2.4837782078671786
 31
0.0
  0
LINE
  5
AE
330
17
100
AcDbEntity
  8
Cycloidal_Ring_Gear
100
AcDbLine
 10
14.988998199472404
 20
2.4837782078671786
 30
0.0
 11
15.098300581883253
 21
2.3326336580604883
 31
0.0
  0
LINE
  5
AF
330
17
100
AcDbEntity
  8
Cycloidal_Ring_Gear
100
AcDbLine
 10
15.098300581883253
 20
2.3326336580604883
 30
0.0
 11
15.216102929905935
 21
2.1692154937342045
 31
0.0
  0
LINE
  5
B0
330
17
100
AcDbEntity
  8
Cycloidal_Ring_Gear
100
AcDbLine
 10
15.216102929905935
 20
2.1692154937342045
 30
0.0
 11
15.341384361471466
 21
1.9934887348268535
 31
0.0
  0
LINE
  5
B1
330
17
100
AcDbEntity
  8
Cycloidal_Ring_Gear
100
AcDbLine
 10
15.341384361471466
 20
1.9934887348268535
 30
0.0
 11
15.47301408755865
 21
1.8053290504106003
 31
0.0
  0
LINE
  5
B2
330
17
100
AcDbEntity
  8
Cycloidal_Ring_Gear
100
AcDbLine
 10
15.47301408755865
 20
1.8053290504106003
 30
0.0
 11
15.609760370934032
 21
1.60452470471934
 31
0.0
  0
LINE
  5
B3
330
17
100
AcDbEntity
  8
Cycloidal_Ring_Gear
100
AcDbLine
 10
15.609760370934032
 20
1.60452470471934
 30
0.0
 11
15.750293258522484
 21
1.3907811640792445
 31
0.0
  0
LINE
  5
B4
330
17
100
AcDbEntity
  8
Cycloidal_Ring_Gear
100
AcDbLine
 10
15.750293258522484
 20
1.3907811640792445
 30
0.0
 11
15.893181320972076
 21
1.1637285048379766
 31
0.0
  0
LINE
  5
B5
330
17
100
AcDbEntity
  8
Cycloidal_Ring_Gear
100
AcDbLine
 10
15.893181320972076
 20
1.1637285048379766
 30
0.0
 11
16.036882607833654
 21
0.9229325649990379
 31
0.0
  0
LINE
  5
B6
330
17
100
AcDbEntity
  8
Cycloidal_Ring_Gear
100
AcDbLine
 10
16.036882607833654
 20
0.9229325649990379
 30
0.0
 11
16.17973015414067
 21
0.6679115939074713
 31
0.0
  0
LINE
  5
B7
330
17
100
AcDbEntity
  8
Cycloidal_Ring_Gear
100
AcDbLine
 10
16.17973015414067
 20
0.6679115939074713
 30
0.0
 11
16.31991278170105
 21
0.3981609587146999
 31
0.0
  0
LINE
  5
B8
330
17
100
AcDbEntity
  8
Cycloidal_Ring_Gear
100
AcDbLine
 10
16.31991278170105
 20
0.3981609587146999
 30
0.0
 11
16.455452764294307
 21
0.11318918046849369
 31
0.0
  0
LINE
  5
B9
330
17
100
AcDbEntity
  8
Cycloidal_Ring_Gear
100
AcDbLine
 10
16.455452764294307
 20
0.11318918046849369
 30
0.0
 11
16.58418330118632
 21
-0.18743099453605683
 31
0.0
  0
LINE
  5
BA
330
17
100
AcDbEntity
  8
Cycloidal_Ring_Gear
100
AcDbLine
 10
16.58418330118632
 20
-0.18743099453605683
 30
0.0
 11
16.703730738011835
 21
-0.5039929709677016
 31
0.0
  0
LINE
  5
BB
330
17
100
AcDbEntity
  8
Cycloidal_Ring_Gear
100
AcDbLine
 10
16.703730738011835
 20
-0.5039929709677016
 30
0.0
 11
16.811508991667043
 21
-0.8365659247153611
 31
0.0
  0
LINE
  5
BC
330
17
100
AcDbEntity
  8
Cycloidal_Ring_Gear
100
AcDbLine
 10
16.811508991667043
 20
-0.8365659247153611
 30
0.0
 11
16.904736253141373
 21
-1.1848845086704072
 31
0.0
  0
LINE
  5
BD
330
17
100
AcDbEntity
  8
Cycloidal_Ring_Gear
100
AcDbLine
 10
16.904736253141373
 20
-1.1848845086704072
 30
0.0
 11
16.980485834622183
 21
-1.5482247561131115
 31
0.0
  0
LINE
  5
BE
330
17
100
AcDbEntity
  8
Cycloidal_Ring_Gear
100
AcDbLine
 10
16.980485834622183
 20
-1.5482247561131115
 30
0.0
 11
17.03578250308788
 21
-1.9252797439962328
 31
0.0
  0
LINE
  5
BF
330
17
100
AcDbEntity
  8
Cycloidal_Ring_Gear
100
AcDbLine
 10
17.03578250308788
 20
-1.9252797439962328
 30
0.0
 11
17.067751006165103
 21
-2.3140570258023585
 31
0.0
  0
LINE
  5
C0
330
17
100
AcDbEntity
  8
Cycloidal_Ring_Gear
100
AcDbLine
 10
17.067751006165103
 20
-2.3140570258023585
 30
0.0
 11
17.073813466549474
 21
-2.711826497789202
 31
0.0
  0
LINE
  5
C1
330
17
100
AcDbEntity
  8
Cycloidal_Ring_Gear
100
AcDbLine
 10
17.073813466549474
 20
-2.711826497789202
 30
0.0
 11
17.05191747925916
 21
-3.115148068276497
 31
0.0
  0
LINE
  5
C2
330
17
100
AcDbEntity
  8
Cycloidal_Ring_Gear
100
AcDbLine
 10
17.05191747925916
 20
-3.115148068276497
 30
0.0
 11
17.000760766751082
 21
-3.5199993035660864
 31
0.0
  0
LINE
  5
C3
330
17
100
AcDbEntity
  8
Cycloidal_Ring_Gear
100
AcDbLine
 10
17.000760766751082
 20
-3.5199993035660864
 30
0.0
 11
16.919967747601174
 21
-3.922003157115394
 31
0.0
  0
LINE
  5
C4
330
17
100
AcDbEntity
  8
Cycloidal_Ring_Gear
100
AcDbLine
 10
16.919967747601174
 20
-3.922003157115394
 30
0.0
 11
16.810175304375054
 21
-4.316729442927322
 31
0.0
  0
LINE
  5
C5
330
17
100
AcDbEntity
  8
Cycloidal_Ring_Gear
100
AcDbLine
 10
16.810175304375054
 20
-4.316729442927322
 30
0.0
 11
16.67300225755395
 21
-4.700020532838996
 31
0.0
  0
LINE
  5
C6
330
17
100
AcDbEntity
  8
Cycloidal_Ring_Gear
100
AcDbLine
 10
16.67300225755395
 20
-4.700020532838996
 30
0.0
 11
16.510905070959545
 21
-5.068282282361739
 31
0.0
  0
LINE
  5
C7
330
17
100
AcDbEntity
  8
Cycloidal_Ring_Gear
100
AcDbLine
 10
16.510905070959545
 20
-5.068282282361739
 30
0.0
 11
16.326950444435866
 21
-5.418690421937108
 31
0.0
  0
LINE
  5
C8
330
17
100
AcDbEntity
  8
Cycloidal_Ring_Gear
100
AcDbLine
 10
16.326950444435866
 20
-5.418690421937108
 30
0.0
 11
16.12455254081197
 21
-5.749286693984693
 31
0.0
  0
LINE
  5
C9
330
17
100
AcDbEntity
  8
Cycloidal_Ring_Gear
100
AcDbLine
 10
16.12455254081197
 20
-5.749286693984693
 30
0.0
 11
15.907223313851645
 21
-6.058967400878267
 31
0.0
  0
LINE
  5
CA
330
17
100
AcDbEntity
  8
Cycloidal_Ring_Gear
100
AcDbLine
 10
15.907223313851645
 20
-6.058967400878267
 30
0.0
 11
15.678371407654257
 21
-6.347388995489361
 31
0.0
  0
LINE
  5
CB
330
17
100
AcDbEntity
  8
Cycloidal_Ring_Gear
100
AcDbLine
 10
15.678371407654257
 20
-6.347388995489361
 30
0.0
 11
15.441166091941671
 21
-6.614825231463946
 31
0.0
  0
LINE
  5
CC
330
17
100
AcDbEntity
  8
Cycloidal_Ring_Gear
100
AcDbLine
 10
15.441166091941671
 20
-6.614825231463946
 30
0.0
 11
15.198465440036875
 21
-6.862008827199146
 31
0.0
  0
LINE
  5
CD
330
17
100
AcDbEntity
  8
Cycloidal_Ring_Gear
100
AcDbLine
 10
15.198465440036875
 20
-6.862008827199146
 30
0.0
 11
14.952796862193273
 21
-7.089982077885324
 31
0.0
  0
LINE
  5
CE
330
17
100
AcDbEntity
  8
Cycloidal_Ring_Gear
100
AcDbLine
 10
14.952796862193273
 20
-7.089982077885324
 30
0.0
 11
14.706373778875102
 21
-7.299970388992941
 31
0.0
  0
LINE
  5
CF
330
17
100
AcDbEntity
  8
Cycloidal_Ring_Gear
100
AcDbLine
 10
14.706373778875102
 20
-7.299970388992941
 30
0.0
 11
14.461132890303912
 21
-7.493283735226978
 31
0.0
  0
LINE
  5
D0
330
17
100
AcDbEntity
  8
Cycloidal_Ring_Gear
100
AcDbLine
 10
14.461132890303912
 20
-7.493283735226978
 30
0.0
 11
14.218779772785163
 21
-7.671244982056773
 31
0.0
  0
LINE
  5
D1
330
17
100
AcDbEntity
  8
Cycloidal_Ring_Gear
100
AcDbLine
 10
14.218779772785163
 20
-7.671244982056773
 30
0.0
 11
13.980834473590939
 21
-7.83514079325194
 31
0.0
  0
LINE
  5
D2
330
17
100
AcDbEntity
  8
Cycloidal_Ring_Gear
100
AcDbLine
 10
13.980834473590939
 20
-7.83514079325194
 30
0.0
 11
13.748672251191644
 21
-7.986189758822396
 31
0.0
  0
LINE
  5
D3
330
17
100
AcDbEntity
  8
Cycloidal_Ring_Gear
100
AcDbLine
 10
13.748672251191644
 20
-7.986189758822396
 30
0.0
 11
13.523557168772584
 21
-8.125522576253742
 31
0.0
  0
LINE
  5
D4
330
17
100
AcDbEntity
  8
Cycloidal_Ring_Gear
100
AcDbLine
 10
13.523557168772584
 20
-8.125522576253742
 30
0.0
 11
13.306667872060046
 21
-8.254169936783033
 31
0.0
  0
LINE
  5
D5
330
17
100
AcDbEntity
  8
Cycloidal_Ring_Gear
100
AcDbLine
 10
13.306667872060046
 20
-8.254169936783033
 30
0.0
 11
13.099115735323835
 21
-8.373054779294304
 31
0.0
  0
LINE
  5
D6
330
17
100
AcDbEntity
  8
Cycloidal_Ring_Gear
100
AcDbLine
 10
13.099115735323835
 20
-8.373054779294304
 30
0.0
 11
12.901955855844523
 21
-8.48298655387582
 31
0.0
  0
LINE
  5
D7
330
17
100
AcDbEntity
  8
Cycloidal_Ring_Gear
100
AcDbLine
 10
12.901955855844523
 20
-8.48298655387582
 30
0.0
 11
12.716191307796505
 21
-8.584656004148005
 31
0.0
  0
LINE
  5
D8
330
17
100
AcDbEntity
  8
Cycloidal_Ring_Gear
100
AcDbLine
 10
12.716191307796505
 20
-8.584656004148005
 30
0.0
 11
12.542770779817717
 21
-8.678629737034127
 31
0.0
  0
LINE
  5
D9
330
17
100
AcDbEntity
  8
Cycloidal_Ring_Gear
100
AcDbLine
 10
12.542770779817717
 20
-8.678629737034127
 30
0.0
 11
12.38257933043541
 21
-8.765344551259165
 31
0.0
  0
LINE
  5
DA
330
17
100
AcDbEntity
  8
Cycloidal_Ring_Gear
100
AcDbLine
 10
12.38257933043541
 20
-8.765344551259165
 30
0.0
 11
12.236421601526121
 21
-8.845102210944987
 31
0.0
  0
LINE
  5
DB
330
17
100
AcDbEntity
  8
Cycloidal_Ring_Gear
100
AcDbLine
 10
12.236421601526121
 20
-8.845102210944987
 30
0.0
 11
12.104996542144741
 21
-8.918066145555567
 31
0.0
  0
LINE
  5
DC
330
17
100
AcDbEntity
  8
Cycloidal_Ring_Gear
100
AcDbLine
 10
12.104996542144741
 20
-8.918066145555567
 30
0.0
 11
11.988862658667648
 21
-8.984262473184367
 31
0.0
  0
LINE
  5
DD
330
17
100
AcDbEntity
  8
Cycloidal_Ring_Gear
100
AcDbLine
 10
11.988862658667648
 20
-8.984262473184367
 30
0.0
 11
11.888393220426106
 21
-9.04358875934265
 31
0.0
  0
LINE
  5
DE
330
17
100
AcDbEntity
  8
Cycloidal_Ring_Gear
100
AcDbLine
 10
11.888393220426106
 20
-9.04358875934265
 30
0.0
 11
11.803721960196205
 21
-9.09583490057284
 31
0.0
  0
LINE
  5
DF
330
17
100
AcDbEntity
  8
Cycloidal_Ring_Gear
100
AcDbLine
 10
11.803721960196205
 20
-9.09583490057284
 30
0.0
 11
11.734681863102146
 21
-9.140721142363493
 31
0.0
  0
LINE
  5
E0
330
17
100
AcDbEntity
  8
Cycloidal_Ring_Gear
100
AcDbLine
 10
11.734681863102146
 20
-9.140721142363493
 30
0.0
 11
11.680742755721532
 21
-9.177957954423366
 31
0.0
  0
LINE
  5
E1
330
17
100
AcDbEntity
  8
Cycloidal_Ring_Gear
100
AcDbLine
 10
11.680742755721532
 20
-9.177957954423366
 30
0.0
 11
11.64095735994743
 21
-9.207330547021796
 31
0.0
  0
LINE
  5
E2
330
17
100
AcDbEntity
  8
Cycloidal_Ring_Gear
100
AcDbLine
 10
11.64095735994743
 20
-9.207330547021796
 30
0.0
 11
11.613929405975103
 21
-9.228806494203639
 31
0.0
  0
LINE
  5
E3
330
17
100
AcDbEntity
  8
Cycloidal_Ring_Gear
100
AcDbLine
 10
11.613929405975103
 20
-9.228806494203639
 30
0.0
 11
11.59781964600856
 21
-9.242658012681702
 31
0.0
  0
LINE
  5
E4
330
17
100
AcDbEntity
  8
Cycloidal_Ring_Gear
100
AcDbLine
 10
11.59781964600856
 20
-9.242658012681702
 30
0.0
 11
11.590403941041473
 21
-9.249581897679079
 31
0.0
  0
LINE
  5
E5
330
17
100
AcDbEntity
  8
Cycloidal_Ring_Gear
100
AcDbLine
 10
11.590403941041473
 20
-9.249581897679079
 30
0.0
 11
11.589190122090873
 21
-9.250792601668952
 31
0.0
  0
LINE
  5
E6
330
17
100
AcDbEntity
  8
Cycloidal_Ring_Gear
100
AcDbLine
 10
11.589190122090873
 20
-9.250792601668952
 30
0.0
 11
11.59158705432151
 21
-9.248061463107824
 31
0.0
  0
LINE
  5
E7
330
17
100
AcDbEntity
  8
Cycloidal_Ring_Gear
100
AcDbLine
 10
11.59158705432151
 20
-9.248061463107824
 30
0.0
 11
11.5951034558677
 21
-9.24368126444625
 31
0.0
  0
LINE
  5
E8
330
17
100
AcDbEntity
  8
Cycloidal_Ring_Gear
100
AcDbLine
 10
11.5951034558677
 20
-9.24368126444625
 30
0.0
 11
11.59754163290827
 21
-9.240350698998824
 31
0.0
  0
LINE
  5
E9
330
17
100
AcDbEntity
  8
Cycloidal_Ring_Gear
100
AcDbLine
 10
11.59754163290827
 20
-9.240350698998824
 30
0.0
 11
11.597148660063255
 21
-9.240993736554431
 31
0.0
  0
LINE
  5
EA
330
17
100
AcDbEntity
  8
Cycloidal_Ring_Gear
100
AcDbLine
 10
11.597148660063255
 20
-9.240993736554431
 30
0.0
 11
11.59269720054879
 21
-9.248546438747972
 31
0.0
  0
LINE
  5
EB
330
17
100
AcDbEntity
  8
Cycloidal_Ring_Gear
100
AcDbLine
 10
11.59269720054879
 20
-9.248546438747972
 30
0.0
 11
11.583486735774335
 21
-9.265751107976856
 31
0.0
  0
LINE
  5
EC
330
17
100
AcDbEntity
  8
Cycloidal_Ring_Gear
100
AcDbLine
 10
11.583486735774335
 20
-9.265751107976856
 30
0.0
 11
11.569275786175627
 21
-9.29499220739102
 31
0.0
  0
LINE
  5
ED
330
17
100
AcDbEntity
  8
Cycloidal_Ring_Gear
100
AcDbLine
 10
11.569275786175627
 20
-9.29499220739102
 30
0.0
 11
11.550169257778652
 21
-9.33819376981723
 31
0.0
  0
LINE
  5
EE
330
17
100
AcDbEntity
  8
Cycloidal_Ring_Gear
100
AcDbLine
 10
11.550169257778652
 20
-9.33819376981723
 30
0.0
 11
11.5264889025276
 21
-9.396780932062383
 31
0.0
  0
LINE
  5
EF
330
17
100
AcDbEntity
  8
Cycloidal_Ring_Gear
100
AcDbLine
 10
11.5264889025276
 20
-9.396780932062383
 30
0.0
 11
11.498650394942553
 21
-9.471694974415069
 31
0.0
  0
LINE
  5
F0
330
17
100
AcDbEntity
  8
Cycloidal_Ring_Gear
100
AcDbLine
 10
11.498650394942553
 20
-9.471694974415069
 30
0.0
 11
11.467061786020324
 21
-9.563444660821595
 31
0.0
  0
LINE
  5
F1
330
17
100
AcDbEntity
  8
Cycloidal_Ring_Gear
100
AcDbLine
 10
11.467061786020324
 20
-9.563444660821595
 30
0.0
 11
11.432049171112252
 21
-9.672176241872368
 31
0.0
  0
LINE
  5
F2
330
17
100
AcDbEntity
  8
Cycloidal_Ring_Gear
100
AcDbLine
 10
11.432049171112252
 20
-9.672176241872368
 30
0.0
 11
11.393808751810045
 21
-9.79774787915201
 31
0.0
  0
LINE
  5
F3
330
17
100
AcDbEntity
  8
Cycloidal_Ring_Gear
100
AcDbLine
 10
11.393808751810045
 20
-9.79774787915201
 30
0.0
 11
11.352380741683021
 21
-9.939799008511207
 31
0.0
  0
LINE
  5
F4
330
17
100
AcDbEntity
  8
Cycloidal_Ring_Gear
100
AcDbLine
 10
11.352380741683021
 20
-9.939799008511207
 30
0.0
 11
11.307639276445117
 21
-10.097809577367169
 31
0.0
  0
LINE
  5
F5
330
17
100
AcDbEntity
  8
Cycloidal_Ring_Gear
100
AcDbLine
 10
11.307639276445117
 20
-10.097809577367169
 30
0.0
 11
11.259292753259533
 21
-10.271147377886095
 31
0.0
  0
LINE
  5
F6
330
17
100
AcDbEntity
  8
Cycloidal_Ring_Gear
100
AcDbLine
 10
11.259292753259533
 20
-10.271147377886095
 30
0.0
 11
11.206890030925047
 21
-10.459103728887762
 31
0.0
  0
LINE
  5
F7
330
17
100
AcDbEntity
  8
Cycloidal_Ring_Gear
100
AcDbLine
 10
11.206890030925047
 20
-10.459103728887762
 30
0.0
 11
11.149829123528892
 21
-10.660918747966385
 31
0.0
  0
LINE
  5
F8
330
17
100
AcDbEntity
  8
Cycloidal_Ring_Gear
100
AcDbLine
 10
11.149829123528892
 20
-10.660918747966385
 30
0.0
 11
11.08736612675187
 21
-10.875797712362372
 31
0.0
  0
LINE
  5
F9
330
17
100
AcDbEntity
  8
Cycloidal_Ring_Gear
100
AcDbLine
 10
11.08736612675187
 20
-10.875797712362372
 30
0.0
 11
11.01862302910747
 21
-11.102919813455799
 31
0.0
  0
LINE
  5
FA
330
17
100
AcDbEntity
  8
Cycloidal_Ring_Gear
100
AcDbLine
 10
11.01862302910747
 20
-11.102919813455799
 30
0.0
 11
10.94259379241755
 21
-11.341440174019382
 31
0.0
  0
LINE
  5
FB
330
17
100
AcDbEntity
  8
Cycloidal_Ring_Gear
100
AcDbLine
 10
10.94259379241755
 20
-11.341440174019382
 30
0.0
 11
10.85814870446022
 21
-11.590485460108404
 31
0.0
  0
LINE
  5
FC
330
17
100
AcDbEntity
  8
Cycloidal_Ring_Gear
100
AcDbLine
 10
10.85814870446022
 20
-11.590485460108404
 30
0.0
 11
10.7640376008697
 21
-11.84914287693616
 31
0.0
  0
LINE
  5
FD
330
17
100
AcDbEntity
  8
Cycloidal_Ring_Gear
100
AcDbLine
 10
10.7640376008697
 20
-11.84914287693616
 30
0.0
 11
10.6588932137702
 21
-12.116441871592993
 31
0.0
  0
LINE
  5
FE
330
17
100
AcDbEntity
  8
Cycloidal_Ring_Gear
100
AcDbLine
 10
10.6588932137702
 20
-12.116441871592993
 30
0.0
 11
10.541236709155138
 21
-12.391327570543734
 31
0.0
  0
LINE
  5
FF
330
17
100
AcDbEntity
  8
Cycloidal_Ring_Gear
100
AcDbLine
 10
10.541236709155138
 20
-12.391327570543734
 30
0.0
 11
10.409488468576688
 21
-12.67262499251311
 31
0.0
  0
LINE
  5
100
330
17
100
AcDbEntity
  8
Cycloidal_Ring_Gear
100
AcDbLine
 10
10.409488468576688
 20
-12.67262499251311
 30
0.0
 11
10.26198833044249
 21
-12.958993592568039
 31
0.0
  0
LINE
  5
101
330
17
100
AcDbEntity
  8
Cycloidal_Ring_Gear
100
AcDbLine
 10
10.26198833044249
 20
-12.958993592568039
 30
0.0
 11
10.09703068548177
 21
-13.248872963170157
 31
0.0
  0
LINE
  5
102
330
17
100
AcDbEntity
  8
Cycloidal_Ring_Gear
100
AcDbLine
 10
10.09703068548177
 20
-13.248872963170157
 30
0.0
 11
9.912920674252113
 21
-13.540422807494444
 31
0.0
  0
LINE
  5
103
330
17
100
AcDbEntity
  8
Cycloidal_Ring_Gear
100
AcDbLine
 10
9.912920674252113
 20
-13.540422807494444
 30
0.0
 11
9.708057647455654
 21
-13.831463765627568
 31
0.0
  0
LINE
  5
104
330
17
100
AcDbEntity
  8
Cycloidal_Ring_Gear
100
AcDbLine
 10
9.708057647455654
 20
-13.831463765627568
 30
0.0
 11
9.481050136746276
 21
-14.119430137398496
 31
0.0
  0
LINE
  5
105
330
17
100
AcDbEntity
  8
Cycloidal_Ring_Gear
100
AcDbLine
 10
9.481050136746276
 20
-14.119430137398496
 30
0.0
 11
9.230861864639689
 21
-14.401350181972992
 31
0.0
  0
LINE
  5
106
330
17
100
AcDbEntity
  8
Cycloidal_Ring_Gear
100
AcDbLine
 10
9.230861864639689
 20
-14.401350181972992
 30
0.0
 11
8.95698020347362
 21
-14.673872745347408
 31
0.0
  0
LINE
  5
107
330
17
100
AcDbEntity
  8
Cycloidal_Ring_Gear
100
AcDbLine
 10
8.95698020347362
 20
-14.673872745347408
 30
0.0
 11
8.659587572250148
 21
-14.933357896197638
 31
0.0
  0
LINE
  5
108
330
17
100
AcDbEntity
  8
Cycloidal_Ring_Gear
100
AcDbLine
 10
8.659587572250148
 20
-14.933357896197638
 30
0.0
 11
8.33970516138133
 21
-15.176041435356193
 31
0.0
  0
LINE
  5
109
330
17
100
AcDbEntity
  8
Cycloidal_Ring_Gear
100
AcDbLine
 10
8.33970516138133
 20
-15.176041435356193
 30
0.0
 11
7.99927188689433
 21
-15.39826764852528
 31
0.0
  0
LINE
  5
10A
330
17
100
AcDbEntity
  8
Cycloidal_Ring_Gear
100
AcDbLine
 10
7.99927188689433
 20
-15.39826764852528
 30
0.0
 11
7.641125089942833
 21
-15.596764177326115
 31
0.0
  0
LINE
  5
10B
330
17
100
AcDbEntity
  8
Cycloidal_Ring_Gear
100
AcDbLine
 10
7.641125089942833
 20
-15.596764177326115
 30
0.0
 11
7.2688662168991645
 21
-15.768914316776328
 31
0.0
  0
LINE
  5
10C
330
17
100
AcDbEntity
  8
Cycloidal_Ring_Gear
100
AcDbLine
 10
7.2688662168991645
 20
-15.768914316776328
 30
0.0
 11
6.886621712639895
 21
-15.912974274038078
 31
0.0
  0
LINE
  5
10D
330
17
100
AcDbEntity
  8
Cycloidal_Ring_Gear
100
AcDbLine
 10
6.886621712639895
 20
-15.912974274038078
 30
0.0
 11
6.498737423123942
 21
-16.028191790485614
 31
0.0
  0
LINE
  5
10E
330
17
100
AcDbEntity
  8
Cycloidal_Ring_Gear
100
AcDbLine
 10
6.498737423123942
 20
-16.028191790485614
 30
0.0
 11
6.109462343385371
 21
-16.114806381653466
 31
0.0
  0
LINE
  5
10F
330
17
100
AcDbEntity
  8
Cycloidal_Ring_Gear
100
AcDbLine
 10
6.109462343385371
 20
-16.114806381653466
 30
0.0
 11
5.722677209439667
 21
-16.173941042934132
 31
0.0
  0
LINE
  5
110
330
17
100
AcDbEntity
  8
Cycloidal_Ring_Gear
100
AcDbLine
 10
5.722677209439667
 20
-16.173941042934132
 30
0.0
 11
5.341706455016609
 21
-16.207418859669826
 31
0.0
  0
LINE
  5
111
330
17
100
AcDbEntity
  8
Cycloidal_Ring_Gear
100
AcDbLine
 10
5.341706455016609
 20
-16.207418859669826
 30
0.0
 11
4.969226979549085
 21
-16.217547878748512
 31
0.0
  0
LINE
  5
112
330
17
100
AcDbEntity
  8
Cycloidal_Ring_Gear
100
AcDbLine
 10
4.969226979549085
 20
-16.217547878748512
 30
0.0
 11
4.607264288821782
 21
-16.206913483178347
 31
0.0
  0
LINE
  5
113
330
17
100
AcDbEntity
  8
Cycloidal_Ring_Gear
100
AcDbLine
 10
4.607264288821782
 20
-16.206913483178347
 30
0.0
 11
4.257252560409851
 21
-16.178204656345297
 31
0.0
  0
LINE
  5
114
330
17
100
AcDbEntity
  8
Cycloidal_Ring_Gear
100
AcDbLine
 10
4.257252560409851
 20
-16.178204656345297
 30
0.0
 11
3.9201312892788835
 21
-16.134085708590604
 31
0.0
  0
LINE
  5
115
330
17
100
AcDbEntity
  8
Cycloidal_Ring_Gear
100
AcDbLine
 10
3.9201312892788835
 20
-16.134085708590604
 30
0.0
 11
3.596454688166477
 21
-16.07711314284854
 31
0.0
  0
LINE
  5
116
330
17
100
AcDbEntity
  8
Cycloidal_Ring_Gear
100
AcDbLine
 10
3.596454688166477
 20
-16.07711314284854
 30
0.0
 11
3.2864970165535574
 21
-16.009690245191067
 31
0.0
  0
LINE
  5
117
330
17
100
AcDbEntity
  8
Cycloidal_Ring_Gear
100
AcDbLine
 10
3.2864970165535574
 20
-16.009690245191067
 30
0.0
 11
2.9903442952873425
 21
-15.934049296174571
 31
0.0
  0
LINE
  5
118
330
17
100
AcDbEntity
  8
Cycloidal_Ring_Gear
100
AcDbLine
 10
2.9903442952873425
 20
-15.934049296174571
 30
0.0
 11
2.7079686760817374
 21
-15.852251577443202
 31
0.0
  0
LINE
  5
119
330
17
100
AcDbEntity
  8
Cycloidal_Ring_Gear
100
AcDbLine
 10
2.7079686760817374
 20
-15.852251577443202
 30
0.0
 11
2.439285562746383
 21
-15.76619711001536
 31
0.0
  0
LINE
  5
11A
330
17
100
AcDbEntity
  8
Cycloidal_Ring_Gear
100
AcDbLine
 10
2.439285562746383
 20
-15.76619711001536
 30
0.0
 11
2.184195637437315
 21
-15.67763822502514
 31
0.0
  0
LINE
  5
11B
330
17
100
AcDbEntity
  8
Cycloidal_Ring_Gear
100
AcDbLine
 10
2.184195637437315
 20
-15.67763822502514
 30
0.0
 11
1.9426147151484492
 21
-15.588193026394718
 31
0.0
  0
LINE
  5
11C
330
17
100
AcDbEntity
  8
Cycloidal_Ring_Gear
100
AcDbLine
 10
1.9426147151484492
 20
-15.588193026394718
 30
0.0
 11
1.7144943154803551
 21
-15.499356312195744
 31
0.0
  0
LINE
  5
11D
330
17
100
AcDbEntity
  8
Cycloidal_Ring_Gear
100
AcDbLine
 10
1.7144943154803551
 20
-15.499356312195744
 30
0.0
 11
1.4998353688870214
 21
-15.412506549187082
 31
0.0
  0
LINE
  5
11E
330
17
100
AcDbEntity
  8
Cycloidal_Ring_Gear
100
AcDbLine
 10
1.4998353688870214
 20
-15.412506549187082
 30
0.0
 11
1.298696798074774
 21
-15.328908119902524
 31
0.0
  0
LINE
  5
11F
330
17
100
AcDbEntity
  8
Cycloidal_Ring_Gear
100
AcDbLine
 10
1.298696798074774
 20
-15.328908119902524
 30
0.0
 11
1.1111999583018037
 21
-15.249708397812284
 31
0.0
  0
LINE
  5
120
330
17
100
AcDbEntity
  8
Cycloidal_Ring_Gear
100
AcDbLine
 10
1.1111999583018037
 20
-15.249708397812284
 30
0.0
 11
0.937529134724886
 21
-15.175929374343255
 31
0.0
  0
LINE
  5
121
330
17
100
AcDbEntity
  8
Cycloidal_Ring_Gear
100
AcDbLine
 10
0.937529134724886
 20
-15.175929374343255
 30
0.0
 11
0.7779274946957146
 21
-15.108453682221825
 31
0.0
  0
LINE
  5
122
330
17
100
AcDbEntity
  8
Cycloidal_Ring_Gear
100
AcDbLine
 10
0.7779274946957146
 20
-15.108453682221825
 30
0.0
 11
0.6326870865114298
 21
-15.048005056881093
 31
0.0
  0
LINE
  5
123
330
17
100
AcDbEntity
  8
Cycloidal_Ring_Gear
100
AcDbLine
 10
0.6326870865114298
 20
-15.048005056881093
 30
0.0
 11
0.502130699326701
 21
-14.995123685984252
 31
0.0
  0
LINE
  5
124
330
17
100
AcDbEntity
  8
Cycloidal_Ring_Gear
100
AcDbLine
 10
0.502130699326701
 20
-14.995123685984252
 30
0.0
 11
0.38658275192079516
 21
-14.950137659483731
 31
0.0
  0
LINE
  5
125
330
17
100
AcDbEntity
  8
Cycloidal_Ring_Gear
100
AcDbLine
 10
0.38658275192079516
 20
-14.950137659483731
 30
0.0
 11
0.28632606613627054
 21
-14.913132978156
 31
0.0
  0
LINE
  5
126
330
17
100
AcDbEntity
  8
Cycloidal_Ring_Gear
100
AcDbLine
 10
0.28632606613627054
 20
-14.913132978156
 30
0.0
 11
0.20154174689900228
 21
-14.883926363126298
 31
0.0
  0
LINE
  5
127
330
17
100
AcDbEntity
  8
Cycloidal_Ring_Gear
100
AcDbLine
 10
0.20154174689900228
 20
-14.883926363126298
 30
0.0
 11
0.1322309073606025
 21
-14.862047306500555
 31
0.0
  0
LINE
  5
128
330
17
100
AcDbEntity
  8
Cycloidal_Ring_Gear
100
AcDbLine
 10
0.1322309073606025
 20
-14.862047306500555
 30
0.0
 11
0.07812014373109666
 21
-14.846737956142178
 31
0.0
  0
LINE
  5
129
330
17
100
AcDbEntity
  8
Cycloidal_Ring_Gear
100
AcDbLine
 10
0.07812014373109666
 20
-14.846737956142178
 30
0.0
 11
0.038557741168288695
 21
-14.836980616932443
 31
0.0
  0
LINE
  5
12A
330
17
100
AcDbEntity
  8
Cycloidal_Ring_Gear
100
AcDbLine
 10
0.038557741168288695
 20
-14.836980616932443
 30
0.0
 11
0.012414163065032624
 21
-14.831561530255662
 31
0.0
  0
LINE
  5
12B
330
17
100
AcDbEntity
  8
Cycloidal_Ring_Gear
100
AcDbLine
 10
0.012414163065032624
 20
-14.831561530255662
 30
0.0
 11
-0.0019931325501137964
 21
-14.829174788640081
 31
0.0
  0
LINE
  5
12C
330
17
100
AcDbEntity
  8
Cycloidal_Ring_Gear
100
AcDbLine
 10
-0.0019931325501137964
 20
-14.829174788640081
 30
0.0
 11
-0.006926958939553252
 21
-14.828561228576854
 31
0.0
  0
LINE
  5
12D
330
17
100
AcDbEntity
  8
Cycloidal_Ring_Gear
100
AcDbLine
 10
-0.006926958939553252
 20
-14.828561228576854
 30
0.0
 11
-0.005188966955748442
 21
-14.828665348527533
 31
0.0
  0
LINE
  5
12E
330
17
100
AcDbEntity
  8
Cycloidal_Ring_Gear
100
AcDbLine
 10
-0.005188966955748442
 20
-14.828665348527533
 30
0.0
 11
4.060188762593502e-16
 21
-14.828782623672968
 31
0.0
  0
LINE
  5
12F
330
17
100
AcDbEntity
  8
Cycloidal_Ring_Gear
100
AcDbLine
 10
4.060188762593502e-16
 20
-14.828782623672968
 30
0.0
 11
0.005188966955747859
 21
-14.828665348527533
 31
0.0
  0
LINE
  5
130
330
17
100
AcDbEntity
  8
Cycloidal_Ring_Gear
100
AcDbLine
 10
0.005188966955747859
 20
-14.828665348527533
 30
0.0
 11
0.006926958939554029
 21
-14.828561228576854
 31
0.0
  0
LINE
  5
131
330
17
100
AcDbEntity
  8
Cycloidal_Ring_Gear
100
AcDbLine
 10
0.006926958939554029
 20
-14.828561228576854
 30
0.0
 11
0.0019931325501145736
 21
-14.829174788640081
 31
0.0
  0
LINE
  5
132
330
17
100
AcDbEntity
  8
Cycloidal_Ring_Gear
100
AcDbLine
 10
0.0019931325501145736
 20
-14.829174788640081
 30
0.0
 11
-0.012414163065031625
 21
-14.83156153025566
 31
0.0
  0
LINE
  5
133
330
17
100
AcDbEntity
  8
Cycloidal_Ring_Gear
100
AcDbLine
 10
-0.012414163065031625
 20
-14.83156153025566
 30
0.0
 11
-0.03855774116828781
 21
-14.836980616932442
 31
0.0
  0
LINE
  5
134
330
17
100
AcDbEntity
  8
Cycloidal_Ring_Gear
100
AcDbLine
 10
-0.03855774116828781
 20
-14.836980616932442
 30
0.0
 11
-0.07812014373109566
 21
-14.846737956142178
 31
0.0
  0
LINE
  5
135
330
17
100
AcDbEntity
  8
Cycloidal_Ring_Gear
100
AcDbLine
 10
-0.07812014373109566
 20
-14.846737956142178
 30
0.0
 11
-0.13223090736060128
 21
-14.862047306500553
 31
0.0
  0
LINE
  5
136
330
17
100
AcDbEntity
  8
Cycloidal_Ring_Gear
100
AcDbLine
 10
-0.13223090736060128
 20
-14.862047306500553
 30
0.0
 11
-0.20154174689900095
 21
-14.883926363126296
 31
0.0
  0
LINE
  5
137
330
17
100
AcDbEntity
  8
Cycloidal_Ring_Gear
100
AcDbLine
 10
-0.20154174689900095
 20
-14.883926363126296
 30
0.0
 11
-0.2863260661362679
 21
-14.913132978155998
 31
0.0
  0
LINE
  5
138
330
17
100
AcDbEntity
  8
Cycloidal_Ring_Gear
100
AcDbLine
 10
-0.2863260661362679
 20
-14.913132978155998
 30
0.0
 11
-0.3865827519207927
 21
-14.950137659483731
 31
0.0
  0
LINE
  5
139
330
17
100
AcDbEntity
  8
Cycloidal_Ring_Gear
100
AcDbLine
 10
-0.3865827519207927
 20
-14.950137659483731
 30
0.0
 11
-0.5021306993266983
 21
-14.99512368598425
 31
0.0
  0
LINE
  5
13A
330
17
100
AcDbEntity
  8
Cycloidal_Ring_Gear
100
AcDbLine
 10
-0.5021306993266983
 20
-14.99512368598425
 30
0.0
 11
-0.6326870865114271
 21
-15.048005056881093
 31
0.0
  0
LINE
  5
13B
330
17
100
AcDbEntity
  8
Cycloidal_Ring_Gear
100
AcDbLine
 10
-0.6326870865114271
 20
-15.048005056881093
 30
0.0
 11
-0.7779274946957115
 21
-15.108453682221821
 31
0.0
  0
LINE
  5
13C
330
17
100
AcDbEntity
  8
Cycloidal_Ring_Gear
100
AcDbLine
 10
-0.7779274946957115
 20
-15.108453682221821
 30
0.0
 11
-0.9375291347248826
 21
-15.175929374343253
 31
0.0
  0
LINE
  5
13D
330
17
100
AcDbEntity
  8
Cycloidal_Ring_Gear
100
AcDbLine
 10
-0.9375291347248826
 20
-15.175929374343253
 30
0.0
 11
-1.1111999583018008
 21
-15.249708397812283
 31
0.0
  0
LINE
  5
13E
330
17
100
AcDbEntity
  8
Cycloidal_Ring_Gear
100
AcDbLine
 10
-1.1111999583018008
 20
-15.249708397812283
 30
0.0
 11
-1.2986967980747761
 21
-15.328908119902522
 31
0.0
  0
LINE
  5
13F
330
17
100
AcDbEntity
  8
Cycloidal_Ring_Gear
100
AcDbLine
 10
-1.2986967980747761
 20
-15.328908119902522
 30
0.0
 11
-1.4998353688870187
 21
-15.412506549187082
 31
0.0
  0
LINE
  5
140
330
17
100
AcDbEntity
  8
Cycloidal_Ring_Gear
100
AcDbLine
 10
-1.4998353688870187
 20
-15.412506549187082
 30
0.0
 11
-1.714494315480359
 21
-15.499356312195745
 31
0.0
  0
LINE
  5
141
330
17
100
AcDbEntity
  8
Cycloidal_Ring_Gear
100
AcDbLine
 10
-1.714494315480359
 20
-15.499356312195745
 30
0.0
 11
-1.942614715148453
 21
-15.588193026394721
 31
0.0
  0
LINE
  5
142
330
17
100
AcDbEntity
  8
Cycloidal_Ring_Gear
100
AcDbLine
 10
-1.942614715148453
 20
-15.588193026394721
 30
0.0
 11
-2.184195637437316
 21
-15.677638225025134
 31
0.0
  0
LINE
  5
143
330
17
100
AcDbEntity
  8
Cycloidal_Ring_Gear
100
AcDbLine
 10
-2.184195637437316
 20
-15.677638225025134
 30
0.0
 11
-2.4392855627463788
 21
-15.766197110015359
 31
0.0
  0
LINE
  5
144
330
17
100
AcDbEntity
  8
Cycloidal_Ring_Gear
100
AcDbLine
 10
-2.4392855627463788
 20
-15.766197110015359
 30
0.0
 11
-2.7079686760817427
 21
-15.852251577443205
 31
0.0
  0
LINE
  5
145
330
17
100
AcDbEntity
  8
Cycloidal_Ring_Gear
100
AcDbLine
 10
-2.7079686760817427
 20
-15.852251577443205
 30
0.0
 11
-2.990344295287348
 21
-15.934049296174575
 31
0.0
  0
LINE
  5
146
330
17
100
AcDbEntity
  8
Cycloidal_Ring_Gear
100
AcDbLine
 10
-2.990344295287348
 20
-15.934049296174575
 30
0.0
 11
-3.286497016553562
 21
-16.00969024519107
 31
0.0
  0
LINE
  5
147
330
17
100
AcDbEntity
  8
Cycloidal_Ring_Gear
100
AcDbLine
 10
-3.286497016553562
 20
-16.00969024519107
 30
0.0
 11
-3.596454688166479
 21
-16.077113142848535
 31
0.0
  0
LINE
  5
148
330
17
100
AcDbEntity
  8
Cycloidal_Ring_Gear
100
AcDbLine
 10
-3.596454688166479
 20
-16.077113142848535
 30
0.0
 11
-3.9201312892788778
 21
-16.134085708590604
 31
0.0
  0
LINE
  5
149
330
17
100
AcDbEntity
  8
Cycloidal_Ring_Gear
100
AcDbLine
 10
-3.9201312892788778
 20
-16.134085708590604
 30
0.0
 11
-4.2572525604098574
 21
-16.1782046563453
 31
0.0
  0
LINE
  5
14A
330
17
100
AcDbEntity
  8
Cycloidal_Ring_Gear
100
AcDbLine
 10
-4.2572525604098574
 20
-16.1782046563453
 30
0.0
 11
-4.6072642888217885
 21
-16.206913483178347
 31
0.0
  0
LINE
  5
14B
330
17
100
AcDbEntity
  8
Cycloidal_Ring_Gear
100
AcDbLine
 10
-4.6072642888217885
 20
-16.206913483178347
 30
0.0
 11
-4.969226979549086
 21
-16.217547878748512
 31
0.0
  0
LINE
  5
14C
330
17
100
AcDbEntity
  8
Cycloidal_Ring_Gear
100
AcDbLine
 10
-4.969226979549086
 20
-16.217547878748512
 30
0.0
 11
-5.341706455016614
 21
-16.207418859669822
 31
0.0
  0
LINE
  5
14D
330
17
100
AcDbEntity
  8
Cycloidal_Ring_Gear
100
AcDbLine
 10
-5.341706455016614
 20
-16.207418859669822
 30
0.0
 11
-5.722677209439659
 21
-16.173941042934132
 31
0.0
  0
LINE
  5
14E
330
17
100
AcDbEntity
  8
Cycloidal_Ring_Gear
100
AcDbLine
 10
-5.722677209439659
 20
-16.173941042934132
 30
0.0
 11
-6.109462343385364
 21
-16.11480638165347
 31
0.0
  0
LINE
  5
14F
330
17
100
AcDbEntity
  8
Cycloidal_Ring_Gear
100
AcDbLine
 10
-6.109462343385364
 20
-16.11480638165347
 30
0.0
 11
-6.498737423123919
 21
-16.02819179048562
 31
0.0
  0
LINE
  5
150
330
17
100
AcDbEntity
  8
Cycloidal_Ring_Gear
100
AcDbLine
 10
-6.498737423123919
 20
-16.02819179048562
 30
0.0
 11
-6.886621712639872
 21
-15.912974274038083
 31
0.0
  0
LINE
  5
151
330
17
100
AcDbEntity
  8
Cycloidal_Ring_Gear
100
AcDbLine
 10
-6.886621712639872
 20
-15.912974274038083
 30
0.0
 11
-7.268866216899144
 21
-15.768914316776337
 31
0.0
  0
LINE
  5
152
330
17
100
AcDbEntity
  8
Cycloidal_Ring_Gear
100
AcDbLine
 10
-7.268866216899144
 20
-15.768914316776337
 30
0.0
 11
-7.641125089942825
 21
-15.596764177326119
 31
0.0
  0
LINE
  5
153
330
17
100
AcDbEntity
  8
Cycloidal_Ring_Gear
100
AcDbLine
 10
-7.641125089942825
 20
-15.596764177326119
 30
0.0
 11
-7.999271886894309
 21
-15.398267648525291
 31
0.0
  0
LINE
  5
154
330
17
100
AcDbEntity
  8
Cycloidal_Ring_Gear
100
AcDbLine
 10
-7.999271886894309
 20
-15.398267648525291
 30
0.0
 11
-8.339705161381312
 21
-15.176041435356208
 31
0.0
  0
LINE
  5
155
330
17
100
AcDbEntity
  8
Cycloidal_Ring_Gear
100
AcDbLine
 10
-8.339705161381312
 20
-15.176041435356208
 30
0.0
 11
-8.65958757225013
 21
-14.933357896197652
 31
0.0
  0
LINE
  5
156
330
17
100
AcDbEntity
  8
Cycloidal_Ring_Gear
100
AcDbLine
 10
-8.65958757225013
 20
-14.933357896197652
 30
0.0
 11
-8.956980203473602
 21
-14.673872745347422
 31
0.0
  0
LINE
  5
157
330
17
100
AcDbEntity
  8
Cycloidal_Ring_Gear
100
AcDbLine
 10
-8.956980203473602
 20
-14.673872745347422
 30
0.0
 11
-9.230861864639685
 21
-14.401350181972997
 31
0.0
  0
LINE
  5
158
330
17
100
AcDbEntity
  8
Cycloidal_Ring_Gear
100
AcDbLine
 10
-9.230861864639685
 20
-14.401350181972997
 30
0.0
 11
-9.481050136746264
 21
-14.119430137398513
 31
0.0
  0
LINE
  5
159
330
17
100
AcDbEntity
  8
Cycloidal_Ring_Gear
100
AcDbLine
 10
-9.481050136746264
 20
-14.119430137398513
 30
0.0
 11
-9.708057647455641
 21
-13.831463765627584
 31
0.0
  0
LINE
  5
15A
330
17
100
AcDbEntity
  8
Cycloidal_Ring_Gear
100
AcDbLine
 10
-9.708057647455641
 20
-13.831463765627584
 30
0.0
 11
-9.912920674252101
 21
-13.540422807494462
 31
0.0
  0
LINE
  5
15B
330
17
100
AcDbEntity
  8
Cycloidal_Ring_Gear
100
AcDbLine
 10
-9.912920674252101
 20
-13.540422807494462
 30
0.0
 11
-10.097030685481762
 21
-13.248872963170172
 31
0.0
  0
LINE
  5
15C
330
17
100
AcDbEntity
  8
Cycloidal_Ring_Gear
100
AcDbLine
 10
-10.097030685481762
 20
-13.248872963170172
 30
0.0
 11
-10.261988330442488
 21
-12.958993592568046
 31
0.0
  0
LINE
  5
15D
330
17
100
AcDbEntity
  8
Cycloidal_Ring_Gear
100
AcDbLine
 10
-10.261988330442488
 20
-12.958993592568046
 30
0.0
 11
-10.409488468576686
 21
-12.672624992513114
 31
0.0
  0
LINE
  5
15E
330
17
100
AcDbEntity
  8
Cycloidal_Ring_Gear
100
AcDbLine
 10
-10.409488468576686
 20
-12.672624992513114
 30
0.0
 11
-10.541236709155134
 21
-12.391327570543742
 31
0.0
  0
LINE
  5
15F
330
17
100
AcDbEntity
  8
Cycloidal_Ring_Gear
100
AcDbLine
 10
-10.541236709155134
 20
-12.391327570543742
 30
0.0
 11
-10.658893213770197
 21
-12.116441871592997
 31
0.0
  0
LINE
  5
160
330
17
100
AcDbEntity
  8
Cycloidal_Ring_Gear
100
AcDbLine
 10
-10.658893213770197
 20
-12.116441871592997
 30
0.0
 11
-10.764037600869697
 21
-11.849142876936163
 31
0.0
  0
LINE
  5
161
330
17
100
AcDbEntity
  8
Cycloidal_Ring_Gear
100
AcDbLine
 10
-10.764037600869697
 20
-11.849142876936163
 30
0.0
 11
-10.858148704460216
 21
-11.590485460108408
 31
0.0
  0
LINE
  5
162
330
17
100
AcDbEntity
  8
Cycloidal_Ring_Gear
100
AcDbLine
 10
-10.858148704460216
 20
-11.590485460108408
 30
0.0
 11
-10.942593792417549
 21
-11.34144017401939
 31
0.0
  0
LINE
  5
163
330
17
100
AcDbEntity
  8
Cycloidal_Ring_Gear
100
AcDbLine
 10
-10.942593792417549
 20
-11.34144017401939
 30
0.0
 11
-11.01862302910747
 21
-11.102919813455804
 31
0.0
  0
LINE
  5
164
330
17
100
AcDbEntity
  8
Cycloidal_Ring_Gear
100
AcDbLine
 10
-11.01862302910747
 20
-11.102919813455804
 30
0.0
 11
-11.087366126751869
 21
-10.875797712362376
 31
0.0
  0
LINE
  5
165
330
17
100
AcDbEntity
  8
Cycloidal_Ring_Gear
100
AcDbLine
 10
-11.087366126751869
 20
-10.875797712362376
 30
0.0
 11
-11.14982912352889
 21
-10.660918747966388
 31
0.0
  0
LINE
  5
166
330
17
100
AcDbEntity
  8
Cycloidal_Ring_Gear
100
AcDbLine
 10
-11.14982912352889
 20
-10.660918747966388
 30
0.0
 11
-11.206890030925047
 21
-10.459103728887769
 31
0.0
  0
LINE
  5
167
330
17
100
AcDbEntity
  8
Cycloidal_Ring_Gear
100
AcDbLine
 10
-11.206890030925047
 20
-10.459103728887769
 30
0.0
 11
-11.259292753259533
 21
-10.271147377886098
 31
0.0
  0
LINE
  5
168
330
17
100
AcDbEntity
  8
Cycloidal_Ring_Gear
100
AcDbLine
 10
-11.259292753259533
 20
-10.271147377886098
 30
0.0
 11
-11.30763927644512
 21
-10.097809577367169
 31
0.0
  0
LINE
  5
169
330
17
100
AcDbEntity
  8
Cycloidal_Ring_Gear
100
AcDbLine
 10
-11.30763927644512
 20
-10.097809577367169
 30
0.0
 11
-11.352380741683021
 21
-9.939799008511207
 31
0.0
  0
LINE
  5
16A
330
17
100
AcDbEntity
  8
Cycloidal_Ring_Gear
100
AcDbLine
 10
-11.352380741683021
 20
-9.939799008511207
 30
0.0
 11
-11.393808751810045
 21
-9.797747879152015
 31
0.0
  0
LINE
  5
16B
330
17
100
AcDbEntity
  8
Cycloidal_Ring_Gear
100
AcDbLine
 10
-11.393808751810045
 20
-9.797747879152015
 30
0.0
 11
-11.432049171112252
 21
-9.672176241872368
 31
0.0
  0
LINE
  5
16C
330
17
100
AcDbEntity
  8
Cycloidal_Ring_Gear
100
AcDbLine
 10
-11.432049171112252
 20
-9.672176241872368
 30
0.0
 11
-11.467061786020324
 21
-9.563444660821599
 31
0.0
  0
LINE
  5
16D
330
17
100
AcDbEntity
  8
Cycloidal_Ring_Gear
100
AcDbLine
 10
-11.467061786020324
 20
-9.563444660821599
 30
0.0
 11
-11.498650394942551
 21
-9.47169497441507
 31
0.0
  0
LINE
  5
16E
330
17
100
AcDbEntity
  8
Cycloidal_Ring_Gear
100
AcDbLine
 10
-11.498650394942551
 20
-9.47169497441507
 30
0.0
 11
-11.5264889025276
 21
-9.396780932062384
 31
0.0
  0
LINE
  5
16F
330
17
100
AcDbEntity
  8
Cycloidal_Ring_Gear
100
AcDbLine
 10
-11.5264889025276
 20
-9.396780932062384
 30
0.0
 11
-11.550169257778654
 21
-9.33819376981723
 31
0.0
  0
LINE
  5
170
330
17
100
AcDbEntity
  8
Cycloidal_Ring_Gear
100
AcDbLine
 10
-11.550169257778654
 20
-9.33819376981723
 30
0.0
 11
-11.569275786175623
 21
-9.29499220739102
 31
0.0
  0
LINE
  5
171
330
17
100
AcDbEntity
  8
Cycloidal_Ring_Gear
100
AcDbLine
 10
-11.569275786175623
 20
-9.29499220739102
 30
0.0
 11
-11.583486735774336
 21
-9.265751107976856
 31
0.0
  0
LINE
  5
172
330
17
100
AcDbEntity
  8
Cycloidal_Ring_Gear
100
AcDbLine
 10
-11.583486735774336
 20
-9.265751107976856
 30
0.0
 11
-11.59269720054879
 21
-9.248546438747972
 31
0.0
  0
LINE
  5
173
330
17
100
AcDbEntity
  8
Cycloidal_Ring_Gear
100
AcDbLine
 10
-11.59269720054879
 20
-9.248546438747972
 30
0.0
 11
-11.597148660063255
 21
-9.240993736554431
 31
0.0
  0
LINE
  5
174
330
17
100
AcDbEntity
  8
Cycloidal_Ring_Gear
100
AcDbLine
 10
-11.597148660063255
 20
-9.240993736554431
 30
0.0
 11
-11.597541632908264
 21
-9.240350698998828
 31
0.0
  0
LINE
  5
175
330
17
100
AcDbEntity
  8
Cycloidal_Ring_Gear
100
AcDbLine
 10
-11.597541632908264
 20
-9.240350698998828
 30
0.0
 11
-11.5951034558677
 21
-9.24368126444625
 31
0.0
  0
LINE
  5
176
330
17
100
AcDbEntity
  8
Cycloidal_Ring_Gear
100
AcDbLine
 10
-11.5951034558677
 20
-9.24368126444625
 30
0.0
 11
-11.59158705432151
 21
-9.248061463107824
 31
0.0
  0
LINE
  5
177
330
17
100
AcDbEntity
  8
Cycloidal_Ring_Gear
100
AcDbLine
 10
-11.59158705432151
 20
-9.248061463107824
 30
0.0
 11
-11.589190122090875
 21
-9.250792601668952
 31
0.0
  0
LINE
  5
178
330
17
100
AcDbEntity
  8
Cycloidal_Ring_Gear
100
AcDbLine
 10
-11.589190122090875
 20
-9.250792601668952
 30
0.0
 11
-11.59040394104147
 21
-9.249581897679082
 31
0.0
  0
LINE
  5
179
330
17
100
AcDbEntity
  8
Cycloidal_Ring_Gear
100
AcDbLine
 10
-11.59040394104147
 20
-9.249581897679082
 30
0.0
 11
-11.597819646008563
 21
-9.242658012681702
 31
0.0
  0
LINE
  5
17A
330
17
100
AcDbEntity
  8
Cycloidal_Ring_Gear
100
AcDbLine
 10
-11.597819646008563
 20
-9.242658012681702
 30
0.0
 11
-11.6139294059751
 21
-9.228806494203639
 31
0.0
  0
LINE
  5
17B
330
17
100
AcDbEntity
  8
Cycloidal_Ring_Gear
100
AcDbLine
 10
-11.6139294059751
 20
-9.228806494203639
 30
0.0
 11
-11.64095735994743
 21
-9.207330547021796
 31
0.0
  0
LINE
  5
17C
330
17
100
AcDbEntity
  8
Cycloidal_Ring_Gear
100
AcDbLine
 10
-11.64095735994743
 20
-9.207330547021796
 30
0.0
 11
-11.68074275572153
 21
-9.177957954423366
 31
0.0
  0
LINE
  5
17D
330
17
100
AcDbEntity
  8
Cycloidal_Ring_Gear
100
AcDbLine
 10
-11.68074275572153
 20
-9.177957954423366
 30
0.0
 11
-11.734681863102146
 21
-9.140721142363496
 31
0.0
  0
LINE
  5
17E
330
17
100
AcDbEntity
  8
Cycloidal_Ring_Gear
100
AcDbLine
 10
-11.734681863102146
 20
-9.140721142363496
 30
0.0
 11
-11.803721960196208
 21
-9.095834900572836
 31
0.0
  0
LINE
  5
17F
330
17
100
AcDbEntity
  8
Cycloidal_Ring_Gear
100
AcDbLine
 10
-11.803721960196208
 20
-9.095834900572836
 30
0.0
 11
-11.88839322042611
 21
-9.043588759342649
 31
0.0
  0
LINE
  5
180
330
17
100
AcDbEntity
  8
Cycloidal_Ring_Gear
100
AcDbLine
 10
-11.88839322042611
 20
-9.043588759342649
 30
0.0
 11
-11.988862658667644
 21
-8.98426247318437
 31
0.0
  0
LINE
  5
181
330
17
100
AcDbEntity
  8
Cycloidal_Ring_Gear
100
AcDbLine
 10
-11.988862658667644
 20
-8.98426247318437
 30
0.0
 11
-12.104996542144736
 21
-8.918066145555569
 31
0.0
  0
LINE
  5
182
330
17
100
AcDbEntity
  8
Cycloidal_Ring_Gear
100
AcDbLine
 10
-12.104996542144736
 20
-8.918066145555569
 30
0.0
 11
-12.236421601526118
 21
-8.845102210944987
 31
0.0
  0
LINE
  5
183
330
17
100
AcDbEntity
  8
Cycloidal_Ring_Gear
100
AcDbLine
 10
-12.236421601526118
 20
-8.845102210944987
 30
0.0
 11
-12.382579330435414
 21
-8.765344551259162
 31
0.0
  0
LINE
  5
184
330
17
100
AcDbEntity
  8
Cycloidal_Ring_Gear
100
AcDbLine
 10
-12.382579330435414
 20
-8.765344551259162
 30
0.0
 11
-12.542770779817722
 21
-8.678629737034125
 31
0.0
  0
LINE
  5
185
330
17
100
AcDbEntity
  8
Cycloidal_Ring_Gear
100
AcDbLine
 10
-12.542770779817722
 20
-8.678629737034125
 30
0.0
 11
-12.716191307796507
 21
-8.584656004148002
 31
0.0
  0
LINE
  5
186
330
17
100
AcDbEntity
  8
Cycloidal_Ring_Gear
100
AcDbLine
 10
-12.716191307796507
 20
-8.584656004148002
 30
0.0
 11
-12.901955855844529
 21
-8.48298655387582
 31
0.0
  0
LINE
  5
187
330
17
100
AcDbEntity
  8
Cycloidal_Ring_Gear
100
AcDbLine
 10
-12.901955855844529
 20
-8.48298655387582
 30
0.0
 11
-13.099115735323835
 21
-8.3730547792943
 31
0.0
  0
LINE
  5
188
330
17
100
AcDbEntity
  8
Cycloidal_Ring_Gear
100
AcDbLine
 10
-13.099115735323835
 20
-8.3730547792943
 30
0.0
 11
-13.306667872060062
 21
-8.254169936783027
 31
0.0
  0
LINE
  5
189
330
17
100
AcDbEntity
  8
Cycloidal_Ring_Gear
100
AcDbLine
 10
-13.306667872060062
 20
-8.254169936783027
 30
0.0
 11
-13.523557168772577
 21
-8.125522576253744
 31
0.0
  0
LINE
  5
18A
330
17
100
AcDbEntity
  8
Cycloidal_Ring_Gear
100
AcDbLine
 10
-13.523557168772577
 20
-8.125522576253744
 30
0.0
 11
-13.74867225119164
 21
-7.986189758822398
 31
0.0
  0
LINE
  5
18B
330
17
100
AcDbEntity
  8
Cycloidal_Ring_Gear
100
AcDbLine
 10
-13.74867225119164
 20
-7.986189758822398
 30
0.0
 11
-13.980834473590935
 21
-7.835140793251939
 31
0.0
  0
LINE
  5
18C
330
17
100
AcDbEntity
  8
Cycloidal_Ring_Gear
100
AcDbLine
 10
-13.980834473590935
 20
-7.835140793251939
 30
0.0
 11
-14.218779772785144
 21
-7.671244982056787
 31
0.0
  0
LINE
  5
18D
330
17
100
AcDbEntity
  8
Cycloidal_Ring_Gear
100
AcDbLine
 10
-14.218779772785144
 20
-7.671244982056787
 30
0.0
 11
-14.461132890303896
 21
-7.493283735226987
 31
0.0
  0
LINE
  5
18E
330
17
100
AcDbEntity
  8
Cycloidal_Ring_Gear
100
AcDbLine
 10
-14.461132890303896
 20
-7.493283735226987
 30
0.0
 11
-14.706373778875088
 21
-7.299970388992951
 31
0.0
  0
LINE
  5
18F
330
17
100
AcDbEntity
  8
Cycloidal_Ring_Gear
100
AcDbLine
 10
-14.706373778875088
 20
-7.299970388992951
 30
0.0
 11
-14.952796862193262
 21
-7.0899820778853355
 31
0.0
  0
LINE
  5
190
330
17
100
AcDbEntity
  8
Cycloidal_Ring_Gear
100
AcDbLine
 10
-14.952796862193262
 20
-7.0899820778853355
 30
0.0
 11
-15.198465440036866
 21
-6.862008827199154
 31
0.0
  0
LINE
  5
191
330
17
100
AcDbEntity
  8
Cycloidal_Ring_Gear
100
AcDbLine
 10
-15.198465440036866
 20
-6.862008827199154
 30
0.0
 11
-15.441166091941662
 21
-6.614825231463955
 31
0.0
  0
LINE
  5
192
330
17
100
AcDbEntity
  8
Cycloidal_Ring_Gear
100
AcDbLine
 10
-15.441166091941662
 20
-6.614825231463955
 30
0.0
 11
-15.678371407654252
 21
-6.347388995489366
 31
0.0
  0
LINE
  5
193
330
17
100
AcDbEntity
  8
Cycloidal_Ring_Gear
100
AcDbLine
 10
-15.678371407654252
 20
-6.347388995489366
 30
0.0
 11
-15.907223313851642
 21
-6.058967400878272
 31
0.0
  0
LINE
  5
194
330
17
100
AcDbEntity
  8
Cycloidal_Ring_Gear
100
AcDbLine
 10
-15.907223313851642
 20
-6.058967400878272
 30
0.0
 11
-16.124552540811955
 21
-5.749286693984715
 31
0.0
  0
LINE
  5
195
330
17
100
AcDbEntity
  8
Cycloidal_Ring_Gear
100
AcDbLine
 10
-16.124552540811955
 20
-5.749286693984715
 30
0.0
 11
-16.32695044443585
 21
-5.418690421937136
 31
0.0
  0
LINE
  5
196
330
17
100
AcDbEntity
  8
Cycloidal_Ring_Gear
100
AcDbLine
 10
-16.32695044443585
 20
-5.418690421937136
 30
0.0
 11
-16.51090507095953
 21
-5.068282282361766
 31
0.0
  0
LINE
  5
197
330
17
100
AcDbEntity
  8
Cycloidal_Ring_Gear
100
AcDbLine
 10
-16.51090507095953
 20
-5.068282282361766
 30
0.0
 11
-16.67300225755394
 21
-4.700020532839019
 31
0.0
  0
LINE
  5
198
330
17
100
AcDbEntity
  8
Cycloidal_Ring_Gear
100
AcDbLine
 10
-16.67300225755394
 20
-4.700020532839019
 30
0.0
 11
-16.810175304375047
 21
-4.31672944292734
 31
0.0
  0
LINE
  5
199
330
17
100
AcDbEntity
  8
Cycloidal_Ring_Gear
100
AcDbLine
 10
-16.810175304375047
 20
-4.31672944292734
 30
0.0
 11
-16.91996774760117
 21
-3.922003157115406
 31
0.0
  0
LINE
  5
19A
330
17
100
AcDbEntity
  8
Cycloidal_Ring_Gear
100
AcDbLine
 10
-16.91996774760117
 20
-3.922003157115406
 30
0.0
 11
-17.000760766751082
 21
-3.5199993035661032
 31
0.0
  0
LINE
  5
19B
330
17
100
AcDbEntity
  8
Cycloidal_Ring_Gear
100
AcDbLine
 10
-17.000760766751082
 20
-3.5199993035661032
 30
0.0
 11
-17.05191747925916
 21
-3.115148068276503
 31
0.0
  0
LINE
  5
19C
330
17
100
AcDbEntity
  8
Cycloidal_Ring_Gear
100
AcDbLine
 10
-17.05191747925916
 20
-3.115148068276503
 30
0.0
 11
-17.073813466549474
 21
-2.7118264977891955
 31
0.0
  0
LINE
  5
19D
330
17
100
AcDbEntity
  8
Cycloidal_Ring_Gear
100
AcDbLine
 10
-17.073813466549474
 20
-2.7118264977891955
 30
0.0
 11
-17.067751006165103
 21
-2.3140570258023536
 31
0.0
  0
LINE
  5
19E
330
17
100
AcDbEntity
  8
Cycloidal_Ring_Gear
100
AcDbLine
 10
-17.067751006165103
 20
-2.3140570258023536
 30
0.0
 11
-17.035782503087884
 21
-1.9252797439962597
 31
0.0
  0
LINE
  5
19F
330
17
100
AcDbEntity
  8
Cycloidal_Ring_Gear
100
AcDbLine
 10
-17.035782503087884
 20
-1.9252797439962597
 30
0.0
 11
-16.980485834622186
 21
-1.5482247561131248
 31
0.0
  0
LINE
  5
1A0
330
17
100
AcDbEntity
  8
Cycloidal_Ring_Gear
100
AcDbLine
 10
-16.980485834622186
 20
-1.5482247561131248
 30
0.0
 11
-16.904736253141373
 21
-1.1848845086704216
 31
0.0
  0
LINE
  5
1A1
330
17
100
AcDbEntity
  8
Cycloidal_Ring_Gear
100
AcDbLine
 10
-16.904736253141373
 20
-1.1848845086704216
 30
0.0
 11
-16.811508991667047
 21
-0.8365659247153672
 31
0.0
  0
LINE
  5
1A2
330
17
100
AcDbEntity
  8
Cycloidal_Ring_Gear
100
AcDbLine
 10
-16.811508991667047
 20
-0.8365659247153672
 30
0.0
 11
-16.703730738011835
 21
-0.5039929709677062
 31
0.0
  0
LINE
  5
1A3
330
17
100
AcDbEntity
  8
Cycloidal_Ring_Gear
100
AcDbLine
 10
-16.703730738011835
 20
-0.5039929709677062
 30
0.0
 11
-16.584183301186314
 21
-0.18743099453605505
 31
0.0
  0
LINE
  5
1A4
330
17
100
AcDbEntity
  8
Cycloidal_Ring_Gear
100
AcDbLine
 10
-16.584183301186314
 20
-0.18743099453605505
 30
0.0
 11
-16.4554527642943
 21
0.11318918046849813
 31
0.0
  0
LINE
  5
1A5
330
17
100
AcDbEntity
  8
Cycloidal_Ring_Gear
100
AcDbLine
 10
-16.4554527642943
 20
0.11318918046849813
 30
0.0
 11
-16.319912781701056
 21
0.39816095871469726
 31
0.0
  0
LINE
  5
1A6
330
17
100
AcDbEntity
  8
Cycloidal_Ring_Gear
100
AcDbLine
 10
-16.319912781701056
 20
0.39816095871469726
 30
0.0
 11
-16.17973015414067
 21
0.6679115939074738
 31
0.0
  0
LINE
  5
1A7
330
17
100
AcDbEntity
  8
Cycloidal_Ring_Gear
100
AcDbLine
 10
-16.17973015414067
 20
0.6679115939074738
 30
0.0
 11
-16.036882607833665
 21
0.9229325649990231
 31
0.0
  0
LINE
  5
1A8
330
17
100
AcDbEntity
  8
Cycloidal_Ring_Gear
100
AcDbLine
 10
-16.036882607833665
 20
0.9229325649990231
 30
0.0
 11
-15.893181320972083
 21
1.1637285048379682
 31
0.0
  0
LINE
  5
1A9
330
17
100
AcDbEntity
  8
Cycloidal_Ring_Gear
100
AcDbLine
 10
-15.893181320972083
 20
1.1637285048379682
 30
0.0
 11
-15.75029325852249
 21
1.3907811640792362
 31
0.0
  0
LINE
  5
1AA
330
17
100
AcDbEntity
  8
Cycloidal_Ring_Gear
100
AcDbLine
 10
-15.75029325852249
 20
1.3907811640792362
 30
0.0
 11
-15.609760370934035
 21
1.6045247047193358
 31
0.0
  0
LINE
  5
1AB
330
17
100
AcDbEntity
  8
Cycloidal_Ring_Gear
100
AcDbLine
 10
-15.609760370934035
 20
1.6045247047193358
 30
0.0
 11
-15.47301408755865
 21
1.8053290504105954
 31
0.0
  0
LINE
  5
1AC
330
17
100
AcDbEntity
  8
Cycloidal_Ring_Gear
100
AcDbLine
 10
-15.47301408755865
 20
1.8053290504105954
 30
0.0
 11
-15.341384361471462
 21
1.9934887348268495
 31
0.0
  0
LINE
  5
1AD
330
17
100
AcDbEntity
  8
Cycloidal_Ring_Gear
100
AcDbLine
 10
-15.341384361471462
 20
1.9934887348268495
 30
0.0
 11
-15.216102929905931
 21
2.1692154937342036
 31
0.0
  0
LINE
  5
1AE
330
17
100
AcDbEntity
  8
Cycloidal_Ring_Gear
100
AcDbLine
 10
-15.216102929905931
 20
2.1692154937342036
 30
0.0
 11
-15.098300581883255
 21
2.33263365806049
 31
0.0
  0
LINE
  5
1AF
330
17
100
AcDbEntity
  8
Cycloidal_Ring_Gear
100
AcDbLine
 10
-15.098300581883255
 20
2.33263365806049
 30
0.0
 11
-14.988998199472404
 21
2.4837782078671813
 31
0.0
  0
LINE
  5
1B0
330
17
100
AcDbEntity
  8
Cycloidal_Ring_Gear
100
AcDbLine
 10
-14.988998199472404
 20
2.4837782078671813
 30
0.0
 11
-14.889091281405893
 21
2.622596156487941
 31
0.0
  0
LINE
  5
1B1
330
17
100
AcDbEntity
  8
Cycloidal_Ring_Gear
100
AcDbLine
 10
-14.889091281405893
 20
2.622596156487941
 30
0.0
 11
-14.799327691973867
 21
2.748952768049026
 31
0.0
  0
LINE
  5
1B2
330
17
100
AcDbEntity
  8
Cycloidal_Ring_Gear
100
AcDbLine
 10
-14.799327691973867
 20
2.748952768049026
 30
0.0
 11
-14.720278646375087
 21
2.8626449589234557
 31
0.0
  0
LINE
  5
1B3
330
17
100
AcDbEntity
  8
Cycloidal_Ring_Gear
100
AcDbLine
 10
-14.720278646375087
 20
2.8626449589234557
 30
0.0
 11
-14.652303610601841
 21
2.9634250163518745
 31
0.0
  0
LINE
  5
1B4
330
17
100
AcDbEntity
  8
Cycloidal_Ring_Gear
100
AcDbLine
 10
-14.652303610601841
 20
2.9634250163518745
 30
0.0
 11
-14.595511029443069
 21
3.0510382950385155
 31
0.0
  0
LINE
  5
1B5
330
17
100
AcDbEntity
  8
Cycloidal_Ring_Gear
100
AcDbLine
 10
-14.595511029443069
 20
3.0510382950385155
 30
0.0
 11
-14.549718717997703
 21
3.1252784791534483
 31
0.0
  0
LINE
  5
1B6
330
17
100
AcDbEntity
  8
Cycloidal_Ring_Gear
100
AcDbLine
 10
-14.549718717997703
 20
3.1252784791534483
 30
0.0
 11
-14.514420308675582
 21
3.1860628128508535
 31
0.0
  0
LINE
  5
1B7
330
17
100
AcDbEntity
  8
Cycloidal_Ring_Gear
100
AcDbLine
 10
-14.514420308675582
 20
3.1860628128508535
 30
0.0
 11
-14.48876694051248
 21
3.233526818692296
 31
0.0
  0
LINE
  5
1B8
330
17
100
AcDbEntity
  8
Cycloidal_Ring_Gear
100
AcDbLine
 10
-14.48876694051248
 20
3.233526818692296
 30
0.0
 11
-14.471575490563566
 21
3.2681330303001483
 31
0.0
  0
LINE
  5
1B9
330
17
100
AcDbEntity
  8
Cycloidal_Ring_Gear
100
AcDbLine
 10
-14.471575490563566
 20
3.2681330303001483
 30
0.0
 11
-14.46137460368392
 21
3.290781396148226
 31
0.0
  0
LINE
  5
1BA
330
17
100
AcDbEntity
  8
Cycloidal_Ring_Gear
100
AcDbLine
 10
-14.46137460368392
 20
3.290781396148226
 30
0.0
 11
-14.45649590036123
 21
3.3029016930566595
 31
0.0
  0
LINE
  5
1BB
330
17
100
AcDbEntity
  8
Cycloidal_Ring_Gear
100
AcDbLine
 10
-14.45649590036123
 20
3.3029016930566595
 30
0.0
 11
-14.45520905811779
 21
3.306503390818092
 31
0.0
  0
LINE
  5
1BC
330
17
100
AcDbEntity
  8
Cycloidal_Ring_Gear
100
AcDbLine
 10
-14.45520905811779
 20
3.306503390818092
 30
0.0
 11
-14.45588695383173
 21
3.3041596045614208
 31
0.0
  0
LINE
  5
1BD
330
17
100
AcDbEntity
  8
Cycloidal_Ring_Gear
100
AcDbLine
 10
-14.45588695383173
 20
3.3041596045614208
 30
0.0
 11
-14.457174447622752
 21
3.298911681711123
 31
0.0
  0
LINE
  5
1BE
330
17
100
AcDbEntity
  8
Cycloidal_Ring_Gear
100
AcDbLine
 10
-14.457174447622752
 20
3.298911681711123
 30
0.0
 11
-14.458127323263335
 21
3.2940987747634263
 31
0.0
  0
LINE
  5
1BF
330
17
100
AcDbEntity
  8
Cycloidal_Ring_Gear
100
AcDbLine
 10
-14.458127323263335
 20
3.2940987747634263
 30
0.0
 11
-14.458291112993884
 21
3.293137046522791
 31
0.0
  0
LINE
  5
1C0
330
17
100
AcDbEntity
  8
Cycloidal_Ring_Gear
100
AcDbLine
 10
-14.458291112993884
 20
3.293137046522791
 30
0.0
 11
-14.457703500181914
 21
3.299287787814248
 31
0.0
  0
LINE
  5
1C1
330
17
100
AcDbEntity
  8
Cycloidal_Ring_Gear
100
AcDbLine
 10
-14.457703500181914
 20
3.299287787814248
 30
0.0
 11
-14.45682371556811
 21
3.315456201567182
 31
0.0
  0
LINE
  5
1C2
330
17
100
AcDbEntity
  8
Cycloidal_Ring_Gear
100
AcDbLine
 10
-14.45682371556811
 20
3.315456201567182
 30
0.0
 11
-14.4564098252217
 21
3.3440520689497895
 31
0.0
  0
LINE
  5
1C3
330
17
100
AcDbEntity
  8
Cycloidal_Ring_Gear
100
AcDbLine
 10
-14.4564098252217
 20
3.3440520689497895
 30
0.0
 11
-14.45737363455808
 21
3.386925161713436
 31
0.0
  0
LINE
  5
1C4
330
17
100
AcDbEntity
  8
Cycloidal_Ring_Gear
100
AcDbLine
 10
-14.45737363455808
 20
3.386925161713436
 30
0.0
 11
-14.460641508920459
 21
3.445369926123731
 31
0.0
  0
LINE
  5
1C5
330
17
100
AcDbEntity
  8
Cycloidal_Ring_Gear
100
AcDbLine
 10
-14.460641508920459
 20
3.445369926123731
 30
0.0
 11
-14.467040774332691
 21
3.5201816879879084
 31
0.0
  0
LINE
  5
1C6
330
17
100
AcDbEntity
  8
Cycloidal_Ring_Gear
100
AcDbLine
 10
-14.467040774332691
 20
3.5201816879879084
 30
0.0
 11
-14.477220452137827
 21
3.6117423782561247
 31
0.0
  0
LINE
  5
1C7
330
17
100
AcDbEntity
  8
Cycloidal_Ring_Gear
100
AcDbLine
 10
-14.477220452137827
 20
3.6117423782561247
 30
0.0
 11
-14.49160591934986
 21
3.7201159738891714
 31
0.0
  0
LINE
  5
1C8
330
17
100
AcDbEntity
  8
Cycloidal_Ring_Gear
100
AcDbLine
 10
-14.49160591934986
 20
3.7201159738891714
 30
0.0
 11
-14.510381497821644
 21
3.845139395034038
 31
0.0
  0
LINE
  5
1C9
330
17
100
AcDbEntity
  8
Cycloidal_Ring_Gear
100
AcDbLine
 10
-14.510381497821644
 20
3.845139395034038
 30
0.0
 11
-14.53349286390369
 21
3.9865007054715718
 31
0.0
  0
LINE
  5
1CA
330
17
100
AcDbEntity
  8
Cycloidal_Ring_Gear
100
AcDbLine
 10
-14.53349286390369
 20
3.9865007054715718
 30
0.0
 11
-14.560661466859464
 21
4.143801462570358
 31
0.0
  0
LINE
  5
1CB
330
17
100
AcDbEntity
  8
Cycloidal_Ring_Gear
100
AcDbLine
 10
-14.560661466859464
 20
4.143801462570358
 30
0.0
 11
-14.591404646653718
 21
4.316603385401278
 31
0.0
  0
LINE
  5
1CC
330
17
100
AcDbEntity
  8
Cycloidal_Ring_Gear
100
AcDbLine
 10
-14.591404646653718
 20
4.316603385401278
 30
0.0
 11
-14.625056951002335
 21
4.50446127692993
 31
0.0
  0
LINE
  5
1CD
330
17
100
AcDbEntity
  8
Cycloidal_Ring_Gear
100
AcDbLine
 10
-14.625056951002335
 20
4.50446127692993
 30
0.0
 11
-14.660789764223109
 21
4.706944753332273
 31
0.0
  0
LINE
  5
1CE
330
17
100
AcDbEntity
  8
Cycloidal_Ring_Gear
100
AcDbLine
 10
-14.660789764223109
 20
4.706944753332273
 30
0.0
 11
-14.69762758548271
 21
4.923651226051082
 31
0.0
  0
LINE
  5
1CF
330
17
100
AcDbEntity
  8
Cycloidal_Ring_Gear
100
AcDbLine
 10
-14.69762758548271
 20
4.923651226051082
 30
0.0
 11
-14.734460129785854
 21
5.154212080361663
 31
0.0
  0
LINE
  5
1D0
330
17
100
AcDbEntity
  8
Cycloidal_Ring_Gear
100
AcDbLine
 10
-14.734460129785854
 20
5.154212080361663
 30
0.0
 11
-14.770049960008889
 21
5.398293310901048
 31
0.0
  0
LINE
  5
1D1
330
17
100
AcDbEntity
  8
Cycloidal_Ring_Gear
100
AcDbLine
 10
-14.770049960008889
 20
5.398293310901048
 30
0.0
 11
-14.803035711701911
 21
5.655591127841198
 31
0.0
  0
LINE
  5
1D2
330
17
100
AcDbEntity
  8
Cycloidal_Ring_Gear
100
AcDbLine
 10
-14.803035711701911
 20
5.655591127841198
 30
0.0
 11
-14.831931267091637
 21
5.925822295658249
 31
0.0
  0
LINE
  5
1D3
330
17
100
AcDbEntity
  8
Cycloidal_Ring_Gear
100
AcDbLine
 10
-14.831931267091637
 20
5.925822295658249
 30
0.0
 11
-14.855121589174
 21
6.208708244331393
 31
0.0
  0
LINE
  5
1D4
330
17
100
AcDbEntity
  8
Cycloidal_Ring_Gear
100
AcDbLine
 10
-14.855121589174
 20
6.208708244331393
 30
0.0
 11
-14.87085645437616
 21
6.50395134403379
 31
0.0
  0
LINE
  5
1D5
330
17
100
AcDbEntity
  8
Cycloidal_Ring_Gear
100
AcDbLine
 10
-14.87085645437616
 20
6.50395134403379
 30
0.0
 11
-14.877244127378395
 21
6.811201244193536
 31
0.0
  0
LINE
  5
1D6
330
17
100
AcDbEntity
  8
Cycloidal_Ring_Gear
100
AcDbLine
 10
-14.877244127378395
 20
6.811201244193536
 30
0.0
 11
-14.872248182245151
 21
7.130009005196339
 31
0.0
  0
LINE
  5
1D7
330
17
100
AcDbEntity
  8
Cycloidal_Ring_Gear
100
AcDbLine
 10
-14.872248182245151
 20
7.130009005196339
 30
0.0
 11
-14.853692199357459
 21
7.459767155621378
 31
0.0
  0
LINE
  5
1D8
330
17
100
AcDbEntity
  8
Cycloidal_Ring_Gear
100
AcDbLine
 10
-14.853692199357459
 20
7.459767155621378
 30
0.0
 11
-14.819278821971105
 21
7.7996351543234645
 31
0.0
  0
LINE
  5
1D9
330
17
100
AcDbEntity
  8
Cycloidal_Ring_Gear
100
AcDbLine
 10
-14.819278821971105
 20
7.7996351543234645
 30
0.0
 11
-14.766631248700813
 21
8.148452441120694
 31
0.0
  0
LINE
  5
1DA
330
17
100
AcDbEntity
  8
Cycloidal_Ring_Gear
100
AcDbLine
 10
-14.766631248700813
 20
8.148452441120694
 30
0.0
 11
-14.693365910734915
 21
8.504645628353181
 31
0.0
  0
LINE
  5
1DB
330
17
100
AcDbEntity
  8
Cycloidal_Ring_Gear
100
AcDbLine
 10
-14.693365910734915
 20
8.504645628353181
 30
0.0
 11
-14.597203682876746
 21
8.866142299886763
 31
0.0
  0
LINE
  5
1DC
330
17
100
AcDbEntity
  8
Cycloidal_Ring_Gear
100
AcDbLine
 10
-14.597203682876746
 20
8.866142299886763
 30
0.0
 11
-14.476122173621848
 21
9.230310361950973
 31
0.0
  0
LINE
  5
1DD
330
17
100
AcDbEntity
  8
Cycloidal_Ring_Gear
100
AcDbLine
 10
-14.476122173621848
 20
9.230310361950973
 30
0.0
 11
-14.328542545267121
 21
9.593946715750324
 31
0.0
  0
LINE
  5
1DE
330
17
100
AcDbEntity
  8
Cycloidal_Ring_Gear
100
AcDbLine
 10
-14.328542545267121
 20
9.593946715750324
 30
0.0
 11
-14.153531531652593
 21
9.953338872709868
 31
0.0
  0
LINE
  5
1DF
330
17
100
AcDbEntity
  8
Cycloidal_Ring_Gear
100
AcDbLine
 10
-14.153531531652593
 20
9.953338872709868
 30
0.0
 11
-13.950985960506914
 21
10.304414710041836
 31
0.0
  0
LINE
  5
1E0
330
17
100
AcDbEntity
  8
Cycloidal_Ring_Gear
100
AcDbLine
 10
-13.950985960506914
 20
10.304414710041836
 30
0.0
 11
-13.721758799706771
 21
10.642977799535489
 31
0.0
  0
LINE
  5
1E1
330
17
100
AcDbEntity
  8
Cycloidal_Ring_Gear
100
AcDbLine
 10
-13.721758799706771
 20
10.642977799535489
 30
0.0
 11
-13.46768874141447
 21
10.965002085268297
 31
0.0
  0
LINE
  5
1E2
330
17
100
AcDbEntity
  8
Cycloidal_Ring_Gear
100
AcDbLine
 10
-13.46768874141447
 20
10.965002085268297
 30
0.0
 11
-13.191512570942498
 21
11.266938411037959
 31
0.0
  0
LINE
  5
1E3
330
17
100
AcDbEntity
  8
Cycloidal_Ring_Gear
100
AcDbLine
 10
-13.191512570942498
 20
11.266938411037959
 30
0.0
 11
-12.896667348432082
 21
11.545976351009354
 31
0.0
  0
LINE
  5
1E4
330
17
100
AcDbEntity
  8
Cycloidal_Ring_Gear
100
AcDbLine
 10
-12.896667348432082
 20
11.545976351009354
 30
0.0
 11
-12.587017677706035
 21
11.800213659955274
 31
0.0
  0
LINE
  5
1E5
330
17
100
AcDbEntity
  8
Cycloidal_Ring_Gear
100
AcDbLine
 10
-12.587017677706035
 20
11.800213659955274
 30
0.0
 11
-12.266560542809158
 21
12.028709753773622
 31
0.0
  0
LINE
  5
1E6
330
17
100
AcDbEntity
  8
Cycloidal_Ring_Gear
100
AcDbLine
 10
-12.266560542809158
 20
12.028709753773622
 30
0.0
 11
-11.939160049297055
 21
12.23142896891529
 31
0.0
  0
LINE
  5
1E7
330
17
100
AcDbEntity
  8
Cycloidal_Ring_Gear
100
AcDbLine
 10
-11.939160049297055
 20
12.23142896891529
 30
0.0
 11
-11.608349070992185
 21
12.409102483018636
 31
0.0
  0
LINE
  5
1E8
330
17
100
AcDbEntity
  8
Cycloidal_Ring_Gear
100
AcDbLine
 10
-11.608349070992185
 20
12.409102483018636
 30
0.0
 11
-11.277212596942773
 21
12.563047951572095
 31
0.0
  0
LINE
  5
1E9
330
17
100
AcDbEntity
  8
Cycloidal_Ring_Gear
100
AcDbLine
 10
-11.277212596942773
 20
12.563047951572095
 30
0.0
 11
-10.94834754300658
 21
12.694983279914588
 31
0.0
  0
LINE
  5
1EA
330
17
100
AcDbEntity
  8
Cycloidal_Ring_Gear
100
AcDbLine
 10
-10.94834754300658
 20
12.694983279914588
 30
0.0
 11
-10.623881361851396
 21
12.806860424956056
 31
0.0
  0
LINE
  5
1EB
330
17
100
AcDbEntity
  8
Cycloidal_Ring_Gear
100
AcDbLine
 10
-10.623881361851396
 20
12.806860424956056
 30
0.0
 11
-10.30552774065364
 21
12.900732583801846
 31
0.0
  0
LINE
  5
1EC
330
17
100
AcDbEntity
  8
Cycloidal_Ring_Gear
100
AcDbLine
 10
-10.30552774065364
 20
12.900732583801846
 30
0.0
 11
-9.994659742577403
 21
12.978657697565058
 31
0.0
  0
LINE
  5
1ED
330
17
100
AcDbEntity
  8
Cycloidal_Ring_Gear
100
AcDbLine
 10
-9.994659742577403
 20
12.978657697565058
 30
0.0
 11
-9.692385797536161
 21
13.042634523184006
 31
0.0
  0
LINE
  5
1EE
330
17
100
AcDbEntity
  8
Cycloidal_Ring_Gear
100
AcDbLine
 10
-9.692385797536161
 20
13.042634523184006
 30
0.0
 11
-9.399619474293557
 21
13.094564412343733
 31
0.0
  0
LINE
  5
1EF
330
17
100
AcDbEntity
  8
Cycloidal_Ring_Gear
100
AcDbLine
 10
-9.399619474293557
 20
13.094564412343733
 30
0.0
 11
-9.117138563244133
 21
13.136231354116
 31
0.0
  0
LINE
  5
1F0
330
17
100
AcDbEntity
  8
Cycloidal_Ring_Gear
100
AcDbLine
 10
-9.117138563244133
 20
13.136231354116
 30
0.0
 11
-8.845632192525445
 21
13.169293665175347
 31
0.0
  0
LINE
  5
1F1
330
17
100
AcDbEntity
  8
Cycloidal_Ring_Gear
100
AcDbLine
 10
-8.845632192525445
 20
13.169293665175347
 30
0.0
 11
-8.585736569466917
 21
13.195282092733267
 31
0.0
  0
LINE
  5
1F2
330
17
100
AcDbEntity
  8
Cycloidal_Ring_Gear
100
AcDbLine
 10
-8.585736569466917
 20
13.195282092733267
 30
0.0
 11
-8.338060790738435
 21
13.215600512422393
 31
0.0
  0
LINE
  5
1F3
330
17
100
AcDbEntity
  8
Cycloidal_Ring_Gear
100
AcDbLine
 10
-8.338060790738435
 20
13.215600512422393
 30
0.0
 11
-8.103204328918329
 21
13.231526611562385
 31
0.0
  0
LINE
  5
1F4
330
17
100
AcDbEntity
  8
Cycloidal_Ring_Gear
100
AcDbLine
 10
-8.103204328918329
 20
13.231526611562385
 30
0.0
 11
-7.881767547605938
 21
13.24421088060937
 31
0.0
  0
LINE
  5
1F5
330
17
100
AcDbEntity
  8
Cycloidal_Ring_Gear
100
AcDbLine
 10
-7.881767547605938
 20
13.24421088060937
 30
0.0
 11
-7.674356105233042
 21
13.254672923496802
 31
0.0
  0
LINE
  5
1F6
330
17
100
AcDbEntity
  8
Cycloidal_Ring_Gear
100
AcDbLine
 10
-7.674356105233042
 20
13.254672923496802
 30
0.0
 11
-7.481579493579366
 21
13.263794619703312
 31
0.0
  0
LINE
  5
1F7
330
17
100
AcDbEntity
  8
Cycloidal_Ring_Gear
100
AcDbLine
 10
-7.481579493579366
 20
13.263794619703312
 30
0.0
 11
-7.304043292201308
 21
13.272310126342553
 31
0.0
  0
LINE
  5
1F8
330
17
100
AcDbEntity
  8
Cycloidal_Ring_Gear
100
AcDbLine
 10
-7.304043292201308
 20
13.272310126342553
 30
0.0
 11
-7.142334063777395
 21
13.28079320461465
 31
0.0
  0
LINE
  5
1F9
330
17
100
AcDbEntity
  8
Cycloidal_Ring_Gear
100
AcDbLine
 10
-7.142334063777395
 20
13.28079320461465
 30
0.0
 11
-6.996995246638293
 21
13.289642999127228
 31
0.0
  0
LINE
  5
1FA
330
17
100
AcDbEntity
  8
Cycloidal_Ring_Gear
100
AcDbLine
 10
-6.996995246638293
 20
13.289642999127228
 30
0.0
 11
-6.868492050938476
 21
13.29907028483137
 31
0.0
  0
LINE
  5
1FB
330
17
100
AcDbEntity
  8
Cycloidal_Ring_Gear
100
AcDbLine
 10
-6.868492050938476
 20
13.29907028483137
 30
0.0
 11
-6.7571634478607026
 21
13.309087373940422
 31
0.0
  0
LINE
  5
1FC
330
17
100
AcDbEntity
  8
Cycloidal_Ring_Gear
100
AcDbLine
 10
-6.7571634478607026
 20
13.309087373940422
 30
0.0
 11
-6.663160165941095
 21
13.319506290426233
 31
0.0
  0
LINE
  5
1FD
330
17
100
AcDbEntity
  8
Cycloidal_Ring_Gear
100
AcDbLine
 10
-6.663160165941095
 20
13.319506290426233
 30
0.0
 11
-6.586369546002355
 21
13.32995122727915
 31
0.0
  0
LINE
  5
1FE
330
17
100
AcDbEntity
  8
Cycloidal_Ring_Gear
100
AcDbLine
 10
-6.586369546002355
 20
13.32995122727915
 30
0.0
 11
-6.526331465431078
 21
13.339892167741318
 31
0.0
  0
LINE
  5
1FF
330
17
100
AcDbEntity
  8
Cycloidal_Ring_Gear
100
AcDbLine
 10
-6.526331465431078
 20
13.339892167741318
 30
0.0
 11
-6.4821543161074215
 21
13.348706014178736
 31
0.0
  0
LINE
  5
200
330
17
100
AcDbEntity
  8
Cycloidal_Ring_Gear
100
AcDbLine
 10
-6.4821543161074215
 20
13.348706014178736
 30
0.0
 11
-6.452445514090233
 21
13.355768579380426
 31
0.0
  0
LINE
  5
201
330
17
100
AcDbEntity
  8
Cycloidal_Ring_Gear
100
AcDbLine
 10
-6.452445514090233
 20
13.355768579380426
 30
0.0
 11
-6.435275525077082
 21
13.36057458433802
 31
0.0
  0
LINE
  5
202
330
17
100
AcDbEntity
  8
Cycloidal_Ring_Gear
100
AcDbLine
 10
-6.435275525077082
 20
13.36057458433802
 30
0.0
 11
-6.428195251441771
 21
13.362873675806844
 31
0.0
  0
LINE
  5
203
330
17
100
AcDbEntity
  8
Cycloidal_Ring_Gear
100
AcDbLine
 10
-6.428195251441771
 20
13.362873675806844
 30
0.0
 11
-6.428321116472975
 21
13.362800594972963
 31
0.0
  0
LINE
  5
204
330
17
100
AcDbEntity
  8
Cycloidal_Ring_Gear
100
AcDbLine
 10
-6.428321116472975
 20
13.362800594972963
 30
0.0
 11
-6.432489248896646
 21
13.360971074031685
 31
0.0
  0
LINE
  5
205
330
17
100
AcDbEntity
  8
Cycloidal_Ring_Gear
100
AcDbLine
 10
-6.432489248896646
 20
13.360971074031685
 30
0.0
 11
-6.437462252328858
 21
13.358516337157369
 31
0.0
  0
LINE
  5
206
330
17
100
AcDbEntity
  8
Cycloidal_Ring_Gear
100
AcDbLine
 10
-6.437462252328858
 20
13.358516337157369
 30
0.0
 11
-6.440155317573421
 21
13.35704042159466
 31
0.0
  0
LINE
  5
207
330
17
100
AcDbEntity
  8
Cycloidal_Ring_Gear
100
AcDbLine
 10
-6.440155317573421
 20
13.35704042159466
 30
0.0
 11
-6.437840336845513
 21
13.358503355656518
 31
0.0
  0
LINE
  5
208
330
17
100
AcDbEntity
  8
Cycloidal_Ring_Gear
100
AcDbLine
 10
-6.437840336845513
 20
13.358503355656518
 30
0.0
 11
-6.428291605136138
 21
13.36505252430083
 31
0.0
  0
LINE
  5
209
330
17
100
AcDbEntity
  8
Cycloidal_Ring_Gear
100
AcDbLine
 10
-6.428291605136138
 20
13.36505252430083
 30
0.0
 11
-6.409852941282649
 21
13.378836442736475
 31
0.0
  0
LINE
  5
20A
330
17
100
AcDbEntity
  8
Cycloidal_Ring_Gear
100
AcDbLine
 10
-6.409852941282649
 20
13.378836442736475
 30
0.0
 11
-6.381426640660891
 21
13.401835437029398
 31
0.0
  0
LINE
  5
20B
330
17
100
AcDbEntity
  8
Cycloidal_Ring_Gear
100
AcDbLine
 10
-6.381426640660891
 20
13.401835437029398
 30
0.0
 11
-6.342401500926983
 21
13.435733919214098
 31
0.0
  0
LINE
  5
20C
330
17
100
AcDbEntity
  8
Cycloidal_Ring_Gear
100
AcDbLine
 10
-6.342401500926983
 20
13.435733919214098
 30
0.0
 11
-6.292545365757323
 21
13.481844581222088
 31
0.0
  0
LINE
  5
20D
330
17
100
AcDbEntity
  8
Cycloidal_Ring_Gear
100
AcDbLine
 10
-6.292545365757323
 20
13.481844581222088
 30
0.0
 11
-6.231887056641538
 21
13.541081819798592
 31
0.0
  0
LINE
  5
20E
330
17
100
AcDbEntity
  8
Cycloidal_Ring_Gear
100
AcDbLine
 10
-6.231887056641538
 20
13.541081819798592
 30
0.0
 11
-6.160606336125033
 21
13.613973534127851
 31
0.0
  0
LINE
  5
20F
330
17
100
AcDbEntity
  8
Cycloidal_Ring_Gear
100
AcDbLine
 10
-6.160606336125033
 20
13.613973534127851
 30
0.0
 11
-6.078942537294333
 21
13.700697613583298
 31
0.0
  0
LINE
  5
210
330
17
100
AcDbEntity
  8
Cycloidal_Ring_Gear
100
AcDbLine
 10
-6.078942537294333
 20
13.700697613583298
 30
0.0
 11
-5.987125506933861
 21
13.801130522828409
 31
0.0
  0
LINE
  5
211
330
17
100
AcDbEntity
  8
Cycloidal_Ring_Gear
100
AcDbLine
 10
-5.987125506933861
 20
13.801130522828409
 30
0.0
 11
-5.885327769232635
 21
13.914898428582827
 31
0.0
  0
LINE
  5
212
330
17
100
AcDbEntity
  8
Cycloidal_Ring_Gear
100
AcDbLine
 10
-5.885327769232635
 20
13.914898428582827
 30
0.0
 11
-5.773634343192855
 21
14.041424715730878
 31
0.0
  0
LINE
  5
213
330
17
100
AcDbEntity
  8
Cycloidal_Ring_Gear
100
AcDbLine
 10
-5.773634343192855
 20
14.041424715730878
 30
0.0
 11
-5.652025874516511
 21
14.179970609680113
 31
0.0
  0
LINE
  5
214
330
17
100
AcDbEntity
  8
Cycloidal_Ring_Gear
100
AcDbLine
 10
-5.652025874516511
 20
14.179970609680113
 30
0.0
 11
-5.520371000062316
 21
14.329667636707487
 31
0.0
  0
LINE
  5
215
330
17
100
AcDbEntity
  8
Cycloidal_Ring_Gear
100
AcDbLine
 10
-5.520371000062316
 20
14.329667636707487
 30
0.0
 11
-5.37842461383565
 21
14.489541845536733
 31
0.0
  0
LINE
  5
216
330
17
100
AcDbEntity
  8
Cycloidal_Ring_Gear
100
AcDbLine
 10
-5.37842461383565
 20
14.489541845536733
 30
0.0
 11
-5.225829609747729
 21
14.658530263597973
 31
0.0
  0
LINE
  5
217
330
17
100
AcDbEntity
  8
Cycloidal_Ring_Gear
100
AcDbLine
 10
-5.225829609747729
 20
14.658530263597973
 30
0.0
 11
-5.062120570196269
 21
14.835490180180976
 31
0.0
  0
LINE
  5
218
330
17
100
AcDbEntity
  8
Cycloidal_Ring_Gear
100
AcDbLine
 10
-5.062120570196269
 20
14.835490180180976
 30
0.0
 11
-4.886728699169982
 21
15.019201719226857
 31
0.0
  0
LINE
  5
219
330
17
100
AcDbEntity
  8
Cycloidal_Ring_Gear
100
AcDbLine
 10
-4.886728699169982
 20
15.019201719226857
 30
0.0
 11
-4.698988078639466
 21
15.208363932621415
 31
0.0
  0
LINE
  5
21A
330
17
100
AcDbEntity
  8
Cycloidal_Ring_Gear
100
AcDbLine
 10
-4.698988078639466
 20
15.208363932621415
 30
0.0
 11
-4.498144100874186
 21
15.401584430176673
 31
0.0
  0
LINE
  5
21B
330
17
100
AcDbEntity
  8
Cycloidal_Ring_Gear
100
AcDbLine
 10
-4.498144100874186
 20
15.401584430176673
 30
0.0
 11
-4.28336574108177
 21
15.597362477767973
 31
0.0
  0
LINE
  5
21C
330
17
100
AcDbEntity
  8
Cycloidal_Ring_Gear
100
AcDbLine
 10
-4.28336574108177
 20
15.597362477767973
 30
0.0
 11
-4.0537642029527685
 21
15.794065665395205
 31
0.0
  0
LINE
  5
21D
330
17
100
AcDbEntity
  8
Cycloidal_Ring_Gear
100
AcDbLine
 10
-4.0537642029527685
 20
15.794065665395205
 30
0.0
 11
-3.808421355533171
 21
15.989900821784715
 31
0.0
  0
LINE
  5
21E
330
17
100
AcDbEntity
  8
Cycloidal_Ring_Gear
100
AcDbLine
 10
-3.808421355533171
 20
15.989900821784715
 30
0.0
 11
-3.546432144600942
 21
16.18288100093452
 31
0.0
  0
LINE
  5
21F
330
17
100
AcDbEntity
  8
Cycloidal_Ring_Gear
100
AcDbLine
 10
-3.546432144600942
 20
16.18288100093452
 30
0.0
 11
-3.26696551529562
 21
16.370792240999602
 31
0.0
  0
LINE
  5
220
330
17
100
AcDbEntity
  8
Cycloidal_Ring_Gear
100
AcDbLine
 10
-3.26696551529562
 20
16.370792240999602
 30
0.0
 11
-2.9693478412091543
 21
16.551166441940794
 31
0.0
  0
LINE
  5
221
330
17
100
AcDbEntity
  8
Cycloidal_Ring_Gear
100
AcDbLine
 10
-2.9693478412091543
 20
16.551166441940794
 30
0.0
 11
-2.6531707520250816
 21
16.721269902783057
 31
0.0
  0
LINE
  5
222
330
17
100
AcDbEntity
  8
Cycloidal_Ring_Gear
100
AcDbLine
 10
-2.6531707520250816
 20
16.721269902783057
 30
0.0
 11
-2.3184208813283282
 21
16.878120097098176
 31
0.0
  0
LINE
  5
223
330
17
100
AcDbEntity
  8
Cycloidal_Ring_Gear
100
AcDbLine
 10
-2.3184208813283282
 20
16.878120097098176
 30
0.0
 11
-1.9656220393881507
 21
17.018544780289965
 31
0.0
  0
LINE
  5
224
330
17
100
AcDbEntity
  8
Cycloidal_Ring_Gear
100
AcDbLine
 10
-1.9656220393881507
 20
17.018544780289965
 30
0.0
 11
-1.5959712132116681
 21
17.139295552625136
 31
0.0
  0
LINE
  5
225
330
17
100
AcDbEntity
  8
Cycloidal_Ring_Gear
100
AcDbLine
 10
-1.5959712132116681
 20
17.139295552625136
 30
0.0
 11
-1.2114407775025042
 21
17.237220587971954
 31
0.0
  0
LINE
  5
226
330
17
100
AcDbEntity
  8
Cycloidal_Ring_Gear
100
AcDbLine
 10
-1.2114407775025042
 20
17.237220587971954
 30
0.0
 11
-0.8148143354765938
 21
17.309487704291
 31
0.0
  0
LINE
  5
227
330
17
100
AcDbEntity
  8
Cycloidal_Ring_Gear
100
AcDbLine
 10
-0.8148143354765938
 20
17.309487704291
 30
0.0
 11
-0.40962743857076256
 21
17.353831492758488
 31
0.0
  0
LINE
  5
228
330
17
100
AcDbEntity
  8
Cycloidal_Ring_Gear
100
AcDbLine
 10
-0.40962743857076256
 20
17.353831492758488
 30
0.0
 11
0.0
 21
17.368782623672967
 31
0.0
  0
CIRCLE
  5
229
330
17
100
AcDbEntity
  8
Rollers
100
AcDbCircle
 10
0.0
 20
14.193782623672966
 30
0.0
 40
3.175
  0
CIRCLE
  5
22A
330
17
100
AcDbEntity
  8
Rollers
100
AcDbCircle
 10
11.701646255579634
 20
6.75594861562068
 30
0.0
 40
3.175
  0
CIRCLE
  5
22B
330
17
100
AcDbEntity
  8
Rollers
100
AcDbCircle
 10
10.6017939927734
 20
-6.1209486156206765
 30
0.0
 40
3.175
  0
CIRCLE
  5
22C
330
17
100
AcDbEntity
  8
Rollers
100
AcDbCircle
 10
1.4271767588040143e-15
 20
-11.653782623672967
 30
0.0
 40
3.175
  0
CIRCLE
  5
22D
330
17
100
AcDbEntity
  8
Rollers
100
AcDbCircle
 10
-10.601793992773393
 20
-6.120948615620682
 30
0.0
 40
3.175
  0
CIRCLE
  5
22E
330
17
100
AcDbEntity
  8
Rollers
100
AcDbCircle
 10
-11.701646255579632
 20
6.755948615620666
 30
0.0
 40
3.175
  0
CIRCLE
  5
22F
330
17
100
AcDbEntity
  8
Wave_Generator
100
AcDbCircle
 10
0.0
 20
1.27
 30
0.0
 40
9.748782623672968
  0
CIRCLE
  5
230
330
17
100
AcDbEntity
  8
Wave_Generator_Bearing
100
AcDbCircle
 10
0.0
 20
1.27
 30
0.0
 40
7.5
  0
CIRCLE
  5
231
330
17
100
AcDbEntity
  8
Wave_Generator_Bearing
100
AcDbCircle
 10
0.0
 20
1.27
 30
0.0
 40
12.0
  0
CIRCLE
  5
232
330
17
100
AcDbEntity
  8
Separator
100
AcDbCircle
 10
0.0
 20
0.0
 30
0.0
 40
14.320782623672967
  0
CIRCLE
  5
233
330
17
100
AcDbEntity
  8
Separator
100
AcDbCircle
 10
0.0
 20
0.0
 30
0.0
 40
11.526782623672966
  0
CIRCLE
  5
234
330
17
100
AcDbEntity
  8
Input_Shaft
100
AcDbCircle
 10
0.0
 20
0.0
 30
0.0
 40
2.5
  0
ENDSEC
  0
SECTION
  2
OBJECTS
  0
DICTIONARY
  5
A
330
0
100
AcDbDictionary
280
0
281
1
  3
ACAD_COLOR
350
B
  3
ACAD_GROUP
350
C
  3
ACAD_LAYOUT
350
D
  3
ACAD_MATERIAL
350
E
  3
ACAD_MLEADERSTYLE
350
F
  3
ACAD_MLINESTYLE
350
10
  3
ACAD_PLOTSETTINGS
350
11
  3
ACAD_PLOTSTYLENAME
350
12
  3
ACAD_SCALELIST
350
14
  3
ACAD_TABLESTYLE
350
15
  3
ACAD_VISUALSTYLE
350
16
  3
EZDXF_META
350
2D
  0
DICTIONARY
  5
B
330
A
100
AcDbDictionary
280
0
281
1
  0
DICTIONARY
  5
C
330
A
100
AcDbDictionary
280
0
281
1
  0
DICTIONARY
  5
D
330
A
100
AcDbDictionary
280
0
281
1
  3
Model
350
1A
  3
Layout1
350
1E
  0
DICTIONARY
  5
E
330
A
100
AcDbDictionary
280
0
281
1
  3
ByBlock
350
1F
  3
ByLayer
350
20
  3
Global
350
21
  0
DICTIONARY
  5
F
330
A
100
AcDbDictionary
280
0
281
1
  3
Standard
350
2C
  0
DICTIONARY
  5
10
330
A
100
AcDbDictionary
280
0
281
1
  3
Standard
350
22
  0
DICTIONARY
  5
11
330
A
100
AcDbDictionary
280
0
281
1
  0
ACDBDICTIONARYWDFLT
  5
12
330
A
100
AcDbDictionary
280
0
281
1
  3
Normal
350
13
100
AcDbDictionaryWithDefault
340
13
  0
ACDBPLACEHOLDER
  5
13
330
12
  0
DICTIONARY
  5
14
330
A
100
AcDbDictionary
280
0
281
1
  0
DICTIONARY
  5
15
330
A
100
AcDbDictionary
280
0
281
1
  0
DICTIONARY
  5
16
330
A
100
AcDbDictionary
280
0
281
1
  0
LAYOUT
  5
1A
330
D
100
AcDbPlotSettings
  1

  4
A3
  6

 40
7.5
 41
20.0
 42
7.5
 43
20.0
 44
420.0
 45
297.0
 46
0.0
 47
0.0
 48
0.0
 49
0.0
140
0.0
141
0.0
142
1.0
143
1.0
 70
1024
 72
1
 73
0
 74
5
  7

 75
16
 76
0
 77
2
 78
300
147
1.0
148
0.0
149
0.0
100
AcDbLayout
  1
Model
 70
1
 71
0
 10
0.0
 20
0.0
 11
420.0
 21
297.0
 12
0.0
 22
0.0
 32
0.0
 14
1e+20
 24
1e+20
 34
1e+20
 15
-1e+20
 25
-1e+20
 35
-1e+20
146
0.0
 13
0.0
 23
0.0
 33
0.0
 16
1.0
 26
0.0
 36
0.0
 17
0.0
 27
1.0
 37
0.0
 76
1
330
17
  0
LAYOUT
  5
1E
330
D
100
AcDbPlotSettings
  1

  4
A3
  6

 40
7.5
 41
20.0
 42
7.5
 43
20.0
 44
420.0
 45
297.0
 46
0.0
 47
0.0
 48
0.0
 49
0.0
140
0.0
141
0.0
142
1.0
143
1.0
 70
0
 72
1
 73
0
 74
5
  7

 75
16
 76
0
 77
2
 78
300
147
1.0
148
0.0
149
0.0
100
AcDbLayout
  1
Layout1
 70
1
 71
1
 10
0.0
 20
0.0
 11
420.0
 21
297.0
 12
0.0
 22
0.0
 32
0.0
 14
1e+20
 24
1e+20
 34
1e+20
 15
-1e+20
 25
-1e+20
 35
-1e+20
146
0.0
 13
0.0
 23
0.0
 33
0.0
 16
1.0
 26
0.0
 36
0.0
 17
0.0
 27
1.0
 37
0.0
 76
1
330
1B
  0
MATERIAL
  5
1F
102
{ACAD_REACTORS
330
E
102
}
330
E
100
AcDbMaterial
  1
ByBlock
  2

 70
0
 40
1.0
 71
1
 41
1.0
 91
-1023410177
 42
1.0
 72
1
  3

 73
1
 74
1
 75
1
 44
0.5
 73
0
 45
1.0
 46
1.0
 77
1
  4

 78
1
 79
1
170
1
 48
1.0
171
1
  6

172
1
173
1
174
1
140
1.0
141
1.0
175
1
  7

176
1
177
1
178
1
143
1.0
179
1
  8

270
1
271
1
272
1
145
1.0
146
1.0
273
1
  9

274
1
275
1
276
1
 42
1.0
 72
1
  3

 73
1
 74
1
 75
1
 94
63
  0
MATERIAL
  5
20
102
{ACAD_REACTORS
330
E
102
}
330
E
100
AcDbMaterial
  1
ByLayer
  2

 70
0
 40
1.0
 71
1
 41
1.0
 91
-1023410177
 42
1.0
 72
1
  3

 73
1
 74
1
 75
1
 44
0.5
 73
0
 45
1.0
 46
1.0
 77
1
  4

 78
1
 79
1
170
1
 48
1.0
171
1
  6

172
1
173
1
174
1
140
1.0
141
1.0
175
1
  7

176
1
177
1
178
1
143
1.0
179
1
  8

270
1
271
1
272
1
145
1.0
146
1.0
273
1
  9

274
1
275
1
276
1
 42
1.0
 72
1
  3

 73
1
 74
1
 75
1
 94
63
  0
MATERIAL
  5
21
102
{ACAD_REACTORS
330
E
102
}
330
E
100
AcDbMaterial
  1
Global
  2

 70
0
 40
1.0
 71
1
 41
1.0
 91
-1023410177
 42
1.0
 72
1
  3

 73
1
 74
1
 75
1
 44
0.5
 73
0
 45
1.0
 46
1.0
 77
1
  4

 78
1
 79
1
170
1
 48
1.0
171
1
  6

172
1
173
1
174
1
140
1.0
141
1.0
175
1
  7

176
1
177
1
178
1
143
1.0
179
1
  8

270
1
271
1
272
1
145
1.0
146
1.0
273
1
  9

274
1
275
1
276
1
 42
1.0
 72
1
  3

 73
1
 74
1
 75
1
 94
63
  0
MLINESTYLE
  5
22
102
{ACAD_REACTORS
330
10
102
}
330
10
100
AcDbMlineStyle
  2
Standard
 70
0
  3

 62
256
 51
90.0
 52
90.0
 71
2
 49
0.5
 62
256
  6
BYLAYER
 49
-0.5
 62
256
  6
BYLAYER
  0
MLEADERSTYLE
  5
2C
102
{ACAD_REACTORS
330
F
102
}
330
F
100
AcDbMLeaderStyle
179
2
170
2
171
1
172
0
 90
2
 40
0.0
 41
0.0
173
1
 91
-1056964608
 92
-2
290
1
 42
2.0
291
1
 43
8.0
  3
Standard
 44
4.0
300

342
29
174
1
175
1
176
0
178
1
 93
-1056964608
 45
4.0
292
0
297
0
 46
4.0
 94
-1056964608
 47
1.0
 49
1.0
140
1.0
294
1
141
0.0
177
0
142
1.0
295
0
296
0
143
3.75
271
0
272
9
273
9
  0
DICTIONARY
  5
2D
330
A
100
AcDbDictionary
281
1
  3
CREATED_BY_EZDXF
350
2E
  3
WRITTEN_BY_EZDXF
350
237
  0
DICTIONARYVAR
  5
2E
330
2D
100
DictionaryVariables
280
0
  1
1.3.4 @ 2024-11-03T21:03:51.313506+00:00
  0
DICTIONARYVAR
  5
237
330
2D
100
DictionaryVariables
280
0
  1
1.3.4 @ 2024-11-03T21:03:51.327036+00:00
  0
ENDSEC
  0
EOF
