  0
SECTION
  2
HEADER
  9
$ACADVER
  1
AC1027
  9
$ACADMAINTVER
 70
105
  9
$DWGCODEPAGE
  3
ANSI_1252
  9
$LASTSAVEDBY
  1
ezdxf
  9
$REQUIREDVERSIONS
160
0
  9
$INSBASE
 10
0.0
 20
0.0
 30
0.0
  9
$EXTMIN
 10
1e+20
 20
1e+20
 30
1e+20
  9
$EXTMAX
 10
-1e+20
 20
-1e+20
 30
-1e+20
  9
$LIMMIN
 10
0.0
 20
0.0
  9
$LIMMAX
 10
420.0
 20
297.0
  9
$ORTHOMODE
 70
0
  9
$REGENMODE
 70
1
  9
$FILLMODE
 70
1
  9
$QTEXTMODE
 70
0
  9
$MIRRTEXT
 70
1
  9
$LTSCALE
 40
1.0
  9
$ATTMODE
 70
1
  9
$TEXTSIZE
 40
2.5
  9
$TRACEWID
 40
1.0
  9
$TEXTSTYLE
  7
Standard
  9
$CLAYER
  8
0
  9
$CELTYPE
  6
ByLayer
  9
$CECOLOR
 62
256
  9
$CELTSCALE
 40
1.0
  9
$DISPSILH
 70
0
  9
$DIMSCALE
 40
1.0
  9
$DIMASZ
 40
2.5
  9
$DIMEXO
 40
0.625
  9
$DIMDLI
 40
3.75
  9
$DIMRND
 40
0.0
  9
$DIMDLE
 40
0.0
  9
$DIMEXE
 40
1.25
  9
$DIMTP
 40
0.0
  9
$DIMTM
 40
0.0
  9
$DIMTXT
 40
2.5
  9
$DIMCEN
 40
2.5
  9
$DIMTSZ
 40
0.0
  9
$DIMTOL
 70
0
  9
$DIMLIM
 70
0
  9
$DIMTIH
 70
0
  9
$DIMTOH
 70
0
  9
$DIMSE1
 70
0
  9
$DIMSE2
 70
0
  9
$DIMTAD
 70
1
  9
$DIMZIN
 70
8
  9
$DIMBLK
  1

  9
$DIMASO
 70
1
  9
$DIMSHO
 70
1
  9
$DIMPOST
  1

  9
$DIMAPOST
  1

  9
$DIMALT
 70
0
  9
$DIMALTD
 70
3
  9
$DIMALTF
 40
0.03937007874
  9
$DIMLFAC
 40
1.0
  9
$DIMTOFL
 70
1
  9
$DIMTVP
 40
0.0
  9
$DIMTIX
 70
0
  9
$DIMSOXD
 70
0
  9
$DIMSAH
 70
0
  9
$DIMBLK1
  1

  9
$DIMBLK2
  1

  9
$DIMSTYLE
  2
ISO-25
  9
$DIMCLRD
 70
0
  9
$DIMCLRE
 70
0
  9
$DIMCLRT
 70
0
  9
$DIMTFAC
 40
1.0
  9
$DIMGAP
 40
0.625
  9
$DIMJUST
 70
0
  9
$DIMSD1
 70
0
  9
$DIMSD2
 70
0
  9
$DIMTOLJ
 70
0
  9
$DIMTZIN
 70
8
  9
$DIMALTZ
 70
0
  9
$DIMALTTZ
 70
0
  9
$DIMUPT
 70
0
  9
$DIMDEC
 70
2
  9
$DIMTDEC
 70
2
  9
$DIMALTU
 70
2
  9
$DIMALTTD
 70
3
  9
$DIMTXSTY
  7
Standard
  9
$DIMAUNIT
 70
0
  9
$DIMADEC
 70
0
  9
$DIMALTRND
 40
0.0
  9
$DIMAZIN
 70
0
  9
$DIMDSEP
 70
44
  9
$DIMATFIT
 70
3
  9
$DIMFRAC
 70
0
  9
$DIMLDRBLK
  1

  9
$DIMLUNIT
 70
2
  9
$DIMLWD
 70
-2
  9
$DIMLWE
 70
-2
  9
$DIMTMOVE
 70
0
  9
$DIMFXL
 40
1.0
  9
$DIMFXLON
 70
0
  9
$DIMJOGANG
 40
0.785398163397
  9
$DIMTFILL
 70
0
  9
$DIMTFILLCLR
 70
0
  9
$DIMARCSYM
 70
0
  9
$DIMLTYPE
  6

  9
$DIMLTEX1
  6

  9
$DIMLTEX2
  6

  9
$DIMTXTDIRECTION
 70
0
  9
$LUNITS
 70
2
  9
$LUPREC
 70
4
  9
$SKETCHINC
 40
1.0
  9
$FILLETRAD
 40
10.0
  9
$AUNITS
 70
0
  9
$AUPREC
 70
2
  9
$MENU
  1
.
  9
$ELEVATION
 40
0.0
  9
$PELEVATION
 40
0.0
  9
$THICKNESS
 40
0.0
  9
$LIMCHECK
 70
0
  9
$CHAMFERA
 40
0.0
  9
$CHAMFERB
 40
0.0
  9
$CHAMFERC
 40
0.0
  9
$CHAMFERD
 40
0.0
  9
$SKPOLY
 70
0
  9
$TDCREATE
 40
2460634.711099537
  9
$TDUCREATE
 40
2458532.153996898
  9
$TDUPDATE
 40
2460634.711099537
  9
$TDUUPDATE
 40
2458532.1544311
  9
$TDINDWG
 40
0.0
  9
$TDUSRTIMER
 40
0.0
  9
$USRTIMER
 70
1
  9
$ANGBASE
 50
0.0
  9
$ANGDIR
 70
0
  9
$PDMODE
 70
0
  9
$PDSIZE
 40
0.0
  9
$PLINEWID
 40
0.0
  9
$SPLFRAME
 70
0
  9
$SPLINETYPE
 70
6
  9
$SPLINESEGS
 70
8
  9
$HANDSEED
  5
23A
  9
$SURFTAB1
 70
6
  9
$SURFTAB2
 70
6
  9
$SURFTYPE
 70
6
  9
$SURFU
 70
6
  9
$SURFV
 70
6
  9
$UCSBASE
  2

  9
$UCSNAME
  2

  9
$UCSORG
 10
0.0
 20
0.0
 30
0.0
  9
$UCSXDIR
 10
1.0
 20
0.0
 30
0.0
  9
$UCSYDIR
 10
0.0
 20
1.0
 30
0.0
  9
$UCSORTHOREF
  2

  9
$UCSORTHOVIEW
 70
0
  9
$UCSORGTOP
 10
0.0
 20
0.0
 30
0.0
  9
$UCSORGBOTTOM
 10
0.0
 20
0.0
 30
0.0
  9
$UCSORGLEFT
 10
0.0
 20
0.0
 30
0.0
  9
$UCSORGRIGHT
 10
0.0
 20
0.0
 30
0.0
  9
$UCSORGFRONT
 10
0.0
 20
0.0
 30
0.0
  9
$UCSORGBACK
 10
0.0
 20
0.0
 30
0.0
  9
$PUCSBASE
  2

  9
$PUCSNAME
  2

  9
$PUCSORG
 10
0.0
 20
0.0
 30
0.0
  9
$PUCSXDIR
 10
1.0
 20
0.0
 30
0.0
  9
$PUCSYDIR
 10
0.0
 20
1.0
 30
0.0
  9
$PUCSORTHOREF
  2

  9
$PUCSORTHOVIEW
 70
0
  9
$PUCSORGTOP
 10
0.0
 20
0.0
 30
0.0
  9
$PUCSORGBOTTOM
 10
0.0
 20
0.0
 30
0.0
  9
$PUCSORGLEFT
 10
0.0
 20
0.0
 30
0.0
  9
$PUCSORGRIGHT
 10
0.0
 20
0.0
 30
0.0
  9
$PUCSORGFRONT
 10
0.0
 20
0.0
 30
0.0
  9
$PUCSORGBACK
 10
0.0
 20
0.0
 30
0.0
  9
$USERI1
 70
0
  9
$USERI2
 70
0
  9
$USERI3
 70
0
  9
$USERI4
 70
0
  9
$USERI5
 70
0
  9
$USERR1
 40
0.0
  9
$USERR2
 40
0.0
  9
$USERR3
 40
0.0
  9
$USERR4
 40
0.0
  9
$USERR5
 40
0.0
  9
$WORLDVIEW
 70
1
  9
$SHADEDGE
 70
3
  9
$SHADEDIF
 70
70
  9
$TILEMODE
 70
1
  9
$MAXACTVP
 70
64
  9
$PINSBASE
 10
0.0
 20
0.0
 30
0.0
  9
$PLIMCHECK
 70
0
  9
$PEXTMIN
 10
1e+20
 20
1e+20
 30
1e+20
  9
$PEXTMAX
 10
-1e+20
 20
-1e+20
 30
-1e+20
  9
$PLIMMIN
 10
0.0
 20
0.0
  9
$PLIMMAX
 10
420.0
 20
297.0
  9
$UNITMODE
 70
0
  9
$VISRETAIN
 70
1
  9
$PLINEGEN
 70
0
  9
$PSLTSCALE
 70
1
  9
$TREEDEPTH
 70
3020
  9
$CMLSTYLE
  2
Standard
  9
$CMLJUST
 70
0
  9
$CMLSCALE
 40
20.0
  9
$PROXYGRAPHICS
 70
1
  9
$MEASUREMENT
 70
1
  9
$CELWEIGHT
370
-1
  9
$ENDCAPS
280
0
  9
$JOINSTYLE
280
0
  9
$LWDISPLAY
290
0
  9
$INSUNITS
 70
6
  9
$HYPERLINKBASE
  1

  9
$STYLESHEET
  1

  9
$XEDIT
290
1
  9
$CEPSNTYPE
380
0
  9
$PSTYLEMODE
290
1
  9
$FINGERPRINTGUID
  2
{01B0FC88-8BEA-4022-9870-7CC38CE33E74}
  9
$VERSIONGUID
  2
{EC8D91DD-AA9B-48AC-932B-39B9FC3ABF97}
  9
$EXTNAMES
290
1
  9
$PSVPSCALE
 40
0.0
  9
$OLESTARTUP
290
0
  9
$SORTENTS
280
127
  9
$INDEXCTL
280
0
  9
$HIDETEXT
280
1
  9
$XCLIPFRAME
280
1
  9
$HALOGAP
280
0
  9
$OBSCOLOR
 70
257
  9
$OBSLTYPE
280
0
  9
$INTERSECTIONDISPLAY
280
0
  9
$INTERSECTIONCOLOR
 70
257
  9
$DIMASSOC
280
2
  9
$PROJECTNAME
  1

  9
$CAMERADISPLAY
290
0
  9
$LENSLENGTH
 40
50.0
  9
$CAMERAHEIGHT
 40
0.0
  9
$STEPSPERSEC
 40
24.0
  9
$STEPSIZE
 40
100.0
  9
$3DDWFPREC
 40
2.0
  9
$PSOLWIDTH
 40
0.005
  9
$PSOLHEIGHT
 40
0.08
  9
$LOFTANG1
 40
1.570796326795
  9
$LOFTANG2
 40
1.570796326795
  9
$LOFTMAG1
 40
0.0
  9
$LOFTMAG2
 40
0.0
  9
$LOFTPARAM
 70
7
  9
$LOFTNORMALS
280
1
  9
$LATITUDE
 40
37.795
  9
$LONGITUDE
 40
-122.394
  9
$NORTHDIRECTION
 40
0.0
  9
$TIMEZONE
 70
-8000
  9
$LIGHTGLYPHDISPLAY
280
1
  9
$TILEMODELIGHTSYNCH
280
1
  9
$CMATERIAL
347
20
  9
$SOLIDHIST
280
0
  9
$SHOWHIST
280
1
  9
$DWFFRAME
280
2
  9
$DGNFRAME
280
2
  9
$REALWORLDSCALE
290
1
  9
$INTERFERECOLOR
 62
256
  9
$CSHADOW
280
0
  9
$SHADOWPLANELOCATION
 40
0.0
  0
ENDSEC
  0
SECTION
  2
CLASSES
  0
CLASS
  1
ACDBDICTIONARYWDFLT
  2
AcDbDictionaryWithDefault
  3
ObjectDBX Classes
 90
0
 91
0
280
0
281
0
  0
CLASS
  1
SUN
  2
AcDbSun
  3
SCENEOE
 90
1153
 91
0
280
0
281
0
  0
CLASS
  1
VISUALSTYLE
  2
AcDbVisualStyle
  3
ObjectDBX Classes
 90
4095
 91
0
280
0
281
0
  0
CLASS
  1
MATERIAL
  2
AcDbMaterial
  3
ObjectDBX Classes
 90
1153
 91
0
280
0
281
0
  0
CLASS
  1
SCALE
  2
AcDbScale
  3
ObjectDBX Classes
 90
1153
 91
0
280
0
281
0
  0
CLASS
  1
TABLESTYLE
  2
AcDbTableStyle
  3
ObjectDBX Classes
 90
4095
 91
0
280
0
281
0
  0
CLASS
  1
MLEADERSTYLE
  2
AcDbMLeaderStyle
  3
ACDB_MLEADERSTYLE_CLASS
 90
4095
 91
0
280
0
281
0
  0
CLASS
  1
DICTIONARYVAR
  2
AcDbDictionaryVar
  3
ObjectDBX Classes
 90
0
 91
0
280
0
281
0
  0
CLASS
  1
CELLSTYLEMAP
  2
AcDbCellStyleMap
  3
ObjectDBX Classes
 90
1152
 91
0
280
0
281
0
  0
CLASS
  1
MENTALRAYRENDERSETTINGS
  2
AcDbMentalRayRenderSettings
  3
SCENEOE
 90
1024
 91
0
280
0
281
0
  0
CLASS
  1
ACDBDETAILVIEWSTYLE
  2
AcDbDetailViewStyle
  3
ObjectDBX Classes
 90
1025
 91
0
280
0
281
0
  0
CLASS
  1
ACDBSECTIONVIEWSTYLE
  2
AcDbSectionViewStyle
  3
ObjectDBX Classes
 90
1025
 91
0
280
0
281
0
  0
CLASS
  1
RASTERVARIABLES
  2
AcDbRasterVariables
  3
ISM
 90
0
 91
0
280
0
281
0
  0
CLASS
  1
LAYOUT
  2
AcDbLayout
  3
ObjectDBX Classes
 90
0
 91
0
280
0
281
0
  0
CLASS
  1
ACDBPLACEHOLDER
  2
AcDbPlaceHolder
  3
ObjectDBX Classes
 90
0
 91
0
280
0
281
0
  0
ENDSEC
  0
SECTION
  2
TABLES
  0
TABLE
  2
VPORT
  5
8
330
0
100
AcDbSymbolTable
 70
1
  0
VPORT
  5
23
330
8
100
AcDbSymbolTableRecord
100
AcDbViewportTableRecord
  2
*Active
 70
0
 10
0.0
 20
0.0
 11
1.0
 21
1.0
 12
0.0
 22
0.0
 13
0.0
 23
0.0
 14
0.5
 24
0.5
 15
0.5
 25
0.5
 16
0.0
 26
0.0
 36
1.0
 17
0.0
 27
0.0
 37
0.0
 40
1000.0
 41
1.34
 42
50.0
 43
0.0
 44
0.0
 50
0.0
 51
0.0
 71
0
 72
1000
 73
1
 74
3
 75
0
 76
0
 77
0
 78
0
281
0
 65
0
146
0.0
  0
ENDTAB
  0
TABLE
  2
LTYPE
  5
2
330
0
100
AcDbSymbolTable
 70
3
  0
LTYPE
  5
24
330
2
100
AcDbSymbolTableRecord
100
AcDbLinetypeTableRecord
  2
ByBlock
 70
0
  3

 72
65
 73
0
 40
0.0
  0
LTYPE
  5
25
330
2
100
AcDbSymbolTableRecord
100
AcDbLinetypeTableRecord
  2
ByLayer
 70
0
  3

 72
65
 73
0
 40
0.0
  0
LTYPE
  5
26
330
2
100
AcDbSymbolTableRecord
100
AcDbLinetypeTableRecord
  2
Continuous
 70
0
  3

 72
65
 73
0
 40
0.0
  0
ENDTAB
  0
TABLE
  2
LAYER
  5
1
330
0
100
AcDbSymbolTable
 70
8
  0
LAYER
  5
27
330
1
100
AcDbSymbolTableRecord
100
AcDbLayerTableRecord
  2
0
 70
0
 62
7
  6
Continuous
370
-3
390
13
347
21
  0
LAYER
  5
28
330
1
100
AcDbSymbolTableRecord
100
AcDbLayerTableRecord
  2
Defpoints
 70
0
 62
7
  6
Continuous
290
0
370
-3
390
13
347
21
  0
LAYER
  5
2F
330
1
100
AcDbSymbolTableRecord
100
AcDbLayerTableRecord
  2
Cycloidal_Ring_Gear
 70
0
 62
1
  6
Continuous
370
-3
390
13
347
21
  0
LAYER
  5
30
330
1
100
AcDbSymbolTableRecord
100
AcDbLayerTableRecord
  2
Rollers
 70
0
 62
3
  6
Continuous
370
-3
390
13
347
21
  0
LAYER
  5
31
330
1
100
AcDbSymbolTableRecord
100
AcDbLayerTableRecord
  2
Wave_Generator
 70
0
 62
4
  6
Continuous
370
-3
390
13
347
21
  0
LAYER
  5
32
330
1
100
AcDbSymbolTableRecord
100
AcDbLayerTableRecord
  2
Wave_Generator_Bearing
 70
0
 62
6
  6
Continuous
370
-3
390
13
347
21
  0
LAYER
  5
33
330
1
100
AcDbSymbolTableRecord
100
AcDbLayerTableRecord
  2
Separator
 70
0
 62
2
  6
Continuous
370
-3
390
13
347
21
  0
LAYER
  5
34
330
1
100
AcDbSymbolTableRecord
100
AcDbLayerTableRecord
  2
Input_Shaft
 70
0
 62
5
  6
Continuous
370
-3
390
13
347
21
  0
ENDTAB
  0
TABLE
  2
STYLE
  5
5
330
0
100
AcDbSymbolTable
 70
1
  0
STYLE
  5
29
330
5
100
AcDbSymbolTableRecord
100
AcDbTextStyleTableRecord
  2
Standard
 70
0
 40
0.0
 41
1.0
 50
0.0
 71
0
 42
2.5
  3
txt
  4

  0
ENDTAB
  0
TABLE
  2
VIEW
  5
7
330
0
100
AcDbSymbolTable
 70
0
  0
ENDTAB
  0
TABLE
  2
UCS
  5
6
330
0
100
AcDbSymbolTable
 70
0
  0
ENDTAB
  0
TABLE
  2
APPID
  5
3
330
0
100
AcDbSymbolTable
 70
3
  0
APPID
  5
2A
330
3
100
AcDbSymbolTableRecord
100
AcDbRegAppTableRecord
  2
ACAD
 70
0
  0
APPID
  5
237
330
3
100
AcDbSymbolTableRecord
100
AcDbRegAppTableRecord
  2
HATCHBACKGROUNDCOLOR
 70
0
  0
APPID
  5
238
330
3
100
AcDbSymbolTableRecord
100
AcDbRegAppTableRecord
  2
EZDXF
 70
0
  0
ENDTAB
  0
TABLE
  2
DIMSTYLE
  5
4
330
0
100
AcDbSymbolTable
 70
1
100
AcDbDimStyleTable
  0
DIMSTYLE
105
2B
330
4
100
AcDbSymbolTableRecord
100
AcDbDimStyleTableRecord
  2
Standard
 70
0
 40
1.0
 41
2.5
 42
0.625
 43
3.75
 44
1.25
 45
0.0
 46
0.0
 47
0.0
 48
0.0
 49
2.5
140
2.5
141
2.5
142
0.0
143
0.03937007874
144
1.0
145
0.0
146
1.0
147
0.625
148
0.0
 69
0
 70
0
 71
0
 72
0
 73
0
 74
0
 75
0
 76
0
 77
1
 78
8
 79
3
170
0
171
3
172
1
173
0
174
0
175
0
176
0
177
0
178
0
179
2
271
2
272
2
273
2
274
3
275
0
276
0
277
2
278
44
279
0
280
0
281
0
282
0
283
0
284
8
285
0
286
0
288
0
289
3
290
0
371
-2
372
-2
  0
ENDTAB
  0
TABLE
  2
BLOCK_RECORD
  5
9
330
0
100
AcDbSymbolTable
 70
2
  0
BLOCK_RECORD
  5
17
330
9
100
AcDbSymbolTableRecord
100
AcDbBlockTableRecord
  2
*Model_Space
340
1A
 70
0
280
1
281
0
  0
BLOCK_RECORD
  5
1B
330
9
100
AcDbSymbolTableRecord
100
AcDbBlockTableRecord
  2
*Paper_Space
340
1E
 70
0
280
1
281
0
  0
ENDTAB
  0
ENDSEC
  0
SECTION
  2
BLOCKS
  0
BLOCK
  5
18
330
17
100
AcDbEntity
  8
0
100
AcDbBlockBegin
  2
*Model_Space
 70
0
 10
0.0
 20
0.0
 30
0.0
  3
*Model_Space
  1

  0
ENDBLK
  5
19
330
17
100
AcDbEntity
  8
0
100
AcDbBlockEnd
  0
BLOCK
  5
1C
330
1B
100
AcDbEntity
  8
0
100
AcDbBlockBegin
  2
*Paper_Space
 70
0
 10
0.0
 20
0.0
 30
0.0
  3
*Paper_Space
  1

  0
ENDBLK
  5
1D
330
1B
100
AcDbEntity
  8
0
100
AcDbBlockEnd
  0
ENDSEC
  0
SECTION
  2
ENTITIES
  0
LINE
  5
35
330
17
100
AcDbEntity
  8
Cycloidal_Ring_Gear
100
AcDbLine
 10
0.0
 20
23.913293881255775
 30
0.0
 11
0.5612740579279152
 21
23.888778081269063
 31
0.0
  0
LINE
  5
36
330
17
100
AcDbEntity
  8
Cycloidal_Ring_Gear
100
AcDbLine
 10
0.5612740579279152
 20
23.888778081269063
 30
0.0
 11
1.1134609420641794
 21
23.816542252097012
 31
0.0
  0
LINE
  5
37
330
17
100
AcDbEntity
  8
Cycloidal_Ring_Gear
100
AcDbLine
 10
1.1134609420641794
 20
23.816542252097012
 30
0.0
 11
1.6484892667621474
 21
23.700285869291214
 31
0.0
  0
LINE
  5
38
330
17
100
AcDbEntity
  8
Cycloidal_Ring_Gear
100
AcDbLine
 10
1.6484892667621474
 20
23.700285869291214
 30
0.0
 11
2.160045375653905
 21
23.54547931134098
 31
0.0
  0
LINE
  5
39
330
17
100
AcDbEntity
  8
Cycloidal_Ring_Gear
100
AcDbLine
 10
2.160045375653905
 20
23.54547931134098
 30
0.0
 11
2.643893307677821
 21
23.358578780298707
 31
0.0
  0
LINE
  5
3A
330
17
100
AcDbEntity
  8
Cycloidal_Ring_Gear
100
AcDbLine
 10
2.643893307677821
 20
23.358578780298707
 30
0.0
 11
3.0977916852796286
 21
23.146297508074312
 31
0.0
  0
LINE
  5
3B
330
17
100
AcDbEntity
  8
Cycloidal_Ring_Gear
100
AcDbLine
 10
3.0977916852796286
 20
23.146297508074312
 30
0.0
 11
3.5211413605421598
 21
22.915075758315332
 31
0.0
  0
LINE
  5
3C
330
17
100
AcDbEntity
  8
Cycloidal_Ring_Gear
100
AcDbLine
 10
3.5211413605421598
 20
22.915075758315332
 30
0.0
 11
3.9145247624850317
 21
22.670786053894403
 31
0.0
  0
LINE
  5
3D
330
17
100
AcDbEntity
  8
Cycloidal_Ring_Gear
100
AcDbLine
 10
3.9145247624850317
 20
22.670786053894403
 30
0.0
 11
4.2792607611086435
 21
22.418634476376937
 31
0.0
  0
LINE
  5
3E
330
17
100
AcDbEntity
  8
Cycloidal_Ring_Gear
100
AcDbLine
 10
4.2792607611086435
 20
22.418634476376937
 30
0.0
 11
4.617040875542912
 21
22.163189221394912
 31
0.0
  0
LINE
  5
3F
330
17
100
AcDbEntity
  8
Cycloidal_Ring_Gear
100
AcDbLine
 10
4.617040875542912
 20
22.163189221394912
 30
0.0
 11
4.92966440959615
 21
21.9084714624875
 31
0.0
  0
LINE
  5
40
330
17
100
AcDbEntity
  8
Cycloidal_Ring_Gear
100
AcDbLine
 10
4.92966440959615
 20
21.9084714624875
 30
0.0
 11
5.218861847047261
 21
21.658061901995232
 31
0.0
  0
LINE
  5
41
330
17
100
AcDbEntity
  8
Cycloidal_Ring_Gear
100
AcDbLine
 10
5.218861847047261
 20
21.658061901995232
 30
0.0
 11
5.486184880633894
 21
21.415195639189122
 31
0.0
  0
LINE
  5
42
330
17
100
AcDbEntity
  8
Cycloidal_Ring_Gear
100
AcDbLine
 10
5.486184880633894
 20
21.415195639189122
 30
0.0
 11
5.732941096916308
 21
21.182832213913446
 31
0.0
  0
LINE
  5
43
330
17
100
AcDbEntity
  8
Cycloidal_Ring_Gear
100
AcDbLine
 10
5.732941096916308
 20
21.182832213913446
 30
0.0
 11
5.9601558913418184
 21
20.963695970667583
 31
0.0
  0
LINE
  5
44
330
17
100
AcDbEntity
  8
Cycloidal_Ring_Gear
100
AcDbLine
 10
5.9601558913418184
 20
20.963695970667583
 30
0.0
 11
6.168550273594368
 21
20.76028549386782
 31
0.0
  0
LINE
  5
45
330
17
100
AcDbEntity
  8
Cycloidal_Ring_Gear
100
AcDbLine
 10
6.168550273594368
 20
20.76028549386782
 30
0.0
 11
6.35852943091855
 21
20.574851541200722
 31
0.0
  0
LINE
  5
46
330
17
100
AcDbEntity
  8
Cycloidal_Ring_Gear
100
AcDbLine
 10
6.35852943091855
 20
20.574851541200722
 30
0.0
 11
6.530183006558606
 21
20.409342282807046
 31
0.0
  0
LINE
  5
47
330
17
100
AcDbEntity
  8
Cycloidal_Ring_Gear
100
AcDbLine
 10
6.530183006558606
 20
20.409342282807046
 30
0.0
 11
6.683304243086441
 21
20.265314268444445
 31
0.0
  0
LINE
  5
48
330
17
100
AcDbEntity
  8
Cycloidal_Ring_Gear
100
AcDbLine
 10
6.683304243086441
 20
20.265314268444445
 30
0.0
 11
6.817441495184143
 21
20.143809057644418
 31
0.0
  0
LINE
  5
49
330
17
100
AcDbEntity
  8
Cycloidal_Ring_Gear
100
AcDbLine
 10
6.817441495184143
 20
20.143809057644418
 30
0.0
 11
6.932001342514345
 21
20.045200816350434
 31
0.0
  0
LINE
  5
4A
330
17
100
AcDbEntity
  8
Cycloidal_Ring_Gear
100
AcDbLine
 10
6.932001342514345
 20
20.045200816350434
 30
0.0
 11
7.026425173618662
 21
19.96903134367019
 31
0.0
  0
LINE
  5
4B
330
17
100
AcDbEntity
  8
Cycloidal_Ring_Gear
100
AcDbLine
 10
7.026425173618662
 20
19.96903134367019
 30
0.0
 11
7.10045592399356
 21
19.913866556935268
 31
0.0
  0
LINE
  5
4C
330
17
100
AcDbEntity
  8
Cycloidal_Ring_Gear
100
AcDbLine
 10
7.10045592399356
 20
19.913866556935268
 30
0.0
 11
7.154492276412764
 21
19.877229094948284
 31
0.0
  0
LINE
  5
4D
330
17
100
AcDbEntity
  8
Cycloidal_Ring_Gear
100
AcDbLine
 10
7.154492276412764
 20
19.877229094948284
 30
0.0
 11
7.189989858850218
 21
19.855675061282586
 31
0.0
  0
LINE
  5
4E
330
17
100
AcDbEntity
  8
Cycloidal_Ring_Gear
100
AcDbLine
 10
7.189989858850218
 20
19.855675061282586
 30
0.0
 11
7.209818461875642
 21
19.84507178926356
 31
0.0
  0
LINE
  5
4F
330
17
100
AcDbEntity
  8
Cycloidal_Ring_Gear
100
AcDbLine
 10
7.209818461875642
 20
19.84507178926356
 30
0.0
 11
7.21844417387881
 21
19.841082560401354
 31
0.0
  0
LINE
  5
50
330
17
100
AcDbEntity
  8
Cycloidal_Ring_Gear
100
AcDbLine
 10
7.21844417387881
 20
19.841082560401354
 30
0.0
 11
7.221812294587652
 21
19.83977840576759
 31
0.0
  0
LINE
  5
51
330
17
100
AcDbEntity
  8
Cycloidal_Ring_Gear
100
AcDbLine
 10
7.221812294587652
 20
19.83977840576759
 30
0.0
 11
7.226885851270962
 21
19.838215462294517
 31
0.0
  0
LINE
  5
52
330
17
100
AcDbEntity
  8
Cycloidal_Ring_Gear
100
AcDbLine
 10
7.226885851270962
 20
19.838215462294517
 30
0.0
 11
7.2409245138802465
 21
19.834796566763558
 31
0.0
  0
LINE
  5
53
330
17
100
AcDbEntity
  8
Cycloidal_Ring_Gear
100
AcDbLine
 10
7.2409245138802465
 20
19.834796566763558
 30
0.0
 11
7.2706992203363034
 21
19.82930716068639
 31
0.0
  0
LINE
  5
54
330
17
100
AcDbEntity
  8
Cycloidal_Ring_Gear
100
AcDbLine
 10
7.2706992203363034
 20
19.82930716068639
 30
0.0
 11
7.321858301009221
 21
19.82264314741522
 31
0.0
  0
LINE
  5
55
330
17
100
AcDbEntity
  8
Cycloidal_Ring_Gear
100
AcDbLine
 10
7.321858301009221
 20
19.82264314741522
 30
0.0
 11
7.398581677941336
 21
19.81635541792973
 31
0.0
  0
LINE
  5
56
330
17
100
AcDbEntity
  8
Cycloidal_Ring_Gear
100
AcDbLine
 10
7.398581677941336
 20
19.81635541792973
 30
0.0
 11
7.503538050356424
 21
19.81216754862967
 31
0.0
  0
LINE
  5
57
330
17
100
AcDbEntity
  8
Cycloidal_Ring_Gear
100
AcDbLine
 10
7.503538050356424
 20
19.81216754862967
 30
0.0
 11
7.638066531635315
 21
19.811583651317374
 31
0.0
  0
LINE
  5
58
330
17
100
AcDbEntity
  8
Cycloidal_Ring_Gear
100
AcDbLine
 10
7.638066531635315
 20
19.811583651317374
 30
0.0
 11
7.802471498011849
 21
19.8156354803425
 31
0.0
  0
LINE
  5
59
330
17
100
AcDbEntity
  8
Cycloidal_Ring_Gear
100
AcDbLine
 10
7.802471498011849
 20
19.8156354803425
 30
0.0
 11
7.996336100755388
 21
19.8247618871025
 31
0.0
  0
LINE
  5
5A
330
17
100
AcDbEntity
  8
Cycloidal_Ring_Gear
100
AcDbLine
 10
7.996336100755388
 20
19.8247618871025
 30
0.0
 11
8.218796905275502
 21
19.838785388876687
 31
0.0
  0
LINE
  5
5B
330
17
100
AcDbEntity
  8
Cycloidal_Ring_Gear
100
AcDbLine
 10
8.218796905275502
 20
19.838785388876687
 30
0.0
 11
8.468756533724353
 21
19.85694574882321
 31
0.0
  0
LINE
  5
5C
330
17
100
AcDbEntity
  8
Cycloidal_Ring_Gear
100
AcDbLine
 10
8.468756533724353
 20
19.85694574882321
 30
0.0
 11
8.745033499822759
 21
19.877957941604855
 31
0.0
  0
LINE
  5
5D
330
17
100
AcDbEntity
  8
Cycloidal_Ring_Gear
100
AcDbLine
 10
8.745033499822759
 20
19.877957941604855
 30
0.0
 11
9.046458699293183
 21
19.900072603913944
 31
0.0
  0
LINE
  5
5E
330
17
100
AcDbEntity
  8
Cycloidal_Ring_Gear
100
AcDbLine
 10
9.046458699293183
 20
19.900072603913944
 30
0.0
 11
9.371929997289856
 21
19.921126356788285
 31
0.0
  0
LINE
  5
5F
330
17
100
AcDbEntity
  8
Cycloidal_Ring_Gear
100
AcDbLine
 10
9.371929997289856
 20
19.921126356788285
 30
0.0
 11
9.720433796686235
 21
19.938575968897943
 31
0.0
  0
LINE
  5
60
330
17
100
AcDbEntity
  8
Cycloidal_Ring_Gear
100
AcDbLine
 10
9.720433796686235
 20
19.938575968897943
 30
0.0
 11
10.091037921807827
 21
19.949514728374815
 31
0.0
  0
LINE
  5
61
330
17
100
AcDbEntity
  8
Cycloidal_Ring_Gear
100
AcDbLine
 10
10.091037921807827
 20
19.949514728374815
 30
0.0
 11
10.482855029907055
 21
19.950672800191768
 31
0.0
  0
LINE
  5
62
330
17
100
AcDbEntity
  8
Cycloidal_Ring_Gear
100
AcDbLine
 10
10.482855029907055
 20
19.950672800191768
 30
0.0
 11
10.894970918535407
 21
19.938407105424915
 31
0.0
  0
LINE
  5
63
330
17
100
AcDbEntity
  8
Cycloidal_Ring_Gear
100
AcDbLine
 10
10.894970918535407
 20
19.938407105424915
 30
0.0
 11
11.326328455449078
 21
19.90869161835382
 31
0.0
  0
LINE
  5
64
330
17
100
AcDbEntity
  8
Cycloidal_Ring_Gear
100
AcDbLine
 10
11.326328455449078
 20
19.90869161835382
 30
0.0
 11
11.775557027875129
 21
19.857126820799873
 31
0.0
  0
LINE
  5
65
330
17
100
AcDbEntity
  8
Cycloidal_Ring_Gear
100
AcDbLine
 10
11.775557027875129
 20
19.857126820799873
 30
0.0
 11
12.24074213626991
 21
19.7789972457844
 31
0.0
  0
LINE
  5
66
330
17
100
AcDbEntity
  8
Cycloidal_Ring_Gear
100
AcDbLine
 10
12.24074213626991
 20
19.7789972457844
 30
0.0
 11
12.71914380344085
 21
19.66941618475795
 31
0.0
  0
LINE
  5
67
330
17
100
AcDbEntity
  8
Cycloidal_Ring_Gear
100
AcDbLine
 10
12.71914380344085
 20
19.66941618475795
 30
0.0
 11
13.206899022875808
 21
19.523600447462655
 31
0.0
  0
LINE
  5
68
330
17
100
AcDbEntity
  8
Cycloidal_Ring_Gear
100
AcDbLine
 10
13.206899022875808
 20
19.523600447462655
 30
0.0
 11
13.698781095682259
 21
19.337304819143867
 31
0.0
  0
LINE
  5
69
330
17
100
AcDbEntity
  8
Cycloidal_Ring_Gear
100
AcDbLine
 10
13.698781095682259
 20
19.337304819143867
 30
0.0
 11
14.188125251982383
 21
19.10740389640387
 31
0.0
  0
LINE
  5
6A
330
17
100
AcDbEntity
  8
Cycloidal_Ring_Gear
100
AcDbLine
 10
14.188125251982383
 20
19.10740389640387
 30
0.0
 11
14.667039158089414
 21
18.832536407254036
 31
0.0
  0
LINE
  5
6B
330
17
100
AcDbEntity
  8
Cycloidal_Ring_Gear
100
AcDbLine
 10
14.667039158089414
 20
18.832536407254036
 30
0.0
 11
15.126967413028233
 21
18.51364670523905
 31
0.0
  0
LINE
  5
6C
330
17
100
AcDbEntity
  8
Cycloidal_Ring_Gear
100
AcDbLine
 10
15.126967413028233
 20
18.51364670523905
 30
0.0
 11
15.559561686188413
 21
18.15422090697037
 31
0.0
  0
LINE
  5
6D
330
17
100
AcDbEntity
  8
Cycloidal_Ring_Gear
100
AcDbLine
 10
15.559561686188413
 20
18.15422090697037
 30
0.0
 11
15.957664934890676
 21
17.76007277744604
 31
0.0
  0
LINE
  5
6E
330
17
100
AcDbEntity
  8
Cycloidal_Ring_Gear
100
AcDbLine
 10
15.957664934890676
 20
17.76007277744604
 30
0.0
 11
16.3161351446709
 21
17.33868721985519
 31
0.0
  0
LINE
  5
6F
330
17
100
AcDbEntity
  8
Cycloidal_Ring_Gear
100
AcDbLine
 10
16.3161351446709
 20
17.33868721985519
 30
0.0
 11
16.63227854262625
 21
16.898301189885757
 31
0.0
  0
LINE
  5
70
330
17
100
AcDbEntity
  8
Cycloidal_Ring_Gear
100
AcDbLine
 10
16.63227854262625
 20
16.898301189885757
 30
0.0
 11
16.905816714327
 21
16.446989441135518
 31
0.0
  0
LINE
  5
71
330
17
100
AcDbEntity
  8
Cycloidal_Ring_Gear
100
AcDbLine
 10
16.905816714327
 20
16.446989441135518
 30
0.0
 11
17.13848179811555
 21
15.991980328952339
 31
0.0
  0
LINE
  5
72
330
17
100
AcDbEntity
  8
Cycloidal_Ring_Gear
100
AcDbLine
 10
17.13848179811555
 20
15.991980328952339
 30
0.0
 11
17.333426978263844
 21
15.539300002156102
 31
0.0
  0
LINE
  5
73
330
17
100
AcDbEntity
  8
Cycloidal_Ring_Gear
100
AcDbLine
 10
17.333426978263844
 20
15.539300002156102
 30
0.0
 11
17.494632615214503
 21
15.093716716049522
 31
0.0
  0
LINE
  5
74
330
17
100
AcDbEntity
  8
Cycloidal_Ring_Gear
100
AcDbLine
 10
17.494632615214503
 20
15.093716716049522
 30
0.0
 11
17.626420976358528
 21
14.658886899093275
 31
0.0
  0
LINE
  5
75
330
17
100
AcDbEntity
  8
Cycloidal_Ring_Gear
100
AcDbLine
 10
17.626420976358528
 20
14.658886899093275
 30
0.0
 11
17.733117814496815
 21
14.237595617139263
 31
0.0
  0
LINE
  5
76
330
17
100
AcDbEntity
  8
Cycloidal_Ring_Gear
100
AcDbLine
 10
17.733117814496815
 20
14.237595617139263
 30
0.0
 11
17.818848051913548
 21
13.832010671418464
 31
0.0
  0
LINE
  5
77
330
17
100
AcDbEntity
  8
Cycloidal_Ring_Gear
100
AcDbLine
 10
17.818848051913548
 20
13.832010671418464
 30
0.0
 11
17.887430491518398
 21
13.443904579756657
 31
0.0
  0
LINE
  5
78
330
17
100
AcDbEntity
  8
Cycloidal_Ring_Gear
100
AcDbLine
 10
17.887430491518398
 20
13.443904579756657
 30
0.0
 11
17.94233409615307
 21
13.074826697079732
 31
0.0
  0
LINE
  5
79
330
17
100
AcDbEntity
  8
Cycloidal_Ring_Gear
100
AcDbLine
 10
17.94233409615307
 20
13.074826697079732
 30
0.0
 11
17.986665401871328
 21
12.726224523327035
 31
0.0
  0
LINE
  5
7A
330
17
100
AcDbEntity
  8
Cycloidal_Ring_Gear
100
AcDbLine
 10
17.986665401871328
 20
12.726224523327035
 30
0.0
 11
18.023165869454402
 21
12.399520528965434
 31
0.0
  0
LINE
  5
7B
330
17
100
AcDbEntity
  8
Cycloidal_Ring_Gear
100
AcDbLine
 10
18.023165869454402
 20
12.399520528965434
 30
0.0
 11
18.05420605862303
 21
12.096151876470968
 31
0.0
  0
LINE
  5
7C
330
17
100
AcDbEntity
  8
Cycloidal_Ring_Gear
100
AcDbLine
 10
18.05420605862303
 20
12.096151876470968
 30
0.0
 11
18.08176962232001
 21
11.81757801465808
 31
0.0
  0
LINE
  5
7D
330
17
100
AcDbEntity
  8
Cycloidal_Ring_Gear
100
AcDbLine
 10
18.08176962232001
 20
11.81757801465808
 30
0.0
 11
18.10742476559168
 21
11.565257105030685
 31
0.0
  0
LINE
  5
7E
330
17
100
AcDbEntity
  8
Cycloidal_Ring_Gear
100
AcDbLine
 10
18.10742476559168
 20
11.565257105030685
 30
0.0
 11
18.132285035130366
 21
11.34058777534434
 31
0.0
  0
LINE
  5
7F
330
17
100
AcDbEntity
  8
Cycloidal_Ring_Gear
100
AcDbLine
 10
18.132285035130366
 20
11.34058777534434
 30
0.0
 11
18.15696627579127
 21
11.144808832809906
 31
0.0
  0
LINE
  5
80
330
17
100
AcDbEntity
  8
Cycloidal_Ring_Gear
100
AcDbLine
 10
18.15696627579127
 20
11.144808832809906
 30
0.0
 11
18.181553289340354
 21
10.978847825859
 31
0.0
  0
LINE
  5
81
330
17
100
AcDbEntity
  8
Cycloidal_Ring_Gear
100
AcDbLine
 10
18.181553289340354
 20
10.978847825859
 30
0.0
 11
18.20559837088376
 21
10.843112193817742
 31
0.0
  0
LINE
  5
82
330
17
100
AcDbEntity
  8
Cycloidal_Ring_Gear
100
AcDbLine
 10
18.20559837088376
 20
10.843112193817742
 30
0.0
 11
18.228182866779456
 21
10.737227612830878
 31
0.0
  0
LINE
  5
83
330
17
100
AcDbEntity
  8
Cycloidal_Ring_Gear
100
AcDbLine
 10
18.228182866779456
 20
10.737227612830878
 30
0.0
 11
18.248077360138936
 21
10.659750113362211
 31
0.0
  0
LINE
  5
84
330
17
100
AcDbEntity
  8
Cycloidal_Ring_Gear
100
AcDbLine
 10
18.248077360138936
 20
10.659750113362211
 30
0.0
 11
18.26402741396808
 21
10.607910837657705
 31
0.0
  0
LINE
  5
85
330
17
100
AcDbEntity
  8
Cycloidal_Ring_Gear
100
AcDbLine
 10
18.26402741396808
 20
10.607910837657705
 30
0.0
 11
18.275160383778353
 21
10.577484959162872
 31
0.0
  0
LINE
  5
86
330
17
100
AcDbEntity
  8
Cycloidal_Ring_Gear
100
AcDbLine
 10
18.275160383778353
 20
10.577484959162872
 30
0.0
 11
18.281452825765093
 21
10.562887151060078
 31
0.0
  0
LINE
  5
87
330
17
100
AcDbEntity
  8
Cycloidal_Ring_Gear
100
AcDbLine
 10
18.281452825765093
 20
10.562887151060078
 30
0.0
 11
18.28413541833859
 21
10.55755848780085
 31
0.0
  0
LINE
  5
88
330
17
100
AcDbEntity
  8
Cycloidal_Ring_Gear
100
AcDbLine
 10
18.28413541833859
 20
10.55755848780085
 30
0.0
 11
18.28588308926249
 21
10.554615790708766
 31
0.0
  0
LINE
  5
89
330
17
100
AcDbEntity
  8
Cycloidal_Ring_Gear
100
AcDbLine
 10
18.28588308926249
 20
10.554615790708766
 30
0.0
 11
18.290681425525182
 21
10.547618573664623
 31
0.0
  0
LINE
  5
8A
330
17
100
AcDbEntity
  8
Cycloidal_Ring_Gear
100
AcDbLine
 10
18.290681425525182
 20
10.547618573664623
 30
0.0
 11
18.30337457085974
 21
10.53123993058712
 31
0.0
  0
LINE
  5
8B
330
17
100
AcDbEntity
  8
Cycloidal_Ring_Gear
100
AcDbLine
 10
18.30337457085974
 20
10.53123993058712
 30
0.0
 11
18.329025641942525
 21
10.501658445575979
 31
0.0
  0
LINE
  5
8C
330
17
100
AcDbEntity
  8
Cycloidal_Ring_Gear
100
AcDbLine
 10
18.329025641942525
 20
10.501658445575979
 30
0.0
 11
18.37228209690179
 21
10.456603933372751
 31
0.0
  0
LINE
  5
8D
330
17
100
AcDbEntity
  8
Cycloidal_Ring_Gear
100
AcDbLine
 10
18.37228209690179
 20
10.456603933372751
 30
0.0
 11
18.436905662354874
 21
10.395117950898118
 31
0.0
  0
LINE
  5
8E
330
17
100
AcDbEntity
  8
Cycloidal_Ring_Gear
100
AcDbLine
 10
18.436905662354874
 20
10.395117950898118
 30
0.0
 11
18.525534953307787
 21
10.317161966413565
 31
0.0
  0
LINE
  5
8F
330
17
100
AcDbEntity
  8
Cycloidal_Ring_Gear
100
AcDbLine
 10
18.525534953307787
 20
10.317161966413565
 30
0.0
 11
18.639659883025715
 21
10.223204901129478
 31
0.0
  0
LINE
  5
90
330
17
100
AcDbEntity
  8
Cycloidal_Ring_Gear
100
AcDbLine
 10
18.639659883025715
 20
10.223204901129478
 30
0.0
 11
18.77973855910537
 21
10.113875868127275
 31
0.0
  0
LINE
  5
91
330
17
100
AcDbEntity
  8
Cycloidal_Ring_Gear
100
AcDbLine
 10
18.77973855910537
 20
10.113875868127275
 30
0.0
 11
18.945381423158608
 21
9.989715249234703
 31
0.0
  0
LINE
  5
92
330
17
100
AcDbEntity
  8
Cycloidal_Ring_Gear
100
AcDbLine
 10
18.945381423158608
 20
9.989715249234703
 30
0.0
 11
19.135545689142376
 21
9.85102012536713
 31
0.0
  0
LINE
  5
93
330
17
100
AcDbEntity
  8
Cycloidal_Ring_Gear
100
AcDbLine
 10
19.135545689142376
 20
9.85102012536713
 30
0.0
 11
19.34870700834292
 21
9.697762643881044
 31
0.0
  0
LINE
  5
94
330
17
100
AcDbEntity
  8
Cycloidal_Ring_Gear
100
AcDbLine
 10
19.34870700834292
 20
9.697762643881044
 30
0.0
 11
19.582994306062453
 21
9.529556718332406
 31
0.0
  0
LINE
  5
95
330
17
100
AcDbEntity
  8
Cycloidal_Ring_Gear
100
AcDbLine
 10
19.582994306062453
 20
9.529556718332406
 30
0.0
 11
19.836285085209507
 21
9.345652536825051
 31
0.0
  0
LINE
  5
96
330
17
100
AcDbEntity
  8
Cycloidal_Ring_Gear
100
AcDbLine
 10
19.836285085209507
 20
9.345652536825051
 30
0.0
 11
20.106263364128573
 21
9.144944842773004
 31
0.0
  0
LINE
  5
97
330
17
100
AcDbEntity
  8
Cycloidal_Ring_Gear
100
AcDbLine
 10
20.106263364128573
 20
9.144944842773004
 30
0.0
 11
20.390443125575118
 21
8.925987522033472
 31
0.0
  0
LINE
  5
98
330
17
100
AcDbEntity
  8
Cycloidal_Ring_Gear
100
AcDbLine
 10
20.390443125575118
 20
8.925987522033472
 30
0.0
 11
20.68615881639424
 21
8.687013107282834
 31
0.0
  0
LINE
  5
99
330
17
100
AcDbEntity
  8
Cycloidal_Ring_Gear
100
AcDbLine
 10
20.68615881639424
 20
8.687013107282834
 30
0.0
 11
20.99052272163181
 21
8.42596168949743
 31
0.0
  0
LINE
  5
9A
330
17
100
AcDbEntity
  8
Cycloidal_Ring_Gear
100
AcDbLine
 10
20.99052272163181
 20
8.42596168949743
 30
0.0
 11
21.300348409599742
 21
8.140529903611043
 31
0.0
  0
LINE
  5
9B
330
17
100
AcDbEntity
  8
Cycloidal_Ring_Gear
100
AcDbLine
 10
21.300348409599742
 20
8.140529903611043
 30
0.0
 11
21.612041523355
 21
7.828257257451427
 31
0.0
  0
LINE
  5
9C
330
17
100
AcDbEntity
  8
Cycloidal_Ring_Gear
100
AcDbLine
 10
21.612041523355
 20
7.828257257451427
 30
0.0
 11
21.921465921085474
 21
7.48667318085085
 31
0.0
  0
LINE
  5
9D
330
17
100
AcDbEntity
  8
Cycloidal_Ring_Gear
100
AcDbLine
 10
21.921465921085474
 20
7.48667318085085
 30
0.0
 11
22.223806438870785
 21
7.113530952770185
 31
0.0
  0
LINE
  5
9E
330
17
100
AcDbEntity
  8
Cycloidal_Ring_Gear
100
AcDbLine
 10
22.223806438870785
 20
7.113530952770185
 30
0.0
 11
22.5134697691094
 21
6.707148642741426
 31
0.0
  0
LINE
  5
9F
330
17
100
AcDbEntity
  8
Cycloidal_Ring_Gear
100
AcDbLine
 10
22.5134697691094
 20
6.707148642741426
 30
0.0
 11
22.78408813359705
 21
6.266854831949594
 31
0.0
  0
LINE
  5
A0
330
17
100
AcDbEntity
  8
Cycloidal_Ring_Gear
100
AcDbLine
 10
22.78408813359705
 20
6.266854831949594
 30
0.0
 11
23.028704732788587
 21
5.793492484621492
 31
0.0
  0
LINE
  5
A1
330
17
100
AcDbEntity
  8
Cycloidal_Ring_Gear
100
AcDbLine
 10
23.028704732788587
 20
5.793492484621492
 30
0.0
 11
23.240205373322357
 21
5.289872847634661
 31
0.0
  0
LINE
  5
A2
330
17
100
AcDbEntity
  8
Cycloidal_Ring_Gear
100
AcDbLine
 10
23.240205373322357
 20
5.289872847634661
 30
0.0
 11
23.411998413577585
 21
4.761018092597251
 31
0.0
  0
LINE
  5
A3
330
17
100
AcDbEntity
  8
Cycloidal_Ring_Gear
100
AcDbLine
 10
23.411998413577585
 20
4.761018092597251
 30
0.0
 11
23.538838899122112
 21
4.214031010853139
 31
0.0
  0
LINE
  5
A4
330
17
100
AcDbEntity
  8
Cycloidal_Ring_Gear
100
AcDbLine
 10
23.538838899122112
 20
4.214031010853139
 30
0.0
 11
23.617587629610654
 21
3.657518795163411
 31
0.0
  0
LINE
  5
A5
330
17
100
AcDbEntity
  8
Cycloidal_Ring_Gear
100
AcDbLine
 10
23.617587629610654
 20
3.657518795163411
 30
0.0
 11
23.647665175137682
 21
3.1006602380268844
 31
0.0
  0
LINE
  5
A6
330
17
100
AcDbEntity
  8
Cycloidal_Ring_Gear
100
AcDbLine
 10
23.647665175137682
 20
3.1006602380268844
 30
0.0
 11
23.63104945495458
 21
2.552158821512936
 31
0.0
  0
LINE
  5
A7
330
17
100
AcDbEntity
  8
Cycloidal_Ring_Gear
100
AcDbLine
 10
23.63104945495458
 20
2.552158821512936
 30
0.0
 11
23.5718367665067
 21
2.0193705040072305
 31
0.0
  0
LINE
  5
A8
330
17
100
AcDbEntity
  8
Cycloidal_Ring_Gear
100
AcDbLine
 10
23.5718367665067
 20
2.0193705040072305
 30
0.0
 11
23.475539349466832
 21
1.507805379669851
 31
0.0
  0
LINE
  5
A9
330
17
100
AcDbEntity
  8
Cycloidal_Ring_Gear
100
AcDbLine
 10
23.475539349466832
 20
1.507805379669851
 30
0.0
 11
23.348345064270713
 21
1.0210414007896331
 31
0.0
  0
LINE
  5
AA
330
17
100
AcDbEntity
  8
Cycloidal_Ring_Gear
100
AcDbLine
 10
23.348345064270713
 20
1.0210414007896331
 30
0.0
 11
23.196512731433533
 21
0.5609534604925954
 31
0.0
  0
LINE
  5
AB
330
17
100
AcDbEntity
  8
Cycloidal_Ring_Gear
100
AcDbLine
 10
23.196512731433533
 20
0.5609534604925954
 30
0.0
 11
23.025977902380518
 21
0.12810665457449377
 31
0.0
  0
LINE
  5
AC
330
17
100
AcDbEntity
  8
Cycloidal_Ring_Gear
100
AcDbLine
 10
23.025977902380518
 20
0.12810665457449377
 30
0.0
 11
22.842159028426014
 21
-0.27781977581364803
 31
0.0
  0
LINE
  5
AD
330
17
100
AcDbEntity
  8
Cycloidal_Ring_Gear
100
AcDbLine
 10
22.842159028426014
 20
-0.27781977581364803
 30
0.0
 11
22.649910056061604
 21
-0.6576606123207962
 31
0.0
  0
LINE
  5
AE
330
17
100
AcDbEntity
  8
Cycloidal_Ring_Gear
100
AcDbLine
 10
22.649910056061604
 20
-0.6576606123207962
 30
0.0
 11
22.45355786164064
 21
-1.0124781315702336
 31
0.0
  0
LINE
  5
AF
330
17
100
AcDbEntity
  8
Cycloidal_Ring_Gear
100
AcDbLine
 10
22.45355786164064
 20
-1.0124781315702336
 30
0.0
 11
22.256974913094854
 21
-1.3433610050377616
 31
0.0
  0
LINE
  5
B0
330
17
100
AcDbEntity
  8
Cycloidal_Ring_Gear
100
AcDbLine
 10
22.256974913094854
 20
-1.3433610050377616
 30
0.0
 11
22.06365463344028
 21
-1.6512929805711742
 31
0.0
  0
LINE
  5
B1
330
17
100
AcDbEntity
  8
Cycloidal_Ring_Gear
100
AcDbLine
 10
22.06365463344028
 20
-1.6512929805711742
 30
0.0
 11
21.87677140020349
 21
-1.9370719220170467
 31
0.0
  0
LINE
  5
B2
330
17
100
AcDbEntity
  8
Cycloidal_Ring_Gear
100
AcDbLine
 10
21.87677140020349
 20
-1.9370719220170467
 30
0.0
 11
21.69921661686907
 21
-2.201262389385141
 31
0.0
  0
LINE
  5
B3
330
17
100
AcDbEntity
  8
Cycloidal_Ring_Gear
100
AcDbLine
 10
21.69921661686907
 20
-2.201262389385141
 30
0.0
 11
21.533607315442453
 21
-2.4441701632894404
 31
0.0
  0
LINE
  5
B4
330
17
100
AcDbEntity
  8
Cycloidal_Ring_Gear
100
AcDbLine
 10
21.533607315442453
 20
-2.4441701632894404
 30
0.0
 11
21.382265732967166
 21
-2.6658330842667404
 31
0.0
  0
LINE
  5
B5
330
17
100
AcDbEntity
  8
Cycloidal_Ring_Gear
100
AcDbLine
 10
21.382265732967166
 20
-2.6658330842667404
 30
0.0
 11
21.247168820656366
 21
-2.8660286752584305
 31
0.0
  0
LINE
  5
B6
330
17
100
AcDbEntity
  8
Cycloidal_Ring_Gear
100
AcDbLine
 10
21.247168820656366
 20
-2.8660286752584305
 30
0.0
 11
21.129867234061976
 21
-3.0443051765868323
 31
0.0
  0
LINE
  5
B7
330
17
100
AcDbEntity
  8
Cycloidal_Ring_Gear
100
AcDbLine
 10
21.129867234061976
 20
-3.0443051765868323
 30
0.0
 11
21.03137564806127
 21
-3.200048669619214
 31
0.0
  0
LINE
  5
B8
330
17
100
AcDbEntity
  8
Cycloidal_Ring_Gear
100
AcDbLine
 10
21.03137564806127
 20
-3.200048669619214
 30
0.0
 11
20.95204202533695
 21
-3.3326039155148295
 31
0.0
  0
LINE
  5
B9
330
17
100
AcDbEntity
  8
Cycloidal_Ring_Gear
100
AcDbLine
 10
20.95204202533695
 20
-3.3326039155148295
 30
0.0
 11
20.89141430374666
 21
-3.4414678474046125
 31
0.0
  0
LINE
  5
BA
330
17
100
AcDbEntity
  8
Cycloidal_Ring_Gear
100
AcDbLine
 10
20.89141430374666
 20
-3.4414678474046125
 30
0.0
 11
20.848138930632583
 21
-3.526567762046259
 31
0.0
  0
LINE
  5
BB
330
17
100
AcDbEntity
  8
Cycloidal_Ring_Gear
100
AcDbLine
 10
20.848138930632583
 20
-3.526567762046259
 30
0.0
 11
20.81994297318071
 21
-3.588615438624016
 31
0.0
  0
LINE
  5
BC
330
17
100
AcDbEntity
  8
Cycloidal_Ring_Gear
100
AcDbLine
 10
20.81994297318071
 20
-3.588615438624016
 30
0.0
 11
20.803760029533244
 21
-3.629490616351474
 31
0.0
  0
LINE
  5
BD
330
17
100
AcDbEntity
  8
Cycloidal_Ring_Gear
100
AcDbLine
 10
20.803760029533244
 20
-3.629490616351474
 30
0.0
 11
20.796044123576582
 21
-3.652559434771997
 31
0.0
  0
LINE
  5
BE
330
17
100
AcDbEntity
  8
Cycloidal_Ring_Gear
100
AcDbLine
 10
20.796044123576582
 20
-3.652559434771997
 30
0.0
 11
20.79326278296039
 21
-3.662799141252764
 31
0.0
  0
LINE
  5
BF
330
17
100
AcDbEntity
  8
Cycloidal_Ring_Gear
100
AcDbLine
 10
20.79326278296039
 20
-3.662799141252764
 30
0.0
 11
20.79247853748328
 21
-3.666614787543402
 31
0.0
  0
LINE
  5
C0
330
17
100
AcDbEntity
  8
Cycloidal_Ring_Gear
100
AcDbLine
 10
20.79247853748328
 20
-3.666614787543402
 30
0.0
 11
20.791856725645708
 21
-3.6713182526012216
 31
0.0
  0
LINE
  5
C1
330
17
100
AcDbEntity
  8
Cycloidal_Ring_Gear
100
AcDbLine
 10
20.791856725645708
 20
-3.6713182526012216
 30
0.0
 11
20.79093092218674
 21
-3.68437017964423
 31
0.0
  0
LINE
  5
C2
330
17
100
AcDbEntity
  8
Cycloidal_Ring_Gear
100
AcDbLine
 10
20.79093092218674
 20
-3.68437017964423
 30
0.0
 11
20.79053839706983
 21
-3.7125896957872877
 31
0.0
  0
LINE
  5
C3
330
17
100
AcDbEntity
  8
Cycloidal_Ring_Gear
100
AcDbLine
 10
20.79053839706983
 20
-3.7125896957872877
 30
0.0
 11
20.79246660789933
 21
-3.7615470154851933
 31
0.0
  0
LINE
  5
C4
330
17
100
AcDbEntity
  8
Cycloidal_Ring_Gear
100
AcDbLine
 10
20.79246660789933
 20
-3.7615470154851933
 30
0.0
 11
20.798950831056448
 21
-3.8352654053066275
 31
0.0
  0
LINE
  5
C5
330
17
100
AcDbEntity
  8
Cycloidal_Ring_Gear
100
AcDbLine
 10
20.798950831056448
 20
-3.8352654053066275
 30
0.0
 11
20.812182484055718
 21
-3.936232927906236
 31
0.0
  0
LINE
  5
C6
330
17
100
AcDbEntity
  8
Cycloidal_Ring_Gear
100
AcDbLine
 10
20.812182484055718
 20
-3.936232927906236
 30
0.0
 11
20.833937602947625
 21
-4.065632569152366
 31
0.0
  0
LINE
  5
C7
330
17
100
AcDbEntity
  8
Cycloidal_Ring_Gear
100
AcDbLine
 10
20.833937602947625
 20
-4.065632569152366
 30
0.0
 11
20.86536203253896
 21
-4.223672077612685
 31
0.0
  0
LINE
  5
C8
330
17
100
AcDbEntity
  8
Cycloidal_Ring_Gear
100
AcDbLine
 10
20.86536203253896
 20
-4.223672077612685
 30
0.0
 11
20.906894368128924
 21
-4.409917405189128
 31
0.0
  0
LINE
  5
C9
330
17
100
AcDbEntity
  8
Cycloidal_Ring_Gear
100
AcDbLine
 10
20.906894368128924
 20
-4.409917405189128
 30
0.0
 11
20.958282994109513
 21
-4.623574670005529
 31
0.0
  0
LINE
  5
CA
330
17
100
AcDbEntity
  8
Cycloidal_Ring_Gear
100
AcDbLine
 10
20.958282994109513
 20
-4.623574670005529
 30
0.0
 11
21.018652868524885
 21
-4.86370163683165
 31
0.0
  0
LINE
  5
CB
330
17
100
AcDbEntity
  8
Cycloidal_Ring_Gear
100
AcDbLine
 10
21.018652868524885
 20
-4.86370163683165
 30
0.0
 11
21.0865883620695
 21
-5.129351970740535
 31
0.0
  0
LINE
  5
CC
330
17
100
AcDbEntity
  8
Cycloidal_Ring_Gear
100
AcDbLine
 10
21.0865883620695
 20
-5.129351970740535
 30
0.0
 11
21.160210960281013
 21
-5.41966494486956
 31
0.0
  0
LINE
  5
CD
330
17
100
AcDbEntity
  8
Cycloidal_Ring_Gear
100
AcDbLine
 10
21.160210960281013
 20
-5.41966494486956
 30
0.0
 11
21.23724051824378
 21
-5.73391427930755
 31
0.0
  0
LINE
  5
CE
330
17
100
AcDbEntity
  8
Cycloidal_Ring_Gear
100
AcDbLine
 10
21.23724051824378
 20
-5.73391427930755
 30
0.0
 11
21.31503514770992
 21
-6.071526423717183
 31
0.0
  0
LINE
  5
CF
330
17
100
AcDbEntity
  8
Cycloidal_Ring_Gear
100
AcDbLine
 10
21.31503514770992
 20
-6.071526423717183
 30
0.0
 11
21.39060856832234
 21
-6.432073452170025
 31
0.0
  0
LINE
  5
D0
330
17
100
AcDbEntity
  8
Cycloidal_Ring_Gear
100
AcDbLine
 10
21.39060856832234
 20
-6.432073452170025
 30
0.0
 11
21.460626268949703
 21
-6.81524011106163
 31
0.0
  0
LINE
  5
D1
330
17
100
AcDbEntity
  8
Cycloidal_Ring_Gear
100
AcDbLine
 10
21.460626268949703
 20
-6.81524011106163
 30
0.0
 11
21.521384571767783
 21
-7.2207590870013005
 31
0.0
  0
LINE
  5
D2
330
17
100
AcDbEntity
  8
Cycloidal_Ring_Gear
100
AcDbLine
 10
21.521384571767783
 20
-7.2207590870013005
 30
0.0
 11
21.568781075243674
 21
-7.648303892257737
 31
0.0
  0
LINE
  5
D3
330
17
100
AcDbEntity
  8
Cycloidal_Ring_Gear
100
AcDbLine
 10
21.568781075243674
 20
-7.648303892257737
 30
0.0
 11
21.598292166676202
 21
-8.097326219027504
 31
0.0
  0
LINE
  5
D4
330
17
100
AcDbEntity
  8
Cycloidal_Ring_Gear
100
AcDbLine
 10
21.598292166676202
 20
-8.097326219027504
 30
0.0
 11
21.60498382172237
 21
-8.566826755633269
 31
0.0
  0
LINE
  5
D5
330
17
100
AcDbEntity
  8
Cycloidal_Ring_Gear
100
AcDbLine
 10
21.60498382172237
 20
-8.566826755633269
 30
0.0
 11
21.58359435050273
 21
-9.055059279452403
 31
0.0
  0
LINE
  5
D6
330
17
100
AcDbEntity
  8
Cycloidal_Ring_Gear
100
AcDbLine
 10
21.58359435050273
 20
-9.055059279452403
 30
0.0
 11
21.528737007966125
 21
-9.559191696706293
 31
0.0
  0
LINE
  5
D7
330
17
100
AcDbEntity
  8
Cycloidal_Ring_Gear
100
AcDbLine
 10
21.528737007966125
 20
-9.559191696706293
 30
0.0
 11
21.435266203468654
 21
-10.074985749625677
 31
0.0
  0
LINE
  5
D8
330
17
100
AcDbEntity
  8
Cycloidal_Ring_Gear
100
AcDbLine
 10
21.435266203468654
 20
-10.074985749625677
 30
0.0
 11
21.298819806493153
 21
-10.596600919783315
 31
0.0
  0
LINE
  5
D9
330
17
100
AcDbEntity
  8
Cycloidal_Ring_Gear
100
AcDbLine
 10
21.298819806493153
 20
-10.596600919783315
 30
0.0
 11
21.116483778209115
 21
-11.116653826817364
 31
0.0
  0
LINE
  5
DA
330
17
100
AcDbEntity
  8
Cycloidal_Ring_Gear
100
AcDbLine
 10
21.116483778209115
 20
-11.116653826817364
 30
0.0
 11
20.887437689965108
 21
-11.626637425742725
 31
0.0
  0
LINE
  5
DB
330
17
100
AcDbEntity
  8
Cycloidal_Ring_Gear
100
AcDbLine
 10
20.887437689965108
 20
-11.626637425742725
 30
0.0
 11
20.613376134956358
 21
-12.117702900283277
 31
0.0
  0
LINE
  5
DC
330
17
100
AcDbEntity
  8
Cycloidal_Ring_Gear
100
AcDbLine
 10
20.613376134956358
 20
-12.117702900283277
 30
0.0
 11
20.29852101943981
 21
-12.581657237013067
 31
0.0
  0
LINE
  5
DD
330
17
100
AcDbEntity
  8
Cycloidal_Ring_Gear
100
AcDbLine
 10
20.29852101943981
 20
-12.581657237013067
 30
0.0
 11
19.949165860200885
 21
-13.011911705743755
 31
0.0
  0
LINE
  5
DE
330
17
100
AcDbEntity
  8
Cycloidal_Ring_Gear
100
AcDbLine
 10
19.949165860200885
 20
-13.011911705743755
 30
0.0
 11
19.57287085373418
 21
-13.40411496224091
 31
0.0
  0
LINE
  5
DF
330
17
100
AcDbEntity
  8
Cycloidal_Ring_Gear
100
AcDbLine
 10
19.57287085373418
 20
-13.40411496224091
 30
0.0
 11
19.17755219794319
 21
-13.756330824630146
 31
0.0
  0
LINE
  5
E0
330
17
100
AcDbEntity
  8
Cycloidal_Ring_Gear
100
AcDbLine
 10
19.17755219794319
 20
-13.756330824630146
 30
0.0
 11
18.770711167018803
 21
-14.068796525262293
 31
0.0
  0
LINE
  5
E1
330
17
100
AcDbEntity
  8
Cycloidal_Ring_Gear
100
AcDbLine
 10
18.770711167018803
 20
-14.068796525262293
 30
0.0
 11
18.35894674421252
 21
-14.343420971317705
 31
0.0
  0
LINE
  5
E2
330
17
100
AcDbEntity
  8
Cycloidal_Ring_Gear
100
AcDbLine
 10
18.35894674421252
 20
-14.343420971317705
 30
0.0
 11
17.94776777925716
 21
-14.583208174839545
 31
0.0
  0
LINE
  5
E3
330
17
100
AcDbEntity
  8
Cycloidal_Ring_Gear
100
AcDbLine
 10
17.94776777925716
 20
-14.583208174839545
 30
0.0
 11
17.541633331633165
 21
-14.79174197221942
 31
0.0
  0
LINE
  5
E4
330
17
100
AcDbEntity
  8
Cycloidal_Ring_Gear
100
AcDbLine
 10
17.541633331633165
 20
-14.79174197221942
 30
0.0
 11
17.14412210521915
 21
-14.972795898982614
 31
0.0
  0
LINE
  5
E5
330
17
100
AcDbEntity
  8
Cycloidal_Ring_Gear
100
AcDbLine
 10
17.14412210521915
 20
-14.972795898982614
 30
0.0
 11
16.758146222977153
 21
-15.130074458763444
 31
0.0
  0
LINE
  5
E6
330
17
100
AcDbEntity
  8
Cycloidal_Ring_Gear
100
AcDbLine
 10
16.758146222977153
 20
-15.130074458763444
 30
0.0
 11
16.386154762574833
 21
-15.267061100034825
 31
0.0
  0
LINE
  5
E7
330
17
100
AcDbEntity
  8
Cycloidal_Ring_Gear
100
AcDbLine
 10
16.386154762574833
 20
-15.267061100034825
 30
0.0
 11
16.03030048442873
 21
-15.386939170922464
 31
0.0
  0
LINE
  5
E8
330
17
100
AcDbEntity
  8
Cycloidal_Ring_Gear
100
AcDbLine
 10
16.03030048442873
 20
-15.386939170922464
 30
0.0
 11
15.692562039457023
 21
-15.492555308118227
 31
0.0
  0
LINE
  5
E9
330
17
100
AcDbEntity
  8
Cycloidal_Ring_Gear
100
AcDbLine
 10
15.692562039457023
 20
-15.492555308118227
 30
0.0
 11
15.374823600741797
 21
-15.58640237537189
 31
0.0
  0
LINE
  5
EA
330
17
100
AcDbEntity
  8
Cycloidal_Ring_Gear
100
AcDbLine
 10
15.374823600741797
 20
-15.58640237537189
 30
0.0
 11
15.078916863855769
 21
-15.670606949095118
 31
0.0
  0
LINE
  5
EB
330
17
100
AcDbEntity
  8
Cycloidal_Ring_Gear
100
AcDbLine
 10
15.078916863855769
 20
-15.670606949095118
 30
0.0
 11
14.806629365554892
 21
-15.746912943835447
 31
0.0
  0
LINE
  5
EC
330
17
100
AcDbEntity
  8
Cycloidal_Ring_Gear
100
AcDbLine
 10
14.806629365554892
 20
-15.746912943835447
 30
0.0
 11
14.559680053335335
 21
-15.816658340015351
 31
0.0
  0
LINE
  5
ED
330
17
100
AcDbEntity
  8
Cycloidal_Ring_Gear
100
AcDbLine
 10
14.559680053335335
 20
-15.816658340015351
 30
0.0
 11
14.339659374122554
 21
-15.880746898131747
 31
0.0
  0
LINE
  5
EE
330
17
100
AcDbEntity
  8
Cycloidal_Ring_Gear
100
AcDbLine
 10
14.339659374122554
 20
-15.880746898131747
 30
0.0
 11
14.14792805905798
 21
-15.93962219482853
 31
0.0
  0
LINE
  5
EF
330
17
100
AcDbEntity
  8
Cycloidal_Ring_Gear
100
AcDbLine
 10
14.14792805905798
 20
-15.93962219482853
 30
0.0
 11
13.985467856468318
 21
-15.993258054418131
 31
0.0
  0
LINE
  5
F0
330
17
100
AcDbEntity
  8
Cycloidal_Ring_Gear
100
AcDbLine
 10
13.985467856468318
 20
-15.993258054418131
 30
0.0
 11
13.852681084376986
 21
-16.041187400733193
 31
0.0
  0
LINE
  5
F1
330
17
100
AcDbEntity
  8
Cycloidal_Ring_Gear
100
AcDbLine
 10
13.852681084376986
 20
-16.041187400733193
 30
0.0
 11
13.749147103951913
 21
-16.082598814698343
 31
0.0
  0
LINE
  5
F2
330
17
100
AcDbEntity
  8
Cycloidal_Ring_Gear
100
AcDbLine
 10
13.749147103951913
 20
-16.082598814698343
 30
0.0
 11
13.673365085026857
 21
-16.11653174080479
 31
0.0
  0
LINE
  5
F3
330
17
100
AcDbEntity
  8
Cycloidal_Ring_Gear
100
AcDbLine
 10
13.673365085026857
 20
-16.11653174080479
 30
0.0
 11
13.622542215437543
 21
-16.142189223240614
 31
0.0
  0
LINE
  5
F4
330
17
100
AcDbEntity
  8
Cycloidal_Ring_Gear
100
AcDbLine
 10
13.622542215437543
 20
-16.142189223240614
 30
0.0
 11
13.59251453466799
 21
-16.1593531166394
 31
0.0
  0
LINE
  5
F5
330
17
100
AcDbEntity
  8
Cycloidal_Ring_Gear
100
AcDbLine
 10
13.59251453466799
 20
-16.1593531166394
 30
0.0
 11
13.577892691766927
 21
-16.16883129262516
 31
0.0
  0
LINE
  5
F6
330
17
100
AcDbEntity
  8
Cycloidal_Ring_Gear
100
AcDbLine
 10
13.577892691766927
 20
-16.16883129262516
 30
0.0
 11
13.572483227563064
 21
-16.172809201931788
 31
0.0
  0
LINE
  5
F7
330
17
100
AcDbEntity
  8
Cycloidal_Ring_Gear
100
AcDbLine
 10
13.572483227563064
 20
-16.172809201931788
 30
0.0
 11
13.569942781993234
 21
-16.174958818894428
 31
0.0
  0
LINE
  5
F8
330
17
100
AcDbEntity
  8
Cycloidal_Ring_Gear
100
AcDbLine
 10
13.569942781993234
 20
-16.174958818894428
 30
0.0
 11
13.564513856953747
 21
-16.180212042415512
 31
0.0
  0
LINE
  5
F9
330
17
100
AcDbEntity
  8
Cycloidal_Ring_Gear
100
AcDbLine
 10
13.564513856953747
 20
-16.180212042415512
 30
0.0
 11
13.551633242860062
 21
-16.194225717586086
 31
0.0
  0
LINE
  5
FA
330
17
100
AcDbEntity
  8
Cycloidal_Ring_Gear
100
AcDbLine
 10
13.551633242860062
 20
-16.194225717586086
 30
0.0
 11
13.528245223022214
 21
-16.222688757032685
 31
0.0
  0
LINE
  5
FB
330
17
100
AcDbEntity
  8
Cycloidal_Ring_Gear
100
AcDbLine
 10
13.528245223022214
 20
-16.222688757032685
 30
0.0
 11
13.492771641287518
 21
-16.27067308723366
 31
0.0
  0
LINE
  5
FC
330
17
100
AcDbEntity
  8
Cycloidal_Ring_Gear
100
AcDbLine
 10
13.492771641287518
 20
-16.27067308723366
 30
0.0
 11
13.44481572226016
 21
-16.34218467435646
 31
0.0
  0
LINE
  5
FD
330
17
100
AcDbEntity
  8
Cycloidal_Ring_Gear
100
AcDbLine
 10
13.44481572226016
 20
-16.34218467435646
 30
0.0
 11
13.384740143803596
 21
-16.439970305539756
 31
0.0
  0
LINE
  5
FE
330
17
100
AcDbEntity
  8
Cycloidal_Ring_Gear
100
AcDbLine
 10
13.384740143803596
 20
-16.439970305539756
 30
0.0
 11
13.313249906807556
 21
-16.5655442563377
 31
0.0
  0
LINE
  5
FF
330
17
100
AcDbEntity
  8
Cycloidal_Ring_Gear
100
AcDbLine
 10
13.313249906807556
 20
-16.5655442563377
 30
0.0
 11
13.231058969515255
 21
-16.71935365101711
 31
0.0
  0
LINE
  5
100
330
17
100
AcDbEntity
  8
Cycloidal_Ring_Gear
100
AcDbLine
 10
13.231058969515255
 20
-16.71935365101711
 30
0.0
 11
13.138665290313183
 21
-16.901000822915485
 31
0.0
  0
LINE
  5
101
330
17
100
AcDbEntity
  8
Cycloidal_Ring_Gear
100
AcDbLine
 10
13.138665290313183
 20
-16.901000822915485
 30
0.0
 11
13.03622307848762
 21
-17.10946419754668
 31
0.0
  0
LINE
  5
102
330
17
100
AcDbEntity
  8
Cycloidal_Ring_Gear
100
AcDbLine
 10
13.03622307848762
 20
-17.10946419754668
 30
0.0
 11
12.92348606254633
 21
-17.343286169605275
 31
0.0
  0
LINE
  5
103
330
17
100
AcDbEntity
  8
Cycloidal_Ring_Gear
100
AcDbLine
 10
12.92348606254633
 20
-17.343286169605275
 30
0.0
 11
12.799794684830314
 21
-17.600716714377892
 31
0.0
  0
LINE
  5
104
330
17
100
AcDbEntity
  8
Cycloidal_Ring_Gear
100
AcDbLine
 10
12.799794684830314
 20
-17.600716714377892
 30
0.0
 11
12.66408575634865
 21
-17.879812856030412
 31
0.0
  0
LINE
  5
105
330
17
100
AcDbEntity
  8
Cycloidal_Ring_Gear
100
AcDbLine
 10
12.66408575634865
 20
-17.879812856030412
 30
0.0
 11
12.514910336985482
 21
-18.178498406266836
 31
0.0
  0
LINE
  5
106
330
17
100
AcDbEntity
  8
Cycloidal_Ring_Gear
100
AcDbLine
 10
12.514910336985482
 20
-18.178498406266836
 30
0.0
 11
12.35045230278466
 21
-18.494588281451627
 31
0.0
  0
LINE
  5
107
330
17
100
AcDbEntity
  8
Cycloidal_Ring_Gear
100
AcDbLine
 10
12.35045230278466
 20
-18.494588281451627
 30
0.0
 11
12.168545887221942
 21
-18.825779461320597
 31
0.0
  0
LINE
  5
108
330
17
100
AcDbEntity
  8
Cycloidal_Ring_Gear
100
AcDbLine
 10
12.168545887221942
 20
-18.825779461320597
 30
0.0
 11
11.966695966028675
 21
-19.1696079119698
 31
0.0
  0
LINE
  5
109
330
17
100
AcDbEntity
  8
Cycloidal_Ring_Gear
100
AcDbLine
 10
11.966695966028675
 20
-19.1696079119698
 30
0.0
 11
11.742110745155049
 21
-19.523368921924046
 31
0.0
  0
LINE
  5
10A
330
17
100
AcDbEntity
  8
Cycloidal_Ring_Gear
100
AcDbLine
 10
11.742110745155049
 20
-19.523368921924046
 30
0.0
 11
11.491763278869378
 21
-19.88399882074489
 31
0.0
  0
LINE
  5
10B
330
17
100
AcDbEntity
  8
Cycloidal_Ring_Gear
100
AcDbLine
 10
11.491763278869378
 20
-19.88399882074489
 30
0.0
 11
11.212505470194113
 21
-20.24792097845865
 31
0.0
  0
LINE
  5
10C
330
17
100
AcDbEntity
  8
Cycloidal_Ring_Gear
100
AcDbLine
 10
11.212505470194113
 20
-20.24792097845865
 30
0.0
 11
10.901263691042796
 21
-20.610870686320055
 31
0.0
  0
LINE
  5
10D
330
17
100
AcDbEntity
  8
Cycloidal_Ring_Gear
100
AcDbLine
 10
10.901263691042796
 20
-20.610870686320055
 30
0.0
 11
10.555343931415448
 21
-20.96773356975383
 31
0.0
  0
LINE
  5
10E
330
17
100
AcDbEntity
  8
Cycloidal_Ring_Gear
100
AcDbLine
 10
10.555343931415448
 20
-20.96773356975383
 30
0.0
 11
10.17285855317463
 21
-21.312458608332513
 31
0.0
  0
LINE
  5
10F
330
17
100
AcDbEntity
  8
Cycloidal_Ring_Gear
100
AcDbLine
 10
10.17285855317463
 20
-21.312458608332513
 30
0.0
 11
9.753248265982227
 21
-21.638130030142325
 31
0.0
  0
LINE
  5
110
330
17
100
AcDbEntity
  8
Cycloidal_Ring_Gear
100
AcDbLine
 10
9.753248265982227
 20
-21.638130030142325
 30
0.0
 11
9.297811662516448
 21
-21.937282722646565
 31
0.0
  0
LINE
  5
111
330
17
100
AcDbEntity
  8
Cycloidal_Ring_Gear
100
AcDbLine
 10
9.297811662516448
 20
-21.937282722646565
 30
0.0
 11
8.810089625930473
 21
-22.202499880617452
 31
0.0
  0
LINE
  5
112
330
17
100
AcDbEntity
  8
Cycloidal_Ring_Gear
100
AcDbLine
 10
8.810089625930473
 20
-22.202499880617452
 30
0.0
 11
8.295925621218531
 21
-22.427231871388784
 31
0.0
  0
LINE
  5
113
330
17
100
AcDbEntity
  8
Cycloidal_Ring_Gear
100
AcDbLine
 10
8.295925621218531
 20
-22.427231871388784
 30
0.0
 11
7.7630811119101235
 21
-22.606654629993365
 31
0.0
  0
LINE
  5
114
330
17
100
AcDbEntity
  8
Cycloidal_Ring_Gear
100
AcDbLine
 10
7.7630811119101235
 20
-22.606654629993365
 30
0.0
 11
7.220432775174748
 21
-22.73831691091464
 31
0.0
  0
LINE
  5
115
330
17
100
AcDbEntity
  8
Cycloidal_Ring_Gear
100
AcDbLine
 10
7.220432775174748
 20
-22.73831691091464
 30
0.0
 11
6.676948343349456
 21
-22.82237235465396
 31
0.0
  0
LINE
  5
116
330
17
100
AcDbEntity
  8
Cycloidal_Ring_Gear
100
AcDbLine
 10
6.676948343349456
 20
-22.82237235465396
 30
0.0
 11
6.140727338554301
 21
-22.8613456108284
 31
0.0
  0
LINE
  5
117
330
17
100
AcDbEntity
  8
Cycloidal_Ring_Gear
100
AcDbLine
 10
6.140727338554301
 20
-22.8613456108284
 30
0.0
 11
5.6183456971727574
 21
-22.859552960146203
 31
0.0
  0
LINE
  5
118
330
17
100
AcDbEntity
  8
Cycloidal_Ring_Gear
100
AcDbLine
 10
5.6183456971727574
 20
-22.859552960146203
 30
0.0
 11
5.114599002165383
 21
-22.82238977727856
 31
0.0
  0
LINE
  5
119
330
17
100
AcDbEntity
  8
Cycloidal_Ring_Gear
100
AcDbLine
 10
5.114599002165383
 20
-22.82238977727856
 30
0.0
 11
4.632592099680574
 21
-22.755679796794066
 31
0.0
  0
LINE
  5
11A
330
17
100
AcDbEntity
  8
Cycloidal_Ring_Gear
100
AcDbLine
 10
4.632592099680574
 20
-22.755679796794066
 30
0.0
 11
4.174043021128484
 21
-22.66519672733637
 31
0.0
  0
LINE
  5
11B
330
17
100
AcDbEntity
  8
Cycloidal_Ring_Gear
100
AcDbLine
 10
4.174043021128484
 20
-22.66519672733637
 30
0.0
 11
3.739665012096902
 21
-22.556379721717523
 31
0.0
  0
LINE
  5
11C
330
17
100
AcDbEntity
  8
Cycloidal_Ring_Gear
100
AcDbLine
 10
3.739665012096902
 20
-22.556379721717523
 30
0.0
 11
3.329530295196652
 21
-22.434207762936385
 31
0.0
  0
LINE
  5
11D
330
17
100
AcDbEntity
  8
Cycloidal_Ring_Gear
100
AcDbLine
 10
3.329530295196652
 20
-22.434207762936385
 30
0.0
 11
2.94336736165287
 21
-22.30317848073302
 31
0.0
  0
LINE
  5
11E
330
17
100
AcDbEntity
  8
Cycloidal_Ring_Gear
100
AcDbLine
 10
2.94336736165287
 20
-22.30317848073302
 30
0.0
 11
2.5807800327276373
 21
-22.167341275440126
 31
0.0
  0
LINE
  5
11F
330
17
100
AcDbEntity
  8
Cycloidal_Ring_Gear
100
AcDbLine
 10
2.5807800327276373
 20
-22.167341275440126
 30
0.0
 11
2.2413966988080087
 21
-22.03034835705204
 31
0.0
  0
LINE
  5
120
330
17
100
AcDbEntity
  8
Cycloidal_Ring_Gear
100
AcDbLine
 10
2.2413966988080087
 20
-22.03034835705204
 30
0.0
 11
1.9249654745786353
 21
-21.895501187377462
 31
0.0
  0
LINE
  5
121
330
17
100
AcDbEntity
  8
Cycloidal_Ring_Gear
100
AcDbLine
 10
1.9249654745786353
 20
-21.895501187377462
 30
0.0
 11
1.6314106663998207
 21
-21.765780089202423
 31
0.0
  0
LINE
  5
122
330
17
100
AcDbEntity
  8
Cycloidal_Ring_Gear
100
AcDbLine
 10
1.6314106663998207
 20
-21.765780089202423
 30
0.0
 11
1.3608619192252593
 21
-21.643851037682666
 31
0.0
  0
LINE
  5
123
330
17
100
AcDbEntity
  8
Cycloidal_Ring_Gear
100
AcDbLine
 10
1.3608619192252593
 20
-21.643851037682666
 30
0.0
 11
1.1136619590390802
 21
-21.532046888171152
 31
0.0
  0
LINE
  5
124
330
17
100
AcDbEntity
  8
Cycloidal_Ring_Gear
100
AcDbLine
 10
1.1136619590390802
 20
-21.532046888171152
 30
0.0
 11
0.8903529532781831
 21
-21.432321946029457
 31
0.0
  0
LINE
  5
125
330
17
100
AcDbEntity
  8
Cycloidal_Ring_Gear
100
AcDbLine
 10
0.8903529532781831
 20
-21.432321946029457
 30
0.0
 11
0.6916355376404146
 21
-21.346180349086055
 31
0.0
  0
LINE
  5
126
330
17
100
AcDbEntity
  8
Cycloidal_Ring_Gear
100
AcDbLine
 10
0.6916355376404146
 20
-21.346180349086055
 30
0.0
 11
0.5182889140055884
 21
-21.27458177936128
 31
0.0
  0
LINE
  5
127
330
17
100
AcDbEntity
  8
Cycloidal_Ring_Gear
100
AcDbLine
 10
0.5182889140055884
 20
-21.27458177936128
 30
0.0
 11
0.37103626175620885
 21
-21.217834145614322
 31
0.0
  0
LINE
  5
128
330
17
100
AcDbEntity
  8
Cycloidal_Ring_Gear
100
AcDbLine
 10
0.37103626175620885
 20
-21.217834145614322
 30
0.0
 11
0.25033960510576647
 21
-21.17549328140524
 31
0.0
  0
LINE
  5
129
330
17
100
AcDbEntity
  8
Cycloidal_Ring_Gear
100
AcDbLine
 10
0.25033960510576647
 20
-21.17549328140524
 30
0.0
 11
0.15611658128019157
 21
-21.146303963010702
 31
0.0
  0
LINE
  5
12A
330
17
100
AcDbEntity
  8
Cycloidal_Ring_Gear
100
AcDbLine
 10
0.15611658128019157
 20
-21.146303963010702
 30
0.0
 11
0.08739332727705662
 21
-21.12823050581431
 31
0.0
  0
LINE
  5
12B
330
17
100
AcDbEntity
  8
Cycloidal_Ring_Gear
100
AcDbLine
 10
0.08739332727705662
 20
-21.12823050581431
 30
0.0
 11
0.04194492074583889
 21
-21.118628980808023
 31
0.0
  0
LINE
  5
12C
330
17
100
AcDbEntity
  8
Cycloidal_Ring_Gear
100
AcDbLine
 10
0.04194492074583889
 20
-21.118628980808023
 30
0.0
 11
0.01601946496880957
 21
-21.114592512673784
 31
0.0
  0
LINE
  5
12D
330
17
100
AcDbEntity
  8
Cycloidal_Ring_Gear
100
AcDbLine
 10
0.01601946496880957
 20
-21.114592512673784
 30
0.0
 11
0.0042703454432614085
 21
-21.11344661417364
 31
0.0
  0
LINE
  5
12E
330
17
100
AcDbEntity
  8
Cycloidal_Ring_Gear
100
AcDbLine
 10
0.0042703454432614085
 20
-21.11344661417364
 30
0.0
 11
-5.229916918367095e-16
 21
-21.113293881255778
 31
0.0
  0
LINE
  5
12F
330
17
100
AcDbEntity
  8
Cycloidal_Ring_Gear
100
AcDbLine
 10
-5.229916918367095e-16
 20
-21.113293881255778
 30
0.0
 11
-0.004270345443260881
 21
-21.11344661417364
 31
0.0
  0
LINE
  5
130
330
17
100
AcDbEntity
  8
Cycloidal_Ring_Gear
100
AcDbLine
 10
-0.004270345443260881
 20
-21.11344661417364
 30
0.0
 11
-0.016019464968809016
 21
-21.114592512673784
 31
0.0
  0
LINE
  5
131
330
17
100
AcDbEntity
  8
Cycloidal_Ring_Gear
100
AcDbLine
 10
-0.016019464968809016
 20
-21.114592512673784
 30
0.0
 11
-0.04194492074583822
 21
-21.118628980808023
 31
0.0
  0
LINE
  5
132
330
17
100
AcDbEntity
  8
Cycloidal_Ring_Gear
100
AcDbLine
 10
-0.04194492074583822
 20
-21.118628980808023
 30
0.0
 11
-0.08739332727705584
 21
-21.128230505814308
 31
0.0
  0
LINE
  5
133
330
17
100
AcDbEntity
  8
Cycloidal_Ring_Gear
100
AcDbLine
 10
-0.08739332727705584
 20
-21.128230505814308
 30
0.0
 11
-0.1561165812801908
 21
-21.146303963010702
 31
0.0
  0
LINE
  5
134
330
17
100
AcDbEntity
  8
Cycloidal_Ring_Gear
100
AcDbLine
 10
-0.1561165812801908
 20
-21.146303963010702
 30
0.0
 11
-0.25033960510576403
 21
-21.17549328140524
 31
0.0
  0
LINE
  5
135
330
17
100
AcDbEntity
  8
Cycloidal_Ring_Gear
100
AcDbLine
 10
-0.25033960510576403
 20
-21.17549328140524
 30
0.0
 11
-0.37103626175620663
 21
-21.217834145614322
 31
0.0
  0
LINE
  5
136
330
17
100
AcDbEntity
  8
Cycloidal_Ring_Gear
100
AcDbLine
 10
-0.37103626175620663
 20
-21.217834145614322
 30
0.0
 11
-0.5182889140055842
 21
-21.274581779361277
 31
0.0
  0
LINE
  5
137
330
17
100
AcDbEntity
  8
Cycloidal_Ring_Gear
100
AcDbLine
 10
-0.5182889140055842
 20
-21.274581779361277
 30
0.0
 11
-0.6916355376404117
 21
-21.34618034908605
 31
0.0
  0
LINE
  5
138
330
17
100
AcDbEntity
  8
Cycloidal_Ring_Gear
100
AcDbLine
 10
-0.6916355376404117
 20
-21.34618034908605
 30
0.0
 11
-0.8903529532781771
 21
-21.432321946029457
 31
0.0
  0
LINE
  5
139
330
17
100
AcDbEntity
  8
Cycloidal_Ring_Gear
100
AcDbLine
 10
-0.8903529532781771
 20
-21.432321946029457
 30
0.0
 11
-1.1136619590390757
 21
-21.532046888171152
 31
0.0
  0
LINE
  5
13A
330
17
100
AcDbEntity
  8
Cycloidal_Ring_Gear
100
AcDbLine
 10
-1.1136619590390757
 20
-21.532046888171152
 30
0.0
 11
-1.3608619192252558
 21
-21.643851037682666
 31
0.0
  0
LINE
  5
13B
330
17
100
AcDbEntity
  8
Cycloidal_Ring_Gear
100
AcDbLine
 10
-1.3608619192252558
 20
-21.643851037682666
 30
0.0
 11
-1.6314106663998145
 21
-21.76578008920242
 31
0.0
  0
LINE
  5
13C
330
17
100
AcDbEntity
  8
Cycloidal_Ring_Gear
100
AcDbLine
 10
-1.6314106663998145
 20
-21.76578008920242
 30
0.0
 11
-1.9249654745786302
 21
-21.895501187377462
 31
0.0
  0
LINE
  5
13D
330
17
100
AcDbEntity
  8
Cycloidal_Ring_Gear
100
AcDbLine
 10
-1.9249654745786302
 20
-21.895501187377462
 30
0.0
 11
-2.241396698808003
 21
-22.030348357052038
 31
0.0
  0
LINE
  5
13E
330
17
100
AcDbEntity
  8
Cycloidal_Ring_Gear
100
AcDbLine
 10
-2.241396698808003
 20
-22.030348357052038
 30
0.0
 11
-2.580780032727646
 21
-22.167341275440133
 31
0.0
  0
LINE
  5
13F
330
17
100
AcDbEntity
  8
Cycloidal_Ring_Gear
100
AcDbLine
 10
-2.580780032727646
 20
-22.167341275440133
 30
0.0
 11
-2.9433673616528644
 21
-22.303178480733017
 31
0.0
  0
LINE
  5
140
330
17
100
AcDbEntity
  8
Cycloidal_Ring_Gear
100
AcDbLine
 10
-2.9433673616528644
 20
-22.303178480733017
 30
0.0
 11
-3.3295302951966574
 21
-22.434207762936385
 31
0.0
  0
LINE
  5
141
330
17
100
AcDbEntity
  8
Cycloidal_Ring_Gear
100
AcDbLine
 10
-3.3295302951966574
 20
-22.434207762936385
 30
0.0
 11
-3.739665012096908
 21
-22.556379721717523
 31
0.0
  0
LINE
  5
142
330
17
100
AcDbEntity
  8
Cycloidal_Ring_Gear
100
AcDbLine
 10
-3.739665012096908
 20
-22.556379721717523
 30
0.0
 11
-4.174043021128496
 21
-22.665196727336372
 31
0.0
  0
LINE
  5
143
330
17
100
AcDbEntity
  8
Cycloidal_Ring_Gear
100
AcDbLine
 10
-4.174043021128496
 20
-22.665196727336372
 30
0.0
 11
-4.632592099680566
 21
-22.755679796794062
 31
0.0
  0
LINE
  5
144
330
17
100
AcDbEntity
  8
Cycloidal_Ring_Gear
100
AcDbLine
 10
-4.632592099680566
 20
-22.755679796794062
 30
0.0
 11
-5.11459900216539
 21
-22.822389777278563
 31
0.0
  0
LINE
  5
145
330
17
100
AcDbEntity
  8
Cycloidal_Ring_Gear
100
AcDbLine
 10
-5.11459900216539
 20
-22.822389777278563
 30
0.0
 11
-5.618345697172763
 21
-22.859552960146196
 31
0.0
  0
LINE
  5
146
330
17
100
AcDbEntity
  8
Cycloidal_Ring_Gear
100
AcDbLine
 10
-5.618345697172763
 20
-22.859552960146196
 30
0.0
 11
-6.140727338554309
 21
-22.861345610828405
 31
0.0
  0
LINE
  5
147
330
17
100
AcDbEntity
  8
Cycloidal_Ring_Gear
100
AcDbLine
 10
-6.140727338554309
 20
-22.861345610828405
 30
0.0
 11
-6.676948343349472
 21
-22.82237235465396
 31
0.0
  0
LINE
  5
148
330
17
100
AcDbEntity
  8
Cycloidal_Ring_Gear
100
AcDbLine
 10
-6.676948343349472
 20
-22.82237235465396
 30
0.0
 11
-7.2204327751747375
 21
-22.73831691091464
 31
0.0
  0
LINE
  5
149
330
17
100
AcDbEntity
  8
Cycloidal_Ring_Gear
100
AcDbLine
 10
-7.2204327751747375
 20
-22.73831691091464
 30
0.0
 11
-7.7630811119101315
 21
-22.60665462999336
 31
0.0
  0
LINE
  5
14A
330
17
100
AcDbEntity
  8
Cycloidal_Ring_Gear
100
AcDbLine
 10
-7.7630811119101315
 20
-22.60665462999336
 30
0.0
 11
-8.295925621218538
 21
-22.427231871388784
 31
0.0
  0
LINE
  5
14B
330
17
100
AcDbEntity
  8
Cycloidal_Ring_Gear
100
AcDbLine
 10
-8.295925621218538
 20
-22.427231871388784
 30
0.0
 11
-8.81008962593049
 21
-22.20249988061744
 31
0.0
  0
LINE
  5
14C
330
17
100
AcDbEntity
  8
Cycloidal_Ring_Gear
100
AcDbLine
 10
-8.81008962593049
 20
-22.20249988061744
 30
0.0
 11
-9.297811662516452
 21
-21.937282722646557
 31
0.0
  0
LINE
  5
14D
330
17
100
AcDbEntity
  8
Cycloidal_Ring_Gear
100
AcDbLine
 10
-9.297811662516452
 20
-21.937282722646557
 30
0.0
 11
-9.753248265982219
 21
-21.63813003014233
 31
0.0
  0
LINE
  5
14E
330
17
100
AcDbEntity
  8
Cycloidal_Ring_Gear
100
AcDbLine
 10
-9.753248265982219
 20
-21.63813003014233
 30
0.0
 11
-10.17285855317462
 21
-21.312458608332523
 31
0.0
  0
LINE
  5
14F
330
17
100
AcDbEntity
  8
Cycloidal_Ring_Gear
100
AcDbLine
 10
-10.17285855317462
 20
-21.312458608332523
 30
0.0
 11
-10.555343931415429
 21
-20.96773356975384
 31
0.0
  0
LINE
  5
150
330
17
100
AcDbEntity
  8
Cycloidal_Ring_Gear
100
AcDbLine
 10
-10.555343931415429
 20
-20.96773356975384
 30
0.0
 11
-10.901263691042779
 21
-20.61087068632007
 31
0.0
  0
LINE
  5
151
330
17
100
AcDbEntity
  8
Cycloidal_Ring_Gear
100
AcDbLine
 10
-10.901263691042779
 20
-20.61087068632007
 30
0.0
 11
-11.212505470194099
 21
-20.24792097845867
 31
0.0
  0
LINE
  5
152
330
17
100
AcDbEntity
  8
Cycloidal_Ring_Gear
100
AcDbLine
 10
-11.212505470194099
 20
-20.24792097845867
 30
0.0
 11
-11.491763278869374
 21
-19.883998820744896
 31
0.0
  0
LINE
  5
153
330
17
100
AcDbEntity
  8
Cycloidal_Ring_Gear
100
AcDbLine
 10
-11.491763278869374
 20
-19.883998820744896
 30
0.0
 11
-11.742110745155035
 21
-19.52336892192407
 31
0.0
  0
LINE
  5
154
330
17
100
AcDbEntity
  8
Cycloidal_Ring_Gear
100
AcDbLine
 10
-11.742110745155035
 20
-19.52336892192407
 30
0.0
 11
-11.966695966028663
 21
-19.169607911969806
 31
0.0
  0
LINE
  5
155
330
17
100
AcDbEntity
  8
Cycloidal_Ring_Gear
100
AcDbLine
 10
-11.966695966028663
 20
-19.169607911969806
 30
0.0
 11
-12.16854588722193
 21
-18.825779461320618
 31
0.0
  0
LINE
  5
156
330
17
100
AcDbEntity
  8
Cycloidal_Ring_Gear
100
AcDbLine
 10
-12.16854588722193
 20
-18.825779461320618
 30
0.0
 11
-12.35045230278465
 21
-18.49458828145164
 31
0.0
  0
LINE
  5
157
330
17
100
AcDbEntity
  8
Cycloidal_Ring_Gear
100
AcDbLine
 10
-12.35045230278465
 20
-18.49458828145164
 30
0.0
 11
-12.51491033698548
 21
-18.178498406266844
 31
0.0
  0
LINE
  5
158
330
17
100
AcDbEntity
  8
Cycloidal_Ring_Gear
100
AcDbLine
 10
-12.51491033698548
 20
-18.178498406266844
 30
0.0
 11
-12.664085756348639
 21
-17.87981285603042
 31
0.0
  0
LINE
  5
159
330
17
100
AcDbEntity
  8
Cycloidal_Ring_Gear
100
AcDbLine
 10
-12.664085756348639
 20
-17.87981285603042
 30
0.0
 11
-12.799794684830307
 21
-17.6007167143779
 31
0.0
  0
LINE
  5
15A
330
17
100
AcDbEntity
  8
Cycloidal_Ring_Gear
100
AcDbLine
 10
-12.799794684830307
 20
-17.6007167143779
 30
0.0
 11
-12.92348606254632
 21
-17.343286169605285
 31
0.0
  0
LINE
  5
15B
330
17
100
AcDbEntity
  8
Cycloidal_Ring_Gear
100
AcDbLine
 10
-12.92348606254632
 20
-17.343286169605285
 30
0.0
 11
-13.036223078487614
 21
-17.109464197546693
 31
0.0
  0
LINE
  5
15C
330
17
100
AcDbEntity
  8
Cycloidal_Ring_Gear
100
AcDbLine
 10
-13.036223078487614
 20
-17.109464197546693
 30
0.0
 11
-13.138665290313183
 21
-16.90100082291549
 31
0.0
  0
LINE
  5
15D
330
17
100
AcDbEntity
  8
Cycloidal_Ring_Gear
100
AcDbLine
 10
-13.138665290313183
 20
-16.90100082291549
 30
0.0
 11
-13.23105896951525
 21
-16.719353651017112
 31
0.0
  0
LINE
  5
15E
330
17
100
AcDbEntity
  8
Cycloidal_Ring_Gear
100
AcDbLine
 10
-13.23105896951525
 20
-16.719353651017112
 30
0.0
 11
-13.313249906807554
 21
-16.565544256337702
 31
0.0
  0
LINE
  5
15F
330
17
100
AcDbEntity
  8
Cycloidal_Ring_Gear
100
AcDbLine
 10
-13.313249906807554
 20
-16.565544256337702
 30
0.0
 11
-13.384740143803596
 21
-16.439970305539756
 31
0.0
  0
LINE
  5
160
330
17
100
AcDbEntity
  8
Cycloidal_Ring_Gear
100
AcDbLine
 10
-13.384740143803596
 20
-16.439970305539756
 30
0.0
 11
-13.444815722260158
 21
-16.342184674356464
 31
0.0
  0
LINE
  5
161
330
17
100
AcDbEntity
  8
Cycloidal_Ring_Gear
100
AcDbLine
 10
-13.444815722260158
 20
-16.342184674356464
 30
0.0
 11
-13.492771641287513
 21
-16.270673087233664
 31
0.0
  0
LINE
  5
162
330
17
100
AcDbEntity
  8
Cycloidal_Ring_Gear
100
AcDbLine
 10
-13.492771641287513
 20
-16.270673087233664
 30
0.0
 11
-13.528245223022205
 21
-16.222688757032692
 31
0.0
  0
LINE
  5
163
330
17
100
AcDbEntity
  8
Cycloidal_Ring_Gear
100
AcDbLine
 10
-13.528245223022205
 20
-16.222688757032692
 30
0.0
 11
-13.55163324286006
 21
-16.194225717586086
 31
0.0
  0
LINE
  5
164
330
17
100
AcDbEntity
  8
Cycloidal_Ring_Gear
100
AcDbLine
 10
-13.55163324286006
 20
-16.194225717586086
 30
0.0
 11
-13.564513856953747
 21
-16.180212042415512
 31
0.0
  0
LINE
  5
165
330
17
100
AcDbEntity
  8
Cycloidal_Ring_Gear
100
AcDbLine
 10
-13.564513856953747
 20
-16.180212042415512
 30
0.0
 11
-13.569942781993234
 21
-16.17495881889443
 31
0.0
  0
LINE
  5
166
330
17
100
AcDbEntity
  8
Cycloidal_Ring_Gear
100
AcDbLine
 10
-13.569942781993234
 20
-16.17495881889443
 30
0.0
 11
-13.572483227563056
 21
-16.172809201931795
 31
0.0
  0
LINE
  5
167
330
17
100
AcDbEntity
  8
Cycloidal_Ring_Gear
100
AcDbLine
 10
-13.572483227563056
 20
-16.172809201931795
 30
0.0
 11
-13.577892691766928
 21
-16.16883129262516
 31
0.0
  0
LINE
  5
168
330
17
100
AcDbEntity
  8
Cycloidal_Ring_Gear
100
AcDbLine
 10
-13.577892691766928
 20
-16.16883129262516
 30
0.0
 11
-13.592514534667988
 21
-16.1593531166394
 31
0.0
  0
LINE
  5
169
330
17
100
AcDbEntity
  8
Cycloidal_Ring_Gear
100
AcDbLine
 10
-13.592514534667988
 20
-16.1593531166394
 30
0.0
 11
-13.622542215437544
 21
-16.142189223240617
 31
0.0
  0
LINE
  5
16A
330
17
100
AcDbEntity
  8
Cycloidal_Ring_Gear
100
AcDbLine
 10
-13.622542215437544
 20
-16.142189223240617
 30
0.0
 11
-13.673365085026857
 21
-16.116531740804792
 31
0.0
  0
LINE
  5
16B
330
17
100
AcDbEntity
  8
Cycloidal_Ring_Gear
100
AcDbLine
 10
-13.673365085026857
 20
-16.116531740804792
 30
0.0
 11
-13.749147103951907
 21
-16.08259881469835
 31
0.0
  0
LINE
  5
16C
330
17
100
AcDbEntity
  8
Cycloidal_Ring_Gear
100
AcDbLine
 10
-13.749147103951907
 20
-16.08259881469835
 30
0.0
 11
-13.852681084376984
 21
-16.041187400733193
 31
0.0
  0
LINE
  5
16D
330
17
100
AcDbEntity
  8
Cycloidal_Ring_Gear
100
AcDbLine
 10
-13.852681084376984
 20
-16.041187400733193
 30
0.0
 11
-13.985467856468317
 21
-15.993258054418135
 31
0.0
  0
LINE
  5
16E
330
17
100
AcDbEntity
  8
Cycloidal_Ring_Gear
100
AcDbLine
 10
-13.985467856468317
 20
-15.993258054418135
 30
0.0
 11
-14.147928059057977
 21
-15.93962219482853
 31
0.0
  0
LINE
  5
16F
330
17
100
AcDbEntity
  8
Cycloidal_Ring_Gear
100
AcDbLine
 10
-14.147928059057977
 20
-15.93962219482853
 30
0.0
 11
-14.33965937412255
 21
-15.880746898131752
 31
0.0
  0
LINE
  5
170
330
17
100
AcDbEntity
  8
Cycloidal_Ring_Gear
100
AcDbLine
 10
-14.33965937412255
 20
-15.880746898131752
 30
0.0
 11
-14.55968005333533
 21
-15.816658340015353
 31
0.0
  0
LINE
  5
171
330
17
100
AcDbEntity
  8
Cycloidal_Ring_Gear
100
AcDbLine
 10
-14.55968005333533
 20
-15.816658340015353
 30
0.0
 11
-14.80662936555489
 21
-15.746912943835447
 31
0.0
  0
LINE
  5
172
330
17
100
AcDbEntity
  8
Cycloidal_Ring_Gear
100
AcDbLine
 10
-14.80662936555489
 20
-15.746912943835447
 30
0.0
 11
-15.07891686385576
 21
-15.670606949095118
 31
0.0
  0
LINE
  5
173
330
17
100
AcDbEntity
  8
Cycloidal_Ring_Gear
100
AcDbLine
 10
-15.07891686385576
 20
-15.670606949095118
 30
0.0
 11
-15.37482360074179
 21
-15.586402375371891
 31
0.0
  0
LINE
  5
174
330
17
100
AcDbEntity
  8
Cycloidal_Ring_Gear
100
AcDbLine
 10
-15.37482360074179
 20
-15.586402375371891
 30
0.0
 11
-15.692562039457028
 21
-15.492555308118224
 31
0.0
  0
LINE
  5
175
330
17
100
AcDbEntity
  8
Cycloidal_Ring_Gear
100
AcDbLine
 10
-15.692562039457028
 20
-15.492555308118224
 30
0.0
 11
-16.03030048442873
 21
-15.38693917092246
 31
0.0
  0
LINE
  5
176
330
17
100
AcDbEntity
  8
Cycloidal_Ring_Gear
100
AcDbLine
 10
-16.03030048442873
 20
-15.38693917092246
 30
0.0
 11
-16.386154762574805
 21
-15.267061100034827
 31
0.0
  0
LINE
  5
177
330
17
100
AcDbEntity
  8
Cycloidal_Ring_Gear
100
AcDbLine
 10
-16.386154762574805
 20
-15.267061100034827
 30
0.0
 11
-16.758146222977125
 21
-15.130074458763449
 31
0.0
  0
LINE
  5
178
330
17
100
AcDbEntity
  8
Cycloidal_Ring_Gear
100
AcDbLine
 10
-16.758146222977125
 20
-15.130074458763449
 30
0.0
 11
-17.144122105219132
 21
-14.972795898982625
 31
0.0
  0
LINE
  5
179
330
17
100
AcDbEntity
  8
Cycloidal_Ring_Gear
100
AcDbLine
 10
-17.144122105219132
 20
-14.972795898982625
 30
0.0
 11
-17.541633331633157
 21
-14.791741972219425
 31
0.0
  0
LINE
  5
17A
330
17
100
AcDbEntity
  8
Cycloidal_Ring_Gear
100
AcDbLine
 10
-17.541633331633157
 20
-14.791741972219425
 30
0.0
 11
-17.947767779257152
 21
-14.583208174839552
 31
0.0
  0
LINE
  5
17B
330
17
100
AcDbEntity
  8
Cycloidal_Ring_Gear
100
AcDbLine
 10
-17.947767779257152
 20
-14.583208174839552
 30
0.0
 11
-18.358946744212513
 21
-14.343420971317709
 31
0.0
  0
LINE
  5
17C
330
17
100
AcDbEntity
  8
Cycloidal_Ring_Gear
100
AcDbLine
 10
-18.358946744212513
 20
-14.343420971317709
 30
0.0
 11
-18.770711167018796
 21
-14.068796525262302
 31
0.0
  0
LINE
  5
17D
330
17
100
AcDbEntity
  8
Cycloidal_Ring_Gear
100
AcDbLine
 10
-18.770711167018796
 20
-14.068796525262302
 30
0.0
 11
-19.177552197943196
 21
-13.756330824630144
 31
0.0
  0
LINE
  5
17E
330
17
100
AcDbEntity
  8
Cycloidal_Ring_Gear
100
AcDbLine
 10
-19.177552197943196
 20
-13.756330824630144
 30
0.0
 11
-19.572870853734198
 21
-13.404114962240895
 31
0.0
  0
LINE
  5
17F
330
17
100
AcDbEntity
  8
Cycloidal_Ring_Gear
100
AcDbLine
 10
-19.572870853734198
 20
-13.404114962240895
 30
0.0
 11
-19.94916586020091
 21
-13.01191170574373
 31
0.0
  0
LINE
  5
180
330
17
100
AcDbEntity
  8
Cycloidal_Ring_Gear
100
AcDbLine
 10
-19.94916586020091
 20
-13.01191170574373
 30
0.0
 11
-20.298521019439796
 21
-12.581657237013085
 31
0.0
  0
LINE
  5
181
330
17
100
AcDbEntity
  8
Cycloidal_Ring_Gear
100
AcDbLine
 10
-20.298521019439796
 20
-12.581657237013085
 30
0.0
 11
-20.61337613495635
 21
-12.11770290028328
 31
0.0
  0
LINE
  5
182
330
17
100
AcDbEntity
  8
Cycloidal_Ring_Gear
100
AcDbLine
 10
-20.61337613495635
 20
-12.11770290028328
 30
0.0
 11
-20.887437689965104
 21
-11.626637425742738
 31
0.0
  0
LINE
  5
183
330
17
100
AcDbEntity
  8
Cycloidal_Ring_Gear
100
AcDbLine
 10
-20.887437689965104
 20
-11.626637425742738
 30
0.0
 11
-21.11648377820912
 21
-11.116653826817355
 31
0.0
  0
LINE
  5
184
330
17
100
AcDbEntity
  8
Cycloidal_Ring_Gear
100
AcDbLine
 10
-21.11648377820912
 20
-11.116653826817355
 30
0.0
 11
-21.298819806493157
 21
-10.596600919783306
 31
0.0
  0
LINE
  5
185
330
17
100
AcDbEntity
  8
Cycloidal_Ring_Gear
100
AcDbLine
 10
-21.298819806493157
 20
-10.596600919783306
 30
0.0
 11
-21.435266203468654
 21
-10.07498574962567
 31
0.0
  0
LINE
  5
186
330
17
100
AcDbEntity
  8
Cycloidal_Ring_Gear
100
AcDbLine
 10
-21.435266203468654
 20
-10.07498574962567
 30
0.0
 11
-21.528737007966125
 21
-9.559191696706288
 31
0.0
  0
LINE
  5
187
330
17
100
AcDbEntity
  8
Cycloidal_Ring_Gear
100
AcDbLine
 10
-21.528737007966125
 20
-9.559191696706288
 30
0.0
 11
-21.583594350502732
 21
-9.055059279452403
 31
0.0
  0
LINE
  5
188
330
17
100
AcDbEntity
  8
Cycloidal_Ring_Gear
100
AcDbLine
 10
-21.583594350502732
 20
-9.055059279452403
 30
0.0
 11
-21.60498382172237
 21
-8.56682675563324
 31
0.0
  0
LINE
  5
189
330
17
100
AcDbEntity
  8
Cycloidal_Ring_Gear
100
AcDbLine
 10
-21.60498382172237
 20
-8.56682675563324
 30
0.0
 11
-21.598292166676202
 21
-8.097326219027519
 31
0.0
  0
LINE
  5
18A
330
17
100
AcDbEntity
  8
Cycloidal_Ring_Gear
100
AcDbLine
 10
-21.598292166676202
 20
-8.097326219027519
 30
0.0
 11
-21.568781075243667
 21
-7.64830389225774
 31
0.0
  0
LINE
  5
18B
330
17
100
AcDbEntity
  8
Cycloidal_Ring_Gear
100
AcDbLine
 10
-21.568781075243667
 20
-7.64830389225774
 30
0.0
 11
-21.521384571767783
 21
-7.220759087001299
 31
0.0
  0
LINE
  5
18C
330
17
100
AcDbEntity
  8
Cycloidal_Ring_Gear
100
AcDbLine
 10
-21.521384571767783
 20
-7.220759087001299
 30
0.0
 11
-21.460626268949703
 21
-6.815240111061654
 31
0.0
  0
LINE
  5
18D
330
17
100
AcDbEntity
  8
Cycloidal_Ring_Gear
100
AcDbLine
 10
-21.460626268949703
 20
-6.815240111061654
 30
0.0
 11
-21.390608568322342
 21
-6.4320734521700444
 31
0.0
  0
LINE
  5
18E
330
17
100
AcDbEntity
  8
Cycloidal_Ring_Gear
100
AcDbLine
 10
-21.390608568322342
 20
-6.4320734521700444
 30
0.0
 11
-21.31503514770992
 21
-6.071526423717202
 31
0.0
  0
LINE
  5
18F
330
17
100
AcDbEntity
  8
Cycloidal_Ring_Gear
100
AcDbLine
 10
-21.31503514770992
 20
-6.071526423717202
 30
0.0
 11
-21.237240518243784
 21
-5.733914279307569
 31
0.0
  0
LINE
  5
190
330
17
100
AcDbEntity
  8
Cycloidal_Ring_Gear
100
AcDbLine
 10
-21.237240518243784
 20
-5.733914279307569
 30
0.0
 11
-21.160210960281017
 21
-5.419664944869573
 31
0.0
  0
LINE
  5
191
330
17
100
AcDbEntity
  8
Cycloidal_Ring_Gear
100
AcDbLine
 10
-21.160210960281017
 20
-5.419664944869573
 30
0.0
 11
-21.086588362069506
 21
-5.129351970740544
 31
0.0
  0
LINE
  5
192
330
17
100
AcDbEntity
  8
Cycloidal_Ring_Gear
100
AcDbLine
 10
-21.086588362069506
 20
-5.129351970740544
 30
0.0
 11
-21.018652868524892
 21
-4.863701636831654
 31
0.0
  0
LINE
  5
193
330
17
100
AcDbEntity
  8
Cycloidal_Ring_Gear
100
AcDbLine
 10
-21.018652868524892
 20
-4.863701636831654
 30
0.0
 11
-20.958282994109506
 21
-4.623574670005533
 31
0.0
  0
LINE
  5
194
330
17
100
AcDbEntity
  8
Cycloidal_Ring_Gear
100
AcDbLine
 10
-20.958282994109506
 20
-4.623574670005533
 30
0.0
 11
-20.906894368128924
 21
-4.409917405189146
 31
0.0
  0
LINE
  5
195
330
17
100
AcDbEntity
  8
Cycloidal_Ring_Gear
100
AcDbLine
 10
-20.906894368128924
 20
-4.409917405189146
 30
0.0
 11
-20.865362032538957
 21
-4.223672077612698
 31
0.0
  0
LINE
  5
196
330
17
100
AcDbEntity
  8
Cycloidal_Ring_Gear
100
AcDbLine
 10
-20.865362032538957
 20
-4.223672077612698
 30
0.0
 11
-20.83393760294763
 21
-4.06563256915238
 31
0.0
  0
LINE
  5
197
330
17
100
AcDbEntity
  8
Cycloidal_Ring_Gear
100
AcDbLine
 10
-20.83393760294763
 20
-4.06563256915238
 30
0.0
 11
-20.812182484055718
 21
-3.9362329279062434
 31
0.0
  0
LINE
  5
198
330
17
100
AcDbEntity
  8
Cycloidal_Ring_Gear
100
AcDbLine
 10
-20.812182484055718
 20
-3.9362329279062434
 30
0.0
 11
-20.798950831056448
 21
-3.8352654053066315
 31
0.0
  0
LINE
  5
199
330
17
100
AcDbEntity
  8
Cycloidal_Ring_Gear
100
AcDbLine
 10
-20.798950831056448
 20
-3.8352654053066315
 30
0.0
 11
-20.79246660789933
 21
-3.761547015485193
 31
0.0
  0
LINE
  5
19A
330
17
100
AcDbEntity
  8
Cycloidal_Ring_Gear
100
AcDbLine
 10
-20.79246660789933
 20
-3.761547015485193
 30
0.0
 11
-20.79053839706983
 21
-3.7125896957872877
 31
0.0
  0
LINE
  5
19B
330
17
100
AcDbEntity
  8
Cycloidal_Ring_Gear
100
AcDbLine
 10
-20.79053839706983
 20
-3.7125896957872877
 30
0.0
 11
-20.79093092218674
 21
-3.684370179644221
 31
0.0
  0
LINE
  5
19C
330
17
100
AcDbEntity
  8
Cycloidal_Ring_Gear
100
AcDbLine
 10
-20.79093092218674
 20
-3.684370179644221
 30
0.0
 11
-20.791856725645708
 21
-3.671318252601228
 31
0.0
  0
LINE
  5
19D
330
17
100
AcDbEntity
  8
Cycloidal_Ring_Gear
100
AcDbLine
 10
-20.791856725645708
 20
-3.671318252601228
 30
0.0
 11
-20.792478537483277
 21
-3.666614787543405
 31
0.0
  0
LINE
  5
19E
330
17
100
AcDbEntity
  8
Cycloidal_Ring_Gear
100
AcDbLine
 10
-20.792478537483277
 20
-3.666614787543405
 30
0.0
 11
-20.793262782960387
 21
-3.662799141252771
 31
0.0
  0
LINE
  5
19F
330
17
100
AcDbEntity
  8
Cycloidal_Ring_Gear
100
AcDbLine
 10
-20.793262782960387
 20
-3.662799141252771
 30
0.0
 11
-20.79604412357658
 21
-3.6525594347719976
 31
0.0
  0
LINE
  5
1A0
330
17
100
AcDbEntity
  8
Cycloidal_Ring_Gear
100
AcDbLine
 10
-20.79604412357658
 20
-3.6525594347719976
 30
0.0
 11
-20.803760029533244
 21
-3.629490616351475
 31
0.0
  0
LINE
  5
1A1
330
17
100
AcDbEntity
  8
Cycloidal_Ring_Gear
100
AcDbLine
 10
-20.803760029533244
 20
-3.629490616351475
 30
0.0
 11
-20.81994297318071
 21
-3.588615438624017
 31
0.0
  0
LINE
  5
1A2
330
17
100
AcDbEntity
  8
Cycloidal_Ring_Gear
100
AcDbLine
 10
-20.81994297318071
 20
-3.588615438624017
 30
0.0
 11
-20.84813893063258
 21
-3.526567762046258
 31
0.0
  0
LINE
  5
1A3
330
17
100
AcDbEntity
  8
Cycloidal_Ring_Gear
100
AcDbLine
 10
-20.84813893063258
 20
-3.526567762046258
 30
0.0
 11
-20.89141430374666
 21
-3.441467847404609
 31
0.0
  0
LINE
  5
1A4
330
17
100
AcDbEntity
  8
Cycloidal_Ring_Gear
100
AcDbLine
 10
-20.89141430374666
 20
-3.441467847404609
 30
0.0
 11
-20.95204202533695
 21
-3.3326039155148246
 31
0.0
  0
LINE
  5
1A5
330
17
100
AcDbEntity
  8
Cycloidal_Ring_Gear
100
AcDbLine
 10
-20.95204202533695
 20
-3.3326039155148246
 30
0.0
 11
-21.03137564806127
 21
-3.200048669619218
 31
0.0
  0
LINE
  5
1A6
330
17
100
AcDbEntity
  8
Cycloidal_Ring_Gear
100
AcDbLine
 10
-21.03137564806127
 20
-3.200048669619218
 30
0.0
 11
-21.12986723406198
 21
-3.0443051765868328
 31
0.0
  0
LINE
  5
1A7
330
17
100
AcDbEntity
  8
Cycloidal_Ring_Gear
100
AcDbLine
 10
-21.12986723406198
 20
-3.0443051765868328
 30
0.0
 11
-21.247168820656363
 21
-2.8660286752584416
 31
0.0
  0
LINE
  5
1A8
330
17
100
AcDbEntity
  8
Cycloidal_Ring_Gear
100
AcDbLine
 10
-21.247168820656363
 20
-2.8660286752584416
 30
0.0
 11
-21.38226573296716
 21
-2.6658330842667493
 31
0.0
  0
LINE
  5
1A9
330
17
100
AcDbEntity
  8
Cycloidal_Ring_Gear
100
AcDbLine
 10
-21.38226573296716
 20
-2.6658330842667493
 30
0.0
 11
-21.533607315442445
 21
-2.444170163289447
 31
0.0
  0
LINE
  5
1AA
330
17
100
AcDbEntity
  8
Cycloidal_Ring_Gear
100
AcDbLine
 10
-21.533607315442445
 20
-2.444170163289447
 30
0.0
 11
-21.699216616869066
 21
-2.201262389385145
 31
0.0
  0
LINE
  5
1AB
330
17
100
AcDbEntity
  8
Cycloidal_Ring_Gear
100
AcDbLine
 10
-21.699216616869066
 20
-2.201262389385145
 30
0.0
 11
-21.876771400203488
 21
-1.937071922017052
 31
0.0
  0
LINE
  5
1AC
330
17
100
AcDbEntity
  8
Cycloidal_Ring_Gear
100
AcDbLine
 10
-21.876771400203488
 20
-1.937071922017052
 30
0.0
 11
-22.06365463344027
 21
-1.651292980571181
 31
0.0
  0
LINE
  5
1AD
330
17
100
AcDbEntity
  8
Cycloidal_Ring_Gear
100
AcDbLine
 10
-22.06365463344027
 20
-1.651292980571181
 30
0.0
 11
-22.25697491309484
 21
-1.3433610050377656
 31
0.0
  0
LINE
  5
1AE
330
17
100
AcDbEntity
  8
Cycloidal_Ring_Gear
100
AcDbLine
 10
-22.25697491309484
 20
-1.3433610050377656
 30
0.0
 11
-22.453557861640643
 21
-1.0124781315702305
 31
0.0
  0
LINE
  5
1AF
330
17
100
AcDbEntity
  8
Cycloidal_Ring_Gear
100
AcDbLine
 10
-22.453557861640643
 20
-1.0124781315702305
 30
0.0
 11
-22.649910056061607
 21
-0.6576606123207885
 31
0.0
  0
LINE
  5
1B0
330
17
100
AcDbEntity
  8
Cycloidal_Ring_Gear
100
AcDbLine
 10
-22.649910056061607
 20
-0.6576606123207885
 30
0.0
 11
-22.842159028426007
 21
-0.27781977581366846
 31
0.0
  0
LINE
  5
1B1
330
17
100
AcDbEntity
  8
Cycloidal_Ring_Gear
100
AcDbLine
 10
-22.842159028426007
 20
-0.27781977581366846
 30
0.0
 11
-23.02597790238051
 21
0.12810665457447823
 31
0.0
  0
LINE
  5
1B2
330
17
100
AcDbEntity
  8
Cycloidal_Ring_Gear
100
AcDbLine
 10
-23.02597790238051
 20
0.12810665457447823
 30
0.0
 11
-23.196512731433526
 21
0.5609534604925792
 31
0.0
  0
LINE
  5
1B3
330
17
100
AcDbEntity
  8
Cycloidal_Ring_Gear
100
AcDbLine
 10
-23.196512731433526
 20
0.5609534604925792
 30
0.0
 11
-23.34834506427071
 21
1.0210414007896227
 31
0.0
  0
LINE
  5
1B4
330
17
100
AcDbEntity
  8
Cycloidal_Ring_Gear
100
AcDbLine
 10
-23.34834506427071
 20
1.0210414007896227
 30
0.0
 11
-23.47553934946683
 21
1.5078053796698465
 31
0.0
  0
LINE
  5
1B5
330
17
100
AcDbEntity
  8
Cycloidal_Ring_Gear
100
AcDbLine
 10
-23.47553934946683
 20
1.5078053796698465
 30
0.0
 11
-23.5718367665067
 21
2.019370504007226
 31
0.0
  0
LINE
  5
1B6
330
17
100
AcDbEntity
  8
Cycloidal_Ring_Gear
100
AcDbLine
 10
-23.5718367665067
 20
2.019370504007226
 30
0.0
 11
-23.63104945495458
 21
2.552158821512936
 31
0.0
  0
LINE
  5
1B7
330
17
100
AcDbEntity
  8
Cycloidal_Ring_Gear
100
AcDbLine
 10
-23.63104945495458
 20
2.552158821512936
 30
0.0
 11
-23.647665175137682
 21
3.1006602380269004
 31
0.0
  0
LINE
  5
1B8
330
17
100
AcDbEntity
  8
Cycloidal_Ring_Gear
100
AcDbLine
 10
-23.647665175137682
 20
3.1006602380269004
 30
0.0
 11
-23.617587629610654
 21
3.6575187951634245
 31
0.0
  0
LINE
  5
1B9
330
17
100
AcDbEntity
  8
Cycloidal_Ring_Gear
100
AcDbLine
 10
-23.617587629610654
 20
3.6575187951634245
 30
0.0
 11
-23.538838899122116
 21
4.214031010853123
 31
0.0
  0
LINE
  5
1BA
330
17
100
AcDbEntity
  8
Cycloidal_Ring_Gear
100
AcDbLine
 10
-23.538838899122116
 20
4.214031010853123
 30
0.0
 11
-23.41199841357759
 21
4.76101809259723
 31
0.0
  0
LINE
  5
1BB
330
17
100
AcDbEntity
  8
Cycloidal_Ring_Gear
100
AcDbLine
 10
-23.41199841357759
 20
4.76101809259723
 30
0.0
 11
-23.24020537332236
 21
5.289872847634651
 31
0.0
  0
LINE
  5
1BC
330
17
100
AcDbEntity
  8
Cycloidal_Ring_Gear
100
AcDbLine
 10
-23.24020537332236
 20
5.289872847634651
 30
0.0
 11
-23.028704732788587
 21
5.793492484621483
 31
0.0
  0
LINE
  5
1BD
330
17
100
AcDbEntity
  8
Cycloidal_Ring_Gear
100
AcDbLine
 10
-23.028704732788587
 20
5.793492484621483
 30
0.0
 11
-22.784088133597056
 21
6.2668548319495905
 31
0.0
  0
LINE
  5
1BE
330
17
100
AcDbEntity
  8
Cycloidal_Ring_Gear
100
AcDbLine
 10
-22.784088133597056
 20
6.2668548319495905
 30
0.0
 11
-22.51346976910941
 21
6.707148642741425
 31
0.0
  0
LINE
  5
1BF
330
17
100
AcDbEntity
  8
Cycloidal_Ring_Gear
100
AcDbLine
 10
-22.51346976910941
 20
6.707148642741425
 30
0.0
 11
-22.223806438870792
 21
7.11353095277018
 31
0.0
  0
LINE
  5
1C0
330
17
100
AcDbEntity
  8
Cycloidal_Ring_Gear
100
AcDbLine
 10
-22.223806438870792
 20
7.11353095277018
 30
0.0
 11
-21.921465921085467
 21
7.4866731808508575
 31
0.0
  0
LINE
  5
1C1
330
17
100
AcDbEntity
  8
Cycloidal_Ring_Gear
100
AcDbLine
 10
-21.921465921085467
 20
7.4866731808508575
 30
0.0
 11
-21.612041523354993
 21
7.828257257451433
 31
0.0
  0
LINE
  5
1C2
330
17
100
AcDbEntity
  8
Cycloidal_Ring_Gear
100
AcDbLine
 10
-21.612041523354993
 20
7.828257257451433
 30
0.0
 11
-21.300348409599735
 21
8.140529903611053
 31
0.0
  0
LINE
  5
1C3
330
17
100
AcDbEntity
  8
Cycloidal_Ring_Gear
100
AcDbLine
 10
-21.300348409599735
 20
8.140529903611053
 30
0.0
 11
-20.990522721631812
 21
8.425961689497427
 31
0.0
  0
LINE
  5
1C4
330
17
100
AcDbEntity
  8
Cycloidal_Ring_Gear
100
AcDbLine
 10
-20.990522721631812
 20
8.425961689497427
 30
0.0
 11
-20.686158816394244
 21
8.687013107282828
 31
0.0
  0
LINE
  5
1C5
330
17
100
AcDbEntity
  8
Cycloidal_Ring_Gear
100
AcDbLine
 10
-20.686158816394244
 20
8.687013107282828
 30
0.0
 11
-20.390443125575118
 21
8.925987522033472
 31
0.0
  0
LINE
  5
1C6
330
17
100
AcDbEntity
  8
Cycloidal_Ring_Gear
100
AcDbLine
 10
-20.390443125575118
 20
8.925987522033472
 30
0.0
 11
-20.106263364128576
 21
9.144944842773006
 31
0.0
  0
LINE
  5
1C7
330
17
100
AcDbEntity
  8
Cycloidal_Ring_Gear
100
AcDbLine
 10
-20.106263364128576
 20
9.144944842773006
 30
0.0
 11
-19.83628508520951
 21
9.345652536825057
 31
0.0
  0
LINE
  5
1C8
330
17
100
AcDbEntity
  8
Cycloidal_Ring_Gear
100
AcDbLine
 10
-19.83628508520951
 20
9.345652536825057
 30
0.0
 11
-19.582994306062453
 21
9.529556718332412
 31
0.0
  0
LINE
  5
1C9
330
17
100
AcDbEntity
  8
Cycloidal_Ring_Gear
100
AcDbLine
 10
-19.582994306062453
 20
9.529556718332412
 30
0.0
 11
-19.348707008342913
 21
9.697762643881044
 31
0.0
  0
LINE
  5
1CA
330
17
100
AcDbEntity
  8
Cycloidal_Ring_Gear
100
AcDbLine
 10
-19.348707008342913
 20
9.697762643881044
 30
0.0
 11
-19.13554568914237
 21
9.851020125367132
 31
0.0
  0
LINE
  5
1CB
330
17
100
AcDbEntity
  8
Cycloidal_Ring_Gear
100
AcDbLine
 10
-19.13554568914237
 20
9.851020125367132
 30
0.0
 11
-18.945381423158615
 21
9.989715249234694
 31
0.0
  0
LINE
  5
1CC
330
17
100
AcDbEntity
  8
Cycloidal_Ring_Gear
100
AcDbLine
 10
-18.945381423158615
 20
9.989715249234694
 30
0.0
 11
-18.779738559105375
 21
10.113875868127273
 31
0.0
  0
LINE
  5
1CD
330
17
100
AcDbEntity
  8
Cycloidal_Ring_Gear
100
AcDbLine
 10
-18.779738559105375
 20
10.113875868127273
 30
0.0
 11
-18.639659883025722
 21
10.223204901129478
 31
0.0
  0
LINE
  5
1CE
330
17
100
AcDbEntity
  8
Cycloidal_Ring_Gear
100
AcDbLine
 10
-18.639659883025722
 20
10.223204901129478
 30
0.0
 11
-18.52553495330779
 21
10.317161966413558
 31
0.0
  0
LINE
  5
1CF
330
17
100
AcDbEntity
  8
Cycloidal_Ring_Gear
100
AcDbLine
 10
-18.52553495330779
 20
10.317161966413558
 30
0.0
 11
-18.436905662354878
 21
10.395117950898115
 31
0.0
  0
LINE
  5
1D0
330
17
100
AcDbEntity
  8
Cycloidal_Ring_Gear
100
AcDbLine
 10
-18.436905662354878
 20
10.395117950898115
 30
0.0
 11
-18.372282096901795
 21
10.456603933372747
 31
0.0
  0
LINE
  5
1D1
330
17
100
AcDbEntity
  8
Cycloidal_Ring_Gear
100
AcDbLine
 10
-18.372282096901795
 20
10.456603933372747
 30
0.0
 11
-18.329025641942525
 21
10.50165844557598
 31
0.0
  0
LINE
  5
1D2
330
17
100
AcDbEntity
  8
Cycloidal_Ring_Gear
100
AcDbLine
 10
-18.329025641942525
 20
10.50165844557598
 30
0.0
 11
-18.303374570859752
 21
10.531239930587114
 31
0.0
  0
LINE
  5
1D3
330
17
100
AcDbEntity
  8
Cycloidal_Ring_Gear
100
AcDbLine
 10
-18.303374570859752
 20
10.531239930587114
 30
0.0
 11
-18.290681425525186
 21
10.547618573664614
 31
0.0
  0
LINE
  5
1D4
330
17
100
AcDbEntity
  8
Cycloidal_Ring_Gear
100
AcDbLine
 10
-18.290681425525186
 20
10.547618573664614
 30
0.0
 11
-18.285883089262494
 21
10.554615790708763
 31
0.0
  0
LINE
  5
1D5
330
17
100
AcDbEntity
  8
Cycloidal_Ring_Gear
100
AcDbLine
 10
-18.285883089262494
 20
10.554615790708763
 30
0.0
 11
-18.28413541833859
 21
10.557558487800852
 31
0.0
  0
LINE
  5
1D6
330
17
100
AcDbEntity
  8
Cycloidal_Ring_Gear
100
AcDbLine
 10
-18.28413541833859
 20
10.557558487800852
 30
0.0
 11
-18.281452825765093
 21
10.562887151060078
 31
0.0
  0
LINE
  5
1D7
330
17
100
AcDbEntity
  8
Cycloidal_Ring_Gear
100
AcDbLine
 10
-18.281452825765093
 20
10.562887151060078
 30
0.0
 11
-18.275160383778353
 21
10.57748495916287
 31
0.0
  0
LINE
  5
1D8
330
17
100
AcDbEntity
  8
Cycloidal_Ring_Gear
100
AcDbLine
 10
-18.275160383778353
 20
10.57748495916287
 30
0.0
 11
-18.26402741396808
 21
10.607910837657709
 31
0.0
  0
LINE
  5
1D9
330
17
100
AcDbEntity
  8
Cycloidal_Ring_Gear
100
AcDbLine
 10
-18.26402741396808
 20
10.607910837657709
 30
0.0
 11
-18.248077360138936
 21
10.65975011336221
 31
0.0
  0
LINE
  5
1DA
330
17
100
AcDbEntity
  8
Cycloidal_Ring_Gear
100
AcDbLine
 10
-18.248077360138936
 20
10.65975011336221
 30
0.0
 11
-18.228182866779456
 21
10.737227612830882
 31
0.0
  0
LINE
  5
1DB
330
17
100
AcDbEntity
  8
Cycloidal_Ring_Gear
100
AcDbLine
 10
-18.228182866779456
 20
10.737227612830882
 30
0.0
 11
-18.205598370883763
 21
10.843112193817737
 31
0.0
  0
LINE
  5
1DC
330
17
100
AcDbEntity
  8
Cycloidal_Ring_Gear
100
AcDbLine
 10
-18.205598370883763
 20
10.843112193817737
 30
0.0
 11
-18.181553289340357
 21
10.978847825858994
 31
0.0
  0
LINE
  5
1DD
330
17
100
AcDbEntity
  8
Cycloidal_Ring_Gear
100
AcDbLine
 10
-18.181553289340357
 20
10.978847825858994
 30
0.0
 11
-18.156966275791273
 21
11.1448088328099
 31
0.0
  0
LINE
  5
1DE
330
17
100
AcDbEntity
  8
Cycloidal_Ring_Gear
100
AcDbLine
 10
-18.156966275791273
 20
11.1448088328099
 30
0.0
 11
-18.13228503513037
 21
11.34058777534434
 31
0.0
  0
LINE
  5
1DF
330
17
100
AcDbEntity
  8
Cycloidal_Ring_Gear
100
AcDbLine
 10
-18.13228503513037
 20
11.34058777534434
 30
0.0
 11
-18.107424765591684
 21
11.56525710503068
 31
0.0
  0
LINE
  5
1E0
330
17
100
AcDbEntity
  8
Cycloidal_Ring_Gear
100
AcDbLine
 10
-18.107424765591684
 20
11.56525710503068
 30
0.0
 11
-18.08176962232001
 21
11.817578014658082
 31
0.0
  0
LINE
  5
1E1
330
17
100
AcDbEntity
  8
Cycloidal_Ring_Gear
100
AcDbLine
 10
-18.08176962232001
 20
11.817578014658082
 30
0.0
 11
-18.054206058623034
 21
12.096151876470948
 31
0.0
  0
LINE
  5
1E2
330
17
100
AcDbEntity
  8
Cycloidal_Ring_Gear
100
AcDbLine
 10
-18.054206058623034
 20
12.096151876470948
 30
0.0
 11
-18.023165869454402
 21
12.39952052896542
 31
0.0
  0
LINE
  5
1E3
330
17
100
AcDbEntity
  8
Cycloidal_Ring_Gear
100
AcDbLine
 10
-18.023165869454402
 20
12.39952052896542
 30
0.0
 11
-17.986665401871328
 21
12.726224523327021
 31
0.0
  0
LINE
  5
1E4
330
17
100
AcDbEntity
  8
Cycloidal_Ring_Gear
100
AcDbLine
 10
-17.986665401871328
 20
12.726224523327021
 30
0.0
 11
-17.942334096153072
 21
13.074826697079727
 31
0.0
  0
LINE
  5
1E5
330
17
100
AcDbEntity
  8
Cycloidal_Ring_Gear
100
AcDbLine
 10
-17.942334096153072
 20
13.074826697079727
 30
0.0
 11
-17.8874304915184
 21
13.443904579756653
 31
0.0
  0
LINE
  5
1E6
330
17
100
AcDbEntity
  8
Cycloidal_Ring_Gear
100
AcDbLine
 10
-17.8874304915184
 20
13.443904579756653
 30
0.0
 11
-17.81884805191355
 21
13.832010671418464
 31
0.0
  0
LINE
  5
1E7
330
17
100
AcDbEntity
  8
Cycloidal_Ring_Gear
100
AcDbLine
 10
-17.81884805191355
 20
13.832010671418464
 30
0.0
 11
-17.733117814496815
 21
14.237595617139265
 31
0.0
  0
LINE
  5
1E8
330
17
100
AcDbEntity
  8
Cycloidal_Ring_Gear
100
AcDbLine
 10
-17.733117814496815
 20
14.237595617139265
 30
0.0
 11
-17.626420976358528
 21
14.658886899093277
 31
0.0
  0
LINE
  5
1E9
330
17
100
AcDbEntity
  8
Cycloidal_Ring_Gear
100
AcDbLine
 10
-17.626420976358528
 20
14.658886899093277
 30
0.0
 11
-17.4946326152145
 21
15.093716716049526
 31
0.0
  0
LINE
  5
1EA
330
17
100
AcDbEntity
  8
Cycloidal_Ring_Gear
100
AcDbLine
 10
-17.4946326152145
 20
15.093716716049526
 30
0.0
 11
-17.333426978263855
 21
15.539300002156075
 31
0.0
  0
LINE
  5
1EB
330
17
100
AcDbEntity
  8
Cycloidal_Ring_Gear
100
AcDbLine
 10
-17.333426978263855
 20
15.539300002156075
 30
0.0
 11
-17.13848179811556
 21
15.991980328952318
 31
0.0
  0
LINE
  5
1EC
330
17
100
AcDbEntity
  8
Cycloidal_Ring_Gear
100
AcDbLine
 10
-17.13848179811556
 20
15.991980328952318
 30
0.0
 11
-16.90581671432701
 21
16.4469894411355
 31
0.0
  0
LINE
  5
1ED
330
17
100
AcDbEntity
  8
Cycloidal_Ring_Gear
100
AcDbLine
 10
-16.90581671432701
 20
16.4469894411355
 30
0.0
 11
-16.632278542626253
 21
16.898301189885753
 31
0.0
  0
LINE
  5
1EE
330
17
100
AcDbEntity
  8
Cycloidal_Ring_Gear
100
AcDbLine
 10
-16.632278542626253
 20
16.898301189885753
 30
0.0
 11
-16.3161351446709
 21
17.33868721985519
 31
0.0
  0
LINE
  5
1EF
330
17
100
AcDbEntity
  8
Cycloidal_Ring_Gear
100
AcDbLine
 10
-16.3161351446709
 20
17.33868721985519
 30
0.0
 11
-15.957664934890673
 21
17.760072777446045
 31
0.0
  0
LINE
  5
1F0
330
17
100
AcDbEntity
  8
Cycloidal_Ring_Gear
100
AcDbLine
 10
-15.957664934890673
 20
17.760072777446045
 30
0.0
 11
-15.559561686188413
 21
18.154220906970373
 31
0.0
  0
LINE
  5
1F1
330
17
100
AcDbEntity
  8
Cycloidal_Ring_Gear
100
AcDbLine
 10
-15.559561686188413
 20
18.154220906970373
 30
0.0
 11
-15.12696741302823
 21
18.513646705239054
 31
0.0
  0
LINE
  5
1F2
330
17
100
AcDbEntity
  8
Cycloidal_Ring_Gear
100
AcDbLine
 10
-15.12696741302823
 20
18.513646705239054
 30
0.0
 11
-14.667039158089409
 21
18.83253640725404
 31
0.0
  0
LINE
  5
1F3
330
17
100
AcDbEntity
  8
Cycloidal_Ring_Gear
100
AcDbLine
 10
-14.667039158089409
 20
18.83253640725404
 30
0.0
 11
-14.188125251982406
 21
19.10740389640386
 31
0.0
  0
LINE
  5
1F4
330
17
100
AcDbEntity
  8
Cycloidal_Ring_Gear
100
AcDbLine
 10
-14.188125251982406
 20
19.10740389640386
 30
0.0
 11
-13.698781095682278
 21
19.337304819143856
 31
0.0
  0
LINE
  5
1F5
330
17
100
AcDbEntity
  8
Cycloidal_Ring_Gear
100
AcDbLine
 10
-13.698781095682278
 20
19.337304819143856
 30
0.0
 11
-13.206899022875831
 21
19.52360044746265
 31
0.0
  0
LINE
  5
1F6
330
17
100
AcDbEntity
  8
Cycloidal_Ring_Gear
100
AcDbLine
 10
-13.206899022875831
 20
19.52360044746265
 30
0.0
 11
-12.719143803440852
 21
19.669416184757942
 31
0.0
  0
LINE
  5
1F7
330
17
100
AcDbEntity
  8
Cycloidal_Ring_Gear
100
AcDbLine
 10
-12.719143803440852
 20
19.669416184757942
 30
0.0
 11
-12.24074213626991
 21
19.7789972457844
 31
0.0
  0
LINE
  5
1F8
330
17
100
AcDbEntity
  8
Cycloidal_Ring_Gear
100
AcDbLine
 10
-12.24074213626991
 20
19.7789972457844
 30
0.0
 11
-11.775557027875125
 21
19.85712682079987
 31
0.0
  0
LINE
  5
1F9
330
17
100
AcDbEntity
  8
Cycloidal_Ring_Gear
100
AcDbLine
 10
-11.775557027875125
 20
19.85712682079987
 30
0.0
 11
-11.326328455449074
 21
19.908691618353817
 31
0.0
  0
LINE
  5
1FA
330
17
100
AcDbEntity
  8
Cycloidal_Ring_Gear
100
AcDbLine
 10
-11.326328455449074
 20
19.908691618353817
 30
0.0
 11
-10.8949709185354
 21
19.938407105424915
 31
0.0
  0
LINE
  5
1FB
330
17
100
AcDbEntity
  8
Cycloidal_Ring_Gear
100
AcDbLine
 10
-10.8949709185354
 20
19.938407105424915
 30
0.0
 11
-10.482855029907043
 21
19.950672800191764
 31
0.0
  0
LINE
  5
1FC
330
17
100
AcDbEntity
  8
Cycloidal_Ring_Gear
100
AcDbLine
 10
-10.482855029907043
 20
19.950672800191764
 30
0.0
 11
-10.091037921807821
 21
19.94951472837482
 31
0.0
  0
LINE
  5
1FD
330
17
100
AcDbEntity
  8
Cycloidal_Ring_Gear
100
AcDbLine
 10
-10.091037921807821
 20
19.94951472837482
 30
0.0
 11
-9.720433796686251
 21
19.938575968897947
 31
0.0
  0
LINE
  5
1FE
330
17
100
AcDbEntity
  8
Cycloidal_Ring_Gear
100
AcDbLine
 10
-9.720433796686251
 20
19.938575968897947
 30
0.0
 11
-9.371929997289863
 21
19.92112635678829
 31
0.0
  0
LINE
  5
1FF
330
17
100
AcDbEntity
  8
Cycloidal_Ring_Gear
100
AcDbLine
 10
-9.371929997289863
 20
19.92112635678829
 30
0.0
 11
-9.046458699293183
 21
19.900072603913937
 31
0.0
  0
LINE
  5
200
330
17
100
AcDbEntity
  8
Cycloidal_Ring_Gear
100
AcDbLine
 10
-9.046458699293183
 20
19.900072603913937
 30
0.0
 11
-8.74503349982276
 21
19.877957941604855
 31
0.0
  0
LINE
  5
201
330
17
100
AcDbEntity
  8
Cycloidal_Ring_Gear
100
AcDbLine
 10
-8.74503349982276
 20
19.877957941604855
 30
0.0
 11
-8.468756533724356
 21
19.856945748823208
 31
0.0
  0
LINE
  5
202
330
17
100
AcDbEntity
  8
Cycloidal_Ring_Gear
100
AcDbLine
 10
-8.468756533724356
 20
19.856945748823208
 30
0.0
 11
-8.218796905275498
 21
19.838785388876683
 31
0.0
  0
LINE
  5
203
330
17
100
AcDbEntity
  8
Cycloidal_Ring_Gear
100
AcDbLine
 10
-8.218796905275498
 20
19.838785388876683
 30
0.0
 11
-7.996336100755387
 21
19.8247618871025
 31
0.0
  0
LINE
  5
204
330
17
100
AcDbEntity
  8
Cycloidal_Ring_Gear
100
AcDbLine
 10
-7.996336100755387
 20
19.8247618871025
 30
0.0
 11
-7.802471498011845
 21
19.8156354803425
 31
0.0
  0
LINE
  5
205
330
17
100
AcDbEntity
  8
Cycloidal_Ring_Gear
100
AcDbLine
 10
-7.802471498011845
 20
19.8156354803425
 30
0.0
 11
-7.638066531635307
 21
19.811583651317374
 31
0.0
  0
LINE
  5
206
330
17
100
AcDbEntity
  8
Cycloidal_Ring_Gear
100
AcDbLine
 10
-7.638066531635307
 20
19.811583651317374
 30
0.0
 11
-7.503538050356425
 21
19.81216754862967
 31
0.0
  0
LINE
  5
207
330
17
100
AcDbEntity
  8
Cycloidal_Ring_Gear
100
AcDbLine
 10
-7.503538050356425
 20
19.81216754862967
 30
0.0
 11
-7.398581677941335
 21
19.816355417929735
 31
0.0
  0
LINE
  5
208
330
17
100
AcDbEntity
  8
Cycloidal_Ring_Gear
100
AcDbLine
 10
-7.398581677941335
 20
19.816355417929735
 30
0.0
 11
-7.321858301009226
 21
19.82264314741521
 31
0.0
  0
LINE
  5
209
330
17
100
AcDbEntity
  8
Cycloidal_Ring_Gear
100
AcDbLine
 10
-7.321858301009226
 20
19.82264314741521
 30
0.0
 11
-7.270699220336299
 21
19.829307160686387
 31
0.0
  0
LINE
  5
20A
330
17
100
AcDbEntity
  8
Cycloidal_Ring_Gear
100
AcDbLine
 10
-7.270699220336299
 20
19.829307160686387
 30
0.0
 11
-7.240924513880253
 21
19.83479656676355
 31
0.0
  0
LINE
  5
20B
330
17
100
AcDbEntity
  8
Cycloidal_Ring_Gear
100
AcDbLine
 10
-7.240924513880253
 20
19.83479656676355
 30
0.0
 11
-7.226885851270964
 21
19.83821546229451
 31
0.0
  0
LINE
  5
20C
330
17
100
AcDbEntity
  8
Cycloidal_Ring_Gear
100
AcDbLine
 10
-7.226885851270964
 20
19.83821546229451
 30
0.0
 11
-7.221812294587652
 21
19.83977840576759
 31
0.0
  0
LINE
  5
20D
330
17
100
AcDbEntity
  8
Cycloidal_Ring_Gear
100
AcDbLine
 10
-7.221812294587652
 20
19.83977840576759
 30
0.0
 11
-7.218444173878811
 21
19.841082560401354
 31
0.0
  0
LINE
  5
20E
330
17
100
AcDbEntity
  8
Cycloidal_Ring_Gear
100
AcDbLine
 10
-7.218444173878811
 20
19.841082560401354
 30
0.0
 11
-7.20981846187564
 21
19.845071789263557
 31
0.0
  0
LINE
  5
20F
330
17
100
AcDbEntity
  8
Cycloidal_Ring_Gear
100
AcDbLine
 10
-7.20981846187564
 20
19.845071789263557
 30
0.0
 11
-7.189989858850215
 21
19.855675061282586
 31
0.0
  0
LINE
  5
210
330
17
100
AcDbEntity
  8
Cycloidal_Ring_Gear
100
AcDbLine
 10
-7.189989858850215
 20
19.855675061282586
 30
0.0
 11
-7.154492276412758
 21
19.877229094948287
 31
0.0
  0
LINE
  5
211
330
17
100
AcDbEntity
  8
Cycloidal_Ring_Gear
100
AcDbLine
 10
-7.154492276412758
 20
19.877229094948287
 30
0.0
 11
-7.10045592399356
 21
19.913866556935268
 31
0.0
  0
LINE
  5
212
330
17
100
AcDbEntity
  8
Cycloidal_Ring_Gear
100
AcDbLine
 10
-7.10045592399356
 20
19.913866556935268
 30
0.0
 11
-7.026425173618663
 21
19.96903134367018
 31
0.0
  0
LINE
  5
213
330
17
100
AcDbEntity
  8
Cycloidal_Ring_Gear
100
AcDbLine
 10
-7.026425173618663
 20
19.96903134367018
 30
0.0
 11
-6.932001342514356
 21
20.045200816350427
 31
0.0
  0
LINE
  5
214
330
17
100
AcDbEntity
  8
Cycloidal_Ring_Gear
100
AcDbLine
 10
-6.932001342514356
 20
20.045200816350427
 30
0.0
 11
-6.81744149518415
 21
20.143809057644418
 31
0.0
  0
LINE
  5
215
330
17
100
AcDbEntity
  8
Cycloidal_Ring_Gear
100
AcDbLine
 10
-6.81744149518415
 20
20.143809057644418
 30
0.0
 11
-6.683304243086448
 21
20.265314268444435
 31
0.0
  0
LINE
  5
216
330
17
100
AcDbEntity
  8
Cycloidal_Ring_Gear
100
AcDbLine
 10
-6.683304243086448
 20
20.265314268444435
 30
0.0
 11
-6.530183006558611
 21
20.40934228280704
 31
0.0
  0
LINE
  5
217
330
17
100
AcDbEntity
  8
Cycloidal_Ring_Gear
100
AcDbLine
 10
-6.530183006558611
 20
20.40934228280704
 30
0.0
 11
-6.358529430918554
 21
20.57485154120071
 31
0.0
  0
LINE
  5
218
330
17
100
AcDbEntity
  8
Cycloidal_Ring_Gear
100
AcDbLine
 10
-6.358529430918554
 20
20.57485154120071
 30
0.0
 11
-6.16855027359437
 21
20.760285493867816
 31
0.0
  0
LINE
  5
219
330
17
100
AcDbEntity
  8
Cycloidal_Ring_Gear
100
AcDbLine
 10
-6.16855027359437
 20
20.760285493867816
 30
0.0
 11
-5.9601558913418184
 21
20.96369597066758
 31
0.0
  0
LINE
  5
21A
330
17
100
AcDbEntity
  8
Cycloidal_Ring_Gear
100
AcDbLine
 10
-5.9601558913418184
 20
20.96369597066758
 30
0.0
 11
-5.732941096916311
 21
21.182832213913454
 31
0.0
  0
LINE
  5
21B
330
17
100
AcDbEntity
  8
Cycloidal_Ring_Gear
100
AcDbLine
 10
-5.732941096916311
 20
21.182832213913454
 30
0.0
 11
-5.4861848806339095
 21
21.415195639189104
 31
0.0
  0
LINE
  5
21C
330
17
100
AcDbEntity
  8
Cycloidal_Ring_Gear
100
AcDbLine
 10
-5.4861848806339095
 20
21.415195639189104
 30
0.0
 11
-5.218861847047275
 21
21.65806190199522
 31
0.0
  0
LINE
  5
21D
330
17
100
AcDbEntity
  8
Cycloidal_Ring_Gear
100
AcDbLine
 10
-5.218861847047275
 20
21.65806190199522
 30
0.0
 11
-4.92966440959616
 21
21.908471462487494
 31
0.0
  0
LINE
  5
21E
330
17
100
AcDbEntity
  8
Cycloidal_Ring_Gear
100
AcDbLine
 10
-4.92966440959616
 20
21.908471462487494
 30
0.0
 11
-4.617040875542923
 21
22.163189221394905
 31
0.0
  0
LINE
  5
21F
330
17
100
AcDbEntity
  8
Cycloidal_Ring_Gear
100
AcDbLine
 10
-4.617040875542923
 20
22.163189221394905
 30
0.0
 11
-4.2792607611086515
 21
22.418634476376933
 31
0.0
  0
LINE
  5
220
330
17
100
AcDbEntity
  8
Cycloidal_Ring_Gear
100
AcDbLine
 10
-4.2792607611086515
 20
22.418634476376933
 30
0.0
 11
-3.914524762485038
 21
22.670786053894396
 31
0.0
  0
LINE
  5
221
330
17
100
AcDbEntity
  8
Cycloidal_Ring_Gear
100
AcDbLine
 10
-3.914524762485038
 20
22.670786053894396
 30
0.0
 11
-3.5211413605421646
 21
22.915075758315325
 31
0.0
  0
LINE
  5
222
330
17
100
AcDbEntity
  8
Cycloidal_Ring_Gear
100
AcDbLine
 10
-3.5211413605421646
 20
22.915075758315325
 30
0.0
 11
-3.0977916852796317
 21
23.14629750807431
 31
0.0
  0
LINE
  5
223
330
17
100
AcDbEntity
  8
Cycloidal_Ring_Gear
100
AcDbLine
 10
-3.0977916852796317
 20
23.14629750807431
 30
0.0
 11
-2.6438933076778124
 21
23.35857878029871
 31
0.0
  0
LINE
  5
224
330
17
100
AcDbEntity
  8
Cycloidal_Ring_Gear
100
AcDbLine
 10
-2.6438933076778124
 20
23.35857878029871
 30
0.0
 11
-2.160045375653937
 21
23.54547931134097
 31
0.0
  0
LINE
  5
225
330
17
100
AcDbEntity
  8
Cycloidal_Ring_Gear
100
AcDbLine
 10
-2.160045375653937
 20
23.54547931134097
 30
0.0
 11
-1.6484892667621656
 21
23.70028586929121
 31
0.0
  0
LINE
  5
226
330
17
100
AcDbEntity
  8
Cycloidal_Ring_Gear
100
AcDbLine
 10
-1.6484892667621656
 20
23.70028586929121
 30
0.0
 11
-1.1134609420641948
 21
23.81654225209701
 31
0.0
  0
LINE
  5
227
330
17
100
AcDbEntity
  8
Cycloidal_Ring_Gear
100
AcDbLine
 10
-1.1134609420641948
 20
23.81654225209701
 30
0.0
 11
-0.5612740579279275
 21
23.888778081269063
 31
0.0
  0
LINE
  5
228
330
17
100
AcDbEntity
  8
Cycloidal_Ring_Gear
100
AcDbLine
 10
-0.5612740579279275
 20
23.888778081269063
 30
0.0
 11
0.0
 21
23.913293881255775
 31
0.0
  0
CIRCLE
  5
229
330
17
100
AcDbEntity
  8
Rollers
100
AcDbCircle
 10
0.0
 20
20.413293881255775
 30
0.0
 40
3.5
  0
CIRCLE
  5
22A
330
17
100
AcDbEntity
  8
Rollers
100
AcDbCircle
 10
14.126193507748177
 20
14.126193507748177
 30
0.0
 40
3.5
  0
CIRCLE
  5
22B
330
17
100
AcDbEntity
  8
Rollers
100
AcDbCircle
 10
18.961680943813985
 20
1.161068093714758e-15
 30
0.0
 40
3.5
  0
CIRCLE
  5
22C
330
17
100
AcDbEntity
  8
Rollers
100
AcDbCircle
 10
12.726193507748176
 20
-12.726193507748174
 30
0.0
 40
3.5
  0
CIRCLE
  5
22D
330
17
100
AcDbEntity
  8
Rollers
100
AcDbCircle
 10
2.157006397412155e-15
 20
-17.613293881255778
 30
0.0
 40
3.5
  0
CIRCLE
  5
22E
330
17
100
AcDbEntity
  8
Rollers
100
AcDbCircle
 10
-12.726193507748171
 20
-12.726193507748176
 30
0.0
 40
3.5
  0
CIRCLE
  5
22F
330
17
100
AcDbEntity
  8
Rollers
100
AcDbCircle
 10
-18.96168094381398
 20
-3.483204281144273e-15
 30
0.0
 40
3.5
  0
CIRCLE
  5
230
330
17
100
AcDbEntity
  8
Rollers
100
AcDbCircle
 10
-14.126193507748178
 20
14.126193507748171
 30
0.0
 40
3.5
  0
CIRCLE
  5
231
330
17
100
AcDbEntity
  8
Wave_Generator
100
AcDbCircle
 10
0.0
 20
1.4000000000000001
 30
0.0
 40
15.513293881255777
  0
CIRCLE
  5
232
330
17
100
AcDbEntity
  8
Wave_Generator_Bearing
100
AcDbCircle
 10
0.0
 20
1.4000000000000001
 30
0.0
 40
7.5
  0
CIRCLE
  5
233
330
17
100
AcDbEntity
  8
Wave_Generator_Bearing
100
AcDbCircle
 10
0.0
 20
1.4000000000000001
 30
0.0
 40
12.0
  0
CIRCLE
  5
234
330
17
100
AcDbEntity
  8
Separator
100
AcDbCircle
 10
0.0
 20
0.0
 30
0.0
 40
20.553293881255776
  0
CIRCLE
  5
235
330
17
100
AcDbEntity
  8
Separator
100
AcDbCircle
 10
0.0
 20
0.0
 30
0.0
 40
17.473293881255778
  0
CIRCLE
  5
236
330
17
100
AcDbEntity
  8
Input_Shaft
100
AcDbCircle
 10
0.0
 20
0.0
 30
0.0
 40
7.5
  0
ENDSEC
  0
SECTION
  2
OBJECTS
  0
DICTIONARY
  5
A
330
0
100
AcDbDictionary
280
0
281
1
  3
ACAD_COLOR
350
B
  3
ACAD_GROUP
350
C
  3
ACAD_LAYOUT
350
D
  3
ACAD_MATERIAL
350
E
  3
ACAD_MLEADERSTYLE
350
F
  3
ACAD_MLINESTYLE
350
10
  3
ACAD_PLOTSETTINGS
350
11
  3
ACAD_PLOTSTYLENAME
350
12
  3
ACAD_SCALELIST
350
14
  3
ACAD_TABLESTYLE
350
15
  3
ACAD_VISUALSTYLE
350
16
  3
EZDXF_META
350
2D
  0
DICTIONARY
  5
B
330
A
100
AcDbDictionary
280
0
281
1
  0
DICTIONARY
  5
C
330
A
100
AcDbDictionary
280
0
281
1
  0
DICTIONARY
  5
D
330
A
100
AcDbDictionary
280
0
281
1
  3
Model
350
1A
  3
Layout1
350
1E
  0
DICTIONARY
  5
E
330
A
100
AcDbDictionary
280
0
281
1
  3
ByBlock
350
1F
  3
ByLayer
350
20
  3
Global
350
21
  0
DICTIONARY
  5
F
330
A
100
AcDbDictionary
280
0
281
1
  3
Standard
350
2C
  0
DICTIONARY
  5
10
330
A
100
AcDbDictionary
280
0
281
1
  3
Standard
350
22
  0
DICTIONARY
  5
11
330
A
100
AcDbDictionary
280
0
281
1
  0
ACDBDICTIONARYWDFLT
  5
12
330
A
100
AcDbDictionary
280
0
281
1
  3
Normal
350
13
100
AcDbDictionaryWithDefault
340
13
  0
ACDBPLACEHOLDER
  5
13
330
12
  0
DICTIONARY
  5
14
330
A
100
AcDbDictionary
280
0
281
1
  0
DICTIONARY
  5
15
330
A
100
AcDbDictionary
280
0
281
1
  0
DICTIONARY
  5
16
330
A
100
AcDbDictionary
280
0
281
1
  0
LAYOUT
  5
1A
330
D
100
AcDbPlotSettings
  1

  4
A3
  6

 40
7.5
 41
20.0
 42
7.5
 43
20.0
 44
420.0
 45
297.0
 46
0.0
 47
0.0
 48
0.0
 49
0.0
140
0.0
141
0.0
142
1.0
143
1.0
 70
1024
 72
1
 73
0
 74
5
  7

 75
16
 76
0
 77
2
 78
300
147
1.0
148
0.0
149
0.0
100
AcDbLayout
  1
Model
 70
1
 71
0
 10
0.0
 20
0.0
 11
420.0
 21
297.0
 12
0.0
 22
0.0
 32
0.0
 14
1e+20
 24
1e+20
 34
1e+20
 15
-1e+20
 25
-1e+20
 35
-1e+20
146
0.0
 13
0.0
 23
0.0
 33
0.0
 16
1.0
 26
0.0
 36
0.0
 17
0.0
 27
1.0
 37
0.0
 76
1
330
17
  0
LAYOUT
  5
1E
330
D
100
AcDbPlotSettings
  1

  4
A3
  6

 40
7.5
 41
20.0
 42
7.5
 43
20.0
 44
420.0
 45
297.0
 46
0.0
 47
0.0
 48
0.0
 49
0.0
140
0.0
141
0.0
142
1.0
143
1.0
 70
0
 72
1
 73
0
 74
5
  7

 75
16
 76
0
 77
2
 78
300
147
1.0
148
0.0
149
0.0
100
AcDbLayout
  1
Layout1
 70
1
 71
1
 10
0.0
 20
0.0
 11
420.0
 21
297.0
 12
0.0
 22
0.0
 32
0.0
 14
1e+20
 24
1e+20
 34
1e+20
 15
-1e+20
 25
-1e+20
 35
-1e+20
146
0.0
 13
0.0
 23
0.0
 33
0.0
 16
1.0
 26
0.0
 36
0.0
 17
0.0
 27
1.0
 37
0.0
 76
1
330
1B
  0
MATERIAL
  5
1F
102
{ACAD_REACTORS
330
E
102
}
330
E
100
AcDbMaterial
  1
ByBlock
  2

 70
0
 40
1.0
 71
1
 41
1.0
 91
-1023410177
 42
1.0
 72
1
  3

 73
1
 74
1
 75
1
 44
0.5
 73
0
 45
1.0
 46
1.0
 77
1
  4

 78
1
 79
1
170
1
 48
1.0
171
1
  6

172
1
173
1
174
1
140
1.0
141
1.0
175
1
  7

176
1
177
1
178
1
143
1.0
179
1
  8

270
1
271
1
272
1
145
1.0
146
1.0
273
1
  9

274
1
275
1
276
1
 42
1.0
 72
1
  3

 73
1
 74
1
 75
1
 94
63
  0
MATERIAL
  5
20
102
{ACAD_REACTORS
330
E
102
}
330
E
100
AcDbMaterial
  1
ByLayer
  2

 70
0
 40
1.0
 71
1
 41
1.0
 91
-1023410177
 42
1.0
 72
1
  3

 73
1
 74
1
 75
1
 44
0.5
 73
0
 45
1.0
 46
1.0
 77
1
  4

 78
1
 79
1
170
1
 48
1.0
171
1
  6

172
1
173
1
174
1
140
1.0
141
1.0
175
1
  7

176
1
177
1
178
1
143
1.0
179
1
  8

270
1
271
1
272
1
145
1.0
146
1.0
273
1
  9

274
1
275
1
276
1
 42
1.0
 72
1
  3

 73
1
 74
1
 75
1
 94
63
  0
MATERIAL
  5
21
102
{ACAD_REACTORS
330
E
102
}
330
E
100
AcDbMaterial
  1
Global
  2

 70
0
 40
1.0
 71
1
 41
1.0
 91
-1023410177
 42
1.0
 72
1
  3

 73
1
 74
1
 75
1
 44
0.5
 73
0
 45
1.0
 46
1.0
 77
1
  4

 78
1
 79
1
170
1
 48
1.0
171
1
  6

172
1
173
1
174
1
140
1.0
141
1.0
175
1
  7

176
1
177
1
178
1
143
1.0
179
1
  8

270
1
271
1
272
1
145
1.0
146
1.0
273
1
  9

274
1
275
1
276
1
 42
1.0
 72
1
  3

 73
1
 74
1
 75
1
 94
63
  0
MLINESTYLE
  5
22
102
{ACAD_REACTORS
330
10
102
}
330
10
100
AcDbMlineStyle
  2
Standard
 70
0
  3

 62
256
 51
90.0
 52
90.0
 71
2
 49
0.5
 62
256
  6
BYLAYER
 49
-0.5
 62
256
  6
BYLAYER
  0
MLEADERSTYLE
  5
2C
102
{ACAD_REACTORS
330
F
102
}
330
F
100
AcDbMLeaderStyle
179
2
170
2
171
1
172
0
 90
2
 40
0.0
 41
0.0
173
1
 91
-1056964608
 92
-2
290
1
 42
2.0
291
1
 43
8.0
  3
Standard
 44
4.0
300

342
29
174
1
175
1
176
0
178
1
 93
-1056964608
 45
4.0
292
0
297
0
 46
4.0
 94
-1056964608
 47
1.0
 49
1.0
140
1.0
294
1
141
0.0
177
0
142
1.0
295
0
296
0
143
3.75
271
0
272
9
273
9
  0
DICTIONARY
  5
2D
330
A
100
AcDbDictionary
281
1
  3
CREATED_BY_EZDXF
350
2E
  3
WRITTEN_BY_EZDXF
350
239
  0
DICTIONARYVAR
  5
2E
330
2D
100
DictionaryVariables
280
0
  1
1.3.4 @ 2024-11-19T16:03:59.294980+00:00
  0
DICTIONARYVAR
  5
239
330
2D
100
DictionaryVariables
280
0
  1
1.3.4 @ 2024-11-19T16:03:59.314854+00:00
  0
ENDSEC
  0
EOF
